<svg width="22" height="22" viewBox="0 0 22 22" fill="none" xmlns="http://www.w3.org/2000/svg">
<path d="M0.94275 20.7198C-0.31425 19.4628 -0.31425 17.4048 0.94275 16.1478L16.1488 0.94275C17.4058 -0.31425 19.4637 -0.31425 20.7207 0.94275C21.9777 2.19975 21.9777 4.25776 20.7207 5.51476L5.51475 20.7207C4.25775 21.9777 2.20075 21.9778 0.94275 20.7198Z" fill="#FFDE4A"/>
<path d="M0.94275 0.94275C2.19975 -0.31425 4.25775 -0.31425 5.51475 0.94275L20.7207 16.1488C21.9777 17.4058 21.9777 19.4637 20.7207 20.7207C19.4637 21.9777 17.4058 21.9777 16.1488 20.7207L0.94275 5.51476C-0.31425 4.25676 -0.31425 2.19975 0.94275 0.94275Z" fill="#FFDE4A"/>
</svg>
