<svg width="140" height="159" viewBox="0 0 140 159" fill="none" xmlns="http://www.w3.org/2000/svg">
<path d="M75.0775 0.732667C75.0775 1.25267 75.1975 1.74267 75.4375 2.20267C72.1375 1.86267 69.8875 1.78267 68.6775 1.95267C67.4275 2.13267 65.7975 2.78267 63.7975 3.91267C58.0875 5.74267 54.0775 9.67266 51.7575 15.6827C48.0675 25.2627 42.3375 39.3827 34.5875 58.0527C27.9775 73.9827 22.1475 88.9627 15.7675 103.923C13.2375 109.863 11.0975 115.323 9.3475 120.303C5.8375 130.333 3.9075 135.893 3.5575 137.003C3.3775 137.553 4.0875 137.953 4.4575 137.513L6.0875 135.583C6.2075 135.443 6.4075 135.383 6.5875 135.443C6.9775 135.573 7.2275 135.443 7.3475 135.053C8.9075 130.093 11.6975 122.763 15.7075 113.053C21.5975 98.8327 27.4275 84.5927 33.1975 70.3227C33.0475 73.1527 32.5375 75.6627 31.6775 77.8327C29.4375 83.4927 27.7975 87.8227 26.7675 90.8227C26.7075 90.9927 26.8875 91.1527 27.0575 91.0727L56.3275 76.4727C54.4875 81.9827 52.2375 87.2327 49.5875 92.2427C49.5075 92.4027 49.6275 92.5927 49.8075 92.5727L53.7075 92.1127C52.7575 92.2327 52.1075 92.5027 51.7575 92.9227C51.5775 93.1327 51.6775 93.4627 51.9375 93.5427C54.8275 94.4027 57.3575 94.8427 59.5075 94.8527C72.4675 94.9427 80.4375 94.9927 83.4075 95.0227C85.6975 95.0427 87.7975 94.4127 90.0075 94.7327C90.3575 94.7827 90.6275 94.4527 90.5175 94.1227C89.6375 91.5127 87.8575 88.8527 86.9775 86.9927C82.9775 78.5227 79.3475 69.8627 76.0975 60.9927C84.7275 58.4127 93.1075 54.9527 101.228 50.6227C107.878 67.4727 114.508 84.2927 121.098 101.083C121.908 103.163 122.388 105.083 123.368 107.553C126.078 114.353 128.738 119.703 131.048 125.803C132.478 129.593 134.568 133.903 134.908 137.313C135.228 140.513 134.938 145.413 132.798 147.723C127.638 153.273 121.367 154.743 113.997 152.123C111.817 151.343 109.987 149.973 108.497 148.023L109.038 148.153C109.438 148.243 109.767 147.823 109.577 147.453C105.337 139.243 101.547 130.833 98.2175 122.223C97.6275 120.713 96.6875 119.943 95.3975 119.903C94.9875 119.093 94.4875 118.703 93.5275 118.703C66.9875 118.723 49.4775 118.723 40.9975 118.693C40.5375 118.693 40.1275 118.983 39.9775 119.413C37.9475 125.123 35.3775 132.373 32.2675 141.183C28.9475 150.573 22.3875 154.483 12.5775 152.913C10.4375 152.563 8.0275 151.183 5.3475 148.773C5.0675 148.523 4.62751 148.663 4.53751 149.033L4.4475 149.423C4.3675 149.783 3.8775 149.833 3.7175 149.503C2.7175 147.463 2.1675 145.953 2.0575 144.963C1.8175 142.703 1.8975 139.353 2.3075 134.903C2.3375 134.583 2.1175 134.293 1.8075 134.223L1.1875 134.083C4.5975 124.423 8.0175 114.623 11.8975 105.313C24.5675 74.8427 36.3475 46.0727 47.2375 19.0027C49.5275 13.2927 51.1575 9.76266 52.1175 8.42266C57.2575 1.27266 66.6075 -1.44733 75.0775 0.732667Z" fill="#ED3D27"/>
<path d="M75.0773 0.734375C81.7673 1.54438 86.2973 4.79437 88.6773 10.4844C91.4273 17.0744 94.1373 23.6744 96.8173 30.2744C106.367 53.8044 117.007 80.8544 128.737 111.424C131.497 118.624 134.827 126.154 138.737 134.004C139.297 137.794 139.267 141.294 138.657 144.514C136.797 154.344 127.767 158.514 118.597 158.014C111.547 156.474 106.347 152.334 103.017 145.604C99.7273 138.984 96.7173 131.934 93.9673 124.444C93.7273 123.774 93.0973 123.334 92.3873 123.334L46.5573 123.384C44.7173 122.974 43.5073 123.534 42.9373 125.084C40.9673 130.404 39.0173 135.714 37.0873 141.014C35.3373 145.824 33.5973 149.224 31.8873 151.224C27.3573 156.514 21.2273 158.724 13.4973 157.834C6.69729 156.484 2.42729 152.544 0.69729 146.014C-0.37271 141.964 -0.212712 137.994 1.18729 134.084L1.80729 134.224C2.11729 134.294 2.33729 134.584 2.30729 134.904C1.89729 139.354 1.81729 142.704 2.05729 144.964C2.16729 145.954 2.71729 147.464 3.71729 149.504C3.87729 149.834 4.36729 149.784 4.44729 149.424L4.53729 149.034C4.62729 148.664 5.06729 148.524 5.34729 148.774C8.02729 151.184 10.4373 152.564 12.5773 152.914C22.3873 154.484 28.9473 150.574 32.2673 141.184C35.3773 132.374 37.9473 125.124 39.9773 119.414C40.1273 118.984 40.5373 118.694 40.9973 118.694C49.4773 118.724 66.9873 118.724 93.5273 118.704C94.4873 118.704 94.9873 119.094 95.3973 119.904C98.0673 126.574 100.407 132.114 102.397 136.504C104.027 140.084 106.057 143.924 108.497 148.024C109.987 149.974 111.817 151.344 113.997 152.124C121.367 154.744 127.637 153.274 132.797 147.724C134.937 145.414 135.227 140.514 134.907 137.314C134.567 133.904 132.477 129.594 131.047 125.804C128.737 119.704 126.077 114.354 123.367 107.554C122.387 105.084 121.907 103.164 121.097 101.084C114.507 84.2944 107.877 67.4744 101.227 50.6244C99.5873 47.0644 98.0273 43.4344 96.5373 39.7444C95.7173 37.7144 95.2573 35.2344 94.5073 33.4244C93.8673 31.9044 91.0673 25.1244 86.1073 13.0844C85.2573 11.0244 83.8573 8.30437 81.8973 4.92437C81.6773 4.54437 81.3273 4.25437 80.9173 4.11437L75.4373 2.20438C75.1973 1.74438 75.0773 1.25437 75.0773 0.734375Z" fill="#BE1A11"/>
<path d="M65.4678 88.755L81.5878 89.005C81.8278 89.005 81.9878 88.765 81.8978 88.545L72.3778 65.635L69.0878 57.565C68.9178 57.145 68.3178 57.155 68.1578 57.585L56.6778 88.565C56.5978 88.785 56.7578 89.015 56.9878 89.005L65.4678 88.755ZM70.8678 52.575C72.0178 55.955 72.7778 58.105 73.1478 59.035C76.8878 68.465 81.5278 79.235 87.0778 91.355C87.1778 91.575 87.0078 91.815 86.7678 91.805C77.8678 91.425 68.7078 91.315 59.2878 91.475C57.3578 91.505 55.5978 91.855 53.7078 92.115L49.8078 92.575C49.6278 92.595 49.5078 92.405 49.5878 92.245C52.2378 87.235 54.4878 81.985 56.3278 76.475L68.0578 46.255C68.1778 45.955 68.5978 45.955 68.7078 46.265L70.8678 52.575Z" fill="#BE1A11"/>
<path d="M33.198 70.3264C27.428 84.5964 21.598 98.8364 15.708 113.056C11.698 122.766 8.90803 130.096 7.34803 135.056C7.22803 135.446 6.97803 135.576 6.58803 135.446C6.40803 135.386 6.20803 135.446 6.08803 135.586L4.45803 137.516C4.08803 137.956 3.37803 137.556 3.55803 137.006C3.90803 135.896 5.83803 130.336 9.34803 120.306C11.098 115.326 13.238 109.866 15.768 103.926C22.148 88.9664 27.978 73.9864 34.588 58.0564C42.338 39.3864 48.068 25.2664 51.758 15.6864C54.078 9.67639 58.088 5.7464 63.798 3.9164C65.388 3.6364 66.788 3.74639 68.008 4.24639C68.258 4.35639 68.288 4.6964 68.058 4.8464C63.828 7.5464 61.438 9.1064 60.868 9.5264C58.168 11.5464 56.388 14.2564 54.978 17.4664C53.348 21.2164 51.768 24.9764 50.238 28.7664C44.628 42.6464 38.948 56.4964 33.198 70.3264Z" fill="#FEA796"/>
<path d="M75.4377 2.2035L80.9176 4.11349C81.3276 4.25349 81.6777 4.54349 81.8977 4.92349C83.8577 8.30349 85.2577 11.0235 86.1077 13.0835C91.0677 25.1235 93.8677 31.9035 94.5077 33.4235C95.2577 35.2335 95.7177 37.7135 96.5377 39.7435C98.0277 43.4335 99.5877 47.0635 101.228 50.6235C93.1077 54.9535 84.7277 58.4135 76.0977 60.9935L72.4877 52.6635C72.2877 52.1935 71.7076 52.0235 71.2776 52.3035L70.8677 52.5735L68.7077 46.2635C68.5977 45.9535 68.1776 45.9535 68.0576 46.2535L56.3277 76.4735L27.0577 91.0735C26.8877 91.1535 26.7077 90.9935 26.7677 90.8235C27.7977 87.8235 29.4377 83.4935 31.6777 77.8335C32.5377 75.6635 33.0477 73.1535 33.1977 70.3235C38.9477 56.4935 44.6277 42.6435 50.2377 28.7635C51.7677 24.9735 53.3477 21.2135 54.9777 17.4635C56.3877 14.2535 58.1677 11.5435 60.8677 9.5235C61.4377 9.1035 63.8276 7.5435 68.0576 4.8435C68.2876 4.6935 68.2577 4.35349 68.0077 4.24349C66.7877 3.74349 65.3877 3.6335 63.7977 3.9135C65.7977 2.7835 67.4277 2.1335 68.6777 1.9535C69.8877 1.7835 72.1377 1.8635 75.4377 2.2035Z" fill="#F54A3A"/>
<path d="M76.0973 60.9896C79.3473 69.8596 82.9773 78.5196 86.9773 86.9896C87.8573 88.8496 89.6373 91.5096 90.5173 94.1196C90.6273 94.4496 90.3573 94.7796 90.0073 94.7296C87.7973 94.4096 85.6973 95.0396 83.4073 95.0196C80.4373 94.9896 72.4673 94.9396 59.5073 94.8496C57.3573 94.8396 54.8273 94.3996 51.9373 93.5396C51.6773 93.4596 51.5773 93.1296 51.7573 92.9196C52.1073 92.4996 52.7573 92.2296 53.7073 92.1096C55.5973 91.8496 57.3573 91.4996 59.2873 91.4696C68.7073 91.3096 77.8673 91.4196 86.7673 91.7996C87.0073 91.8096 87.1773 91.5696 87.0773 91.3496C81.5273 79.2296 76.8873 68.4597 73.1473 59.0296C72.7773 58.0996 72.0173 55.9496 70.8673 52.5696L71.2773 52.2996C71.7073 52.0196 72.2873 52.1896 72.4873 52.6596L76.0973 60.9896Z" fill="#FE7E64"/>
<path d="M108.496 148.026C106.056 143.926 104.026 140.086 102.396 136.506C100.406 132.116 98.0665 126.576 95.3965 119.906C96.6865 119.946 97.6265 120.716 98.2165 122.226C101.546 130.836 105.336 139.246 109.576 147.456C109.766 147.826 109.436 148.246 109.036 148.156L108.496 148.026Z" fill="#FE7E64"/>
</svg>
