<svg width="110" height="159" viewBox="0 0 110 159" fill="none" xmlns="http://www.w3.org/2000/svg">
<path d="M57.8607 125.958C53.7907 126.258 49.7107 126.468 45.6407 126.578C41.4407 126.698 37.6907 126.088 33.1407 126.268C33.0007 126.278 32.8907 126.388 32.8907 126.528V126.978C32.8907 127.208 33.0707 127.388 33.3007 127.388C34.8307 127.398 36.2707 127.568 37.6207 127.888C37.9507 127.958 38.2907 127.998 38.6307 127.998C45.8707 127.908 53.0707 128.088 60.2407 128.538C63.2307 128.728 66.0807 127.948 68.7707 126.208C77.8007 120.368 80.1307 112.478 75.7507 102.528C75.5407 102.048 74.8207 102.218 74.8507 102.738C75.1507 108.588 75.5607 114.808 71.2507 119.568C73.5207 114.418 74.3007 109.298 73.5807 104.208C71.9507 92.6384 65.0007 86.8284 52.7407 86.7984C46.7507 86.7784 39.8607 86.8484 32.0807 87.0084C31.8507 87.0184 31.6707 87.2084 31.6707 87.4384V125.128C31.6707 125.588 32.0507 125.968 32.5107 125.968L57.8607 125.958ZM52.1407 63.1684C47.0307 64.0784 41.8107 64.3784 36.5007 64.0584C36.3307 64.0484 36.1907 64.1784 36.1907 64.3384V64.7184C36.1907 64.8484 36.2907 64.9484 36.4207 64.9584L56.4907 65.4584C56.7207 65.4684 56.9407 65.4384 57.1607 65.3684C63.8307 63.3384 68.1507 59.1384 70.1107 52.7484C71.3507 47.6884 69.5207 41.8384 67.2607 37.3484C67.0407 36.9184 66.3907 37.0784 66.4107 37.5584L66.5907 41.8584L64.8007 36.6784C64.7007 36.3784 64.5507 36.1084 64.3507 35.8684C61.2207 31.9884 57.2507 29.8584 52.4207 29.4784C46.9507 29.0484 40.2007 29.0584 32.1607 29.5284C31.9707 29.5384 31.8307 29.6884 31.8307 29.8684V62.5884C31.8307 62.9784 32.1807 63.2784 32.5707 63.2184C39.0407 62.2184 45.5707 62.1984 52.1407 63.1684ZM71.3907 5.12838C76.7507 6.91838 81.6507 9.80838 86.0907 13.7984C92.0807 19.1784 95.6207 25.8484 96.7207 33.8084C97.2707 37.8384 97.5007 41.5384 97.3907 44.9284C97.3907 44.9884 97.3407 45.0384 97.2807 45.0484C97.2207 45.0584 97.1607 45.0184 97.1507 44.9584C96.4607 41.7884 96.0707 39.0384 95.9607 36.6884C95.6907 31.0784 93.6207 25.6284 89.7407 20.3584C89.7007 20.2984 89.6207 20.2784 89.5607 20.3184L89.5407 20.3284C89.4307 20.3984 89.4007 20.5484 89.4707 20.6684C94.0407 27.6384 94.8107 35.2084 94.6007 43.3684C94.3007 55.4284 87.5007 64.2284 78.9507 72.1984C78.6507 72.4884 78.8107 72.9884 79.2207 73.0484L83.7007 73.6884C83.9607 73.7184 84.2107 73.8084 84.4307 73.9384C91.2807 77.9584 96.1207 82.2584 98.9607 86.8384C105.061 96.6884 106.671 107.698 103.801 119.868C102.791 124.138 101.931 126.968 101.231 128.348C98.0707 134.518 93.6807 139.518 88.0507 143.338C79.3507 149.258 68.7107 152.748 57.6507 153.048C46.6407 153.348 34.3807 153.248 17.0207 153.078C12.0907 153.028 8.56071 150.898 6.43071 146.678C7.14071 146.578 7.43071 146.328 7.30071 145.918C6.77071 144.308 6.46071 142.788 6.35071 141.358C6.08071 137.548 6.73072 130.888 6.75072 127.048C7.05072 75.1684 7.16072 39.3584 7.09072 19.6084C7.08072 15.4784 8.29072 12.0684 10.7307 9.35838C13.7607 7.44838 15.4207 5.27839 15.7107 2.83839C28.3807 1.94839 41.4807 1.81838 55.0107 2.43838C60.4107 2.68838 65.8707 3.57838 71.3907 5.12838Z" fill="#FD7F25"/>
<path d="M70.1106 52.7516L68.8406 44.8416C68.7806 44.4916 68.2906 44.4816 68.2106 44.8316L66.5606 52.4516L66.5906 41.8616L66.4106 37.5616C66.3906 37.0816 67.0406 36.9216 67.2606 37.3516C69.5206 41.8416 71.3506 47.6916 70.1106 52.7516Z" fill="#FEA835"/>
<path d="M57.8606 125.963C63.3506 125.813 67.8206 123.683 71.2506 119.573C75.5606 114.813 75.1506 108.593 74.8506 102.743C74.8206 102.223 75.5406 102.053 75.7506 102.533C80.1306 112.483 77.8006 120.373 68.7706 126.213C66.0806 127.953 63.2306 128.733 60.2406 128.543C53.0706 128.093 45.8706 127.913 38.6306 128.003C38.2906 128.003 37.9506 127.963 37.6206 127.893C36.2706 127.573 34.8306 127.403 33.3006 127.393C33.0706 127.393 32.8906 127.213 32.8906 126.983V126.533C32.8906 126.393 33.0006 126.283 33.1406 126.273C37.6906 126.093 41.4406 126.703 45.6406 126.583C49.7106 126.473 53.7906 126.263 57.8606 125.963Z" fill="#FEA835"/>
<path d="M69.24 2.75985C69.71 3.57985 70.43 4.36984 71.39 5.12984C65.87 3.57984 60.41 2.68985 55.01 2.43985C41.48 1.81985 28.38 1.94985 15.71 2.83985C8.98001 4.89985 5.03 8.79985 3.87 14.5499C2.73 22.3599 3.42 29.8698 3.26 38.0398C3.13 44.0698 3.08 48.2899 3.1 50.6799C3.3 77.3299 2.98 104.46 3.7 131.37C3.87 137.44 4.60001 142.28 5.89001 145.87C5.34001 146.2 4.97 146.64 4.79 147.19C4.68 147.53 4.20999 147.57 4.04999 147.25C2.54999 144.24 2.14 141.95 2.18 137.96C2.2 135.93 2.03999 134.02 1.68999 132.23C1.61999 131.88 1.21 131.72 0.929999 131.93C0.639999 132.15 0.419995 132.57 0.269995 133.19C0.199995 132.42 0.16 131.06 0.15 129.11C-0.05 81.6198 -0.05 46.1299 0.15 22.6299C0.2 16.1599 0.440007 9.79985 5.36001 5.01985C10.81 -0.280149 15.82 0.0398495 24.66 0.00984947C31.6 -0.0201505 39.88 0.0198479 49.51 0.109848C55.86 0.169848 63.14 0.70985 69.24 2.75985Z" fill="#DB670E"/>
<path d="M70.1095 52.7479C68.1495 59.1379 63.8295 63.3379 57.1595 65.3679C56.9395 65.4379 56.7195 65.4679 56.4895 65.4579L36.4195 64.9579C36.2895 64.9479 36.1895 64.8479 36.1895 64.7179V64.3379C36.1895 64.1779 36.3295 64.0479 36.4995 64.0579C41.8095 64.3779 47.0295 64.0779 52.1395 63.1679C59.1895 62.3679 63.9894 58.7979 66.5594 52.4479L68.2095 44.8279C68.2895 44.4779 68.7794 44.4879 68.8394 44.8379L70.1095 52.7479Z" fill="#FED081"/>
<path d="M69.2395 2.75781C84.6895 7.11781 96.4195 19.2478 98.7395 35.4178C100.429 49.6978 96.2295 61.7178 86.1495 71.4878C86.0295 71.6078 86.0494 71.7978 86.1894 71.8878L93.4094 76.2778C106.769 86.6878 111.619 103.758 108.489 120.218C107.339 124.338 106.149 127.858 104.929 130.778C97.3395 148.978 75.4094 157.888 56.8694 158.008C40.2394 158.118 27.6195 158.138 19.0095 158.078C16.4795 158.058 14.3594 157.728 12.6594 157.098C6.78945 154.068 1.40946 148.548 0.699459 141.848C0.389459 138.918 0.249451 136.038 0.269451 133.188C0.419451 132.568 0.639454 132.148 0.929454 131.928C1.20945 131.718 1.61945 131.878 1.68945 132.228C2.03945 134.018 2.19945 135.928 2.17945 137.958C2.13945 141.948 2.54945 144.238 4.04945 147.248C4.20945 147.568 4.67945 147.528 4.78945 147.188C4.96945 146.638 5.33946 146.198 5.88946 145.868C6.13946 146.088 6.31945 146.358 6.42945 146.678C8.55945 150.898 12.0895 153.028 17.0195 153.078C34.3795 153.248 46.6395 153.348 57.6495 153.048C68.7095 152.748 79.3495 149.258 88.0495 143.338C93.6795 139.518 98.0695 134.518 101.229 128.348C101.929 126.968 102.789 124.138 103.799 119.868C106.669 107.698 105.059 96.6878 98.9595 86.8378C96.1195 82.2578 91.2795 77.9578 84.4295 73.9378C84.2095 73.8078 83.9595 73.7178 83.6995 73.6878L79.2194 73.0478C78.8094 72.9878 78.6495 72.4878 78.9495 72.1978C87.4995 64.2278 94.2994 55.4278 94.5994 43.3678C94.8094 35.2078 94.0394 27.6378 89.4694 20.6678C89.3994 20.5478 89.4295 20.3978 89.5395 20.3278L89.5594 20.3178C89.6194 20.2778 89.6995 20.2978 89.7395 20.3578C93.6195 25.6278 95.6895 31.0778 95.9595 36.6878C96.0695 39.0378 96.4595 41.7878 97.1495 44.9578C97.1595 45.0178 97.2194 45.0578 97.2794 45.0478C97.3394 45.0378 97.3895 44.9878 97.3895 44.9278C97.4995 41.5378 97.2694 37.8378 96.7194 33.8078C95.6194 25.8478 92.0794 19.1778 86.0894 13.7978C81.6494 9.80781 76.7495 6.91781 71.3895 5.12781C70.4295 4.36781 69.7095 3.57781 69.2395 2.75781Z" fill="#CC3D09"/>
<path d="M36.0501 59.8469C39.5201 60.3969 43.7301 60.6069 48.6901 60.4669C57.3901 60.2269 64.9501 55.0769 64.0201 45.6069C63.7101 42.4369 62.4801 39.8169 60.3501 37.7469C57.9401 35.4969 54.9901 34.3469 51.5201 34.2969C46.5201 34.2269 41.5901 34.2469 36.7301 34.3569C36.3701 34.3669 36.0801 34.6569 36.0801 35.0169L36.0501 59.8469ZM66.5901 41.8569L66.5601 52.4469C63.9901 58.7969 59.1901 62.3669 52.1401 63.1669C45.5701 62.1969 39.0401 62.2169 32.5701 63.2169C32.1801 63.2769 31.8301 62.9769 31.8301 62.5869V29.8669C31.8301 29.6869 31.9701 29.5369 32.1601 29.5269C40.2001 29.0569 46.9501 29.0469 52.4201 29.4769C57.2501 29.8569 61.2201 31.9869 64.3501 35.8669C64.5501 36.1069 64.7001 36.3769 64.8001 36.6769L66.5901 41.8569Z" fill="#CC3D09"/>
<path d="M37.0499 123.95C42.4599 124.06 47.8599 124.15 53.2499 124.24C58.2399 124.31 62.5199 123.06 66.0899 120.47C68.8099 118.49 70.6799 115.47 71.7099 111.4C73.2299 101.37 69.0399 94.9602 59.1399 92.1802C58.9499 92.1302 58.7699 92.1002 58.5799 92.1002L36.6799 91.9202C36.3399 91.9102 36.0599 92.1902 36.0599 92.5302C35.9499 102.41 35.9399 112.64 36.0499 123.22C36.0499 123.51 36.1499 123.71 36.3399 123.83C36.5299 123.95 36.7599 123.99 37.0499 123.95ZM71.2499 119.57C67.8199 123.68 63.3499 125.81 57.8599 125.96L32.5099 125.97C32.0499 125.97 31.6699 125.59 31.6699 125.13V87.4402C31.6699 87.2102 31.8499 87.0202 32.0799 87.0102C39.8599 86.8502 46.7499 86.7802 52.7399 86.8002C64.9999 86.8302 71.9499 92.6402 73.5799 104.21C74.2999 109.3 73.5199 114.42 71.2499 119.57Z" fill="#CC3D09"/>
<path d="M10.73 9.35938C8.28996 12.0694 7.07997 15.4794 7.08997 19.6094C7.15997 39.3594 7.04997 75.1694 6.74997 127.049C6.72997 130.889 6.07996 137.549 6.34996 141.359C6.45996 142.789 6.76996 144.309 7.29996 145.919C7.42996 146.329 7.13996 146.579 6.42996 146.679C6.31996 146.359 6.13997 146.089 5.88997 145.869C4.59997 142.279 3.86997 137.439 3.69997 131.369C2.97997 104.459 3.29996 77.3294 3.09996 50.6794C3.07996 48.2894 3.12996 44.0694 3.25996 38.0394C3.41996 29.8694 2.72996 22.3594 3.86996 14.5494L4.14996 19.0294C4.15996 19.2094 4.29996 19.3494 4.47996 19.3594C4.64996 19.3794 4.80996 19.2594 4.84996 19.0894C5.71996 15.2394 7.67996 11.9894 10.73 9.35938Z" fill="#FE7E64"/>
</svg>
