<svg width="128" height="160" viewBox="0 0 128 160" fill="none" xmlns="http://www.w3.org/2000/svg">
<path d="M76.7994 125.857C76.7994 125.947 76.8694 126.027 76.9694 126.047C84.0094 127.097 88.6094 128.077 93.9494 126.127C97.7794 124.727 102.719 122.357 108.759 119.007C108.849 118.957 108.949 118.917 109.049 118.887L113.439 117.647C113.759 117.557 113.769 117.107 113.449 117.007C111.239 116.357 109.149 116.127 107.199 116.327C106.839 116.367 106.479 116.457 106.129 116.597C99.5894 119.337 93.6794 123.227 86.4294 124.177C83.2394 124.607 81.0194 125.027 79.7694 125.457C79.6894 125.487 79.6094 125.497 79.5194 125.497H76.8394C76.8194 125.497 76.7994 125.517 76.7994 125.547V125.857ZM6.39936 65.577C7.27936 65.287 7.92938 64.527 8.06938 63.607C10.7394 46.007 20.7694 30.107 35.5894 19.777C40.8894 16.087 45.3294 13.547 48.8994 12.137C57.5694 8.71704 62.3694 6.82703 63.2894 6.46703C63.7694 6.27703 64.1494 5.94704 64.4194 5.47704C64.7394 4.93704 64.3394 4.25704 63.7194 4.26704C61.8294 4.29704 60.7394 4.66704 59.1494 5.05704C37.3094 10.347 21.3394 22.897 11.2394 42.707C8.25936 48.547 6.20939 54.707 5.07939 61.177C4.71939 63.227 4.51937 64.477 4.46937 64.937C4.40937 65.557 4.99937 66.027 5.58937 65.837L6.39936 65.577ZM88.7894 0.737039L87.6394 1.08704C87.0894 1.25704 87.1494 2.05704 87.7194 2.13704C98.1094 3.55704 107.539 6.93704 116.029 12.287C119.359 14.377 122.029 17.237 124.059 20.857C124.359 21.387 124.059 22.067 123.469 22.197L122.529 22.407C122.189 22.487 121.969 22.817 122.039 23.157C123.139 28.967 120.489 35.517 114.979 38.257C109.989 40.737 104.669 40.467 99.0294 37.437C85.8794 30.387 72.4594 29.917 58.7794 36.007C37.6594 45.407 28.5694 67.637 33.1294 90.137C34.2894 95.847 36.6094 101.277 40.0794 106.447C40.1494 106.567 40.2394 106.667 40.3494 106.757L48.1294 113.337C48.1594 113.367 48.2094 113.397 48.2594 113.407C48.3294 113.417 48.4094 113.437 48.4894 113.447C48.7194 113.477 48.9294 113.567 49.1094 113.717C51.0594 115.337 53.1494 116.887 55.3894 118.367C55.8794 118.687 56.3194 118.647 56.7294 118.247C56.8594 118.127 56.8194 117.907 56.5994 117.587C61.4194 120.217 66.3494 121.697 71.3994 122.007C79.1094 122.497 86.6994 121.407 94.1694 118.737C97.4194 117.577 101.339 115.177 104.089 114.087C107.919 112.577 111.909 112.537 116.059 113.957C115.619 114.167 115.359 114.417 115.279 114.687C115.189 115.007 115.379 115.267 115.859 115.457C119.349 116.887 122.159 119.267 124.309 122.577C124.479 122.837 124.199 123.157 123.919 123.027C123.529 122.837 123.179 122.737 122.869 122.717C122.529 122.697 122.279 123.037 122.389 123.357C126.939 136.337 116.939 144.217 106.309 148.267C92.5994 153.487 78.7294 155.147 64.6994 153.237C56.4094 152.107 47.5894 149.327 38.2594 144.887C28.2494 140.117 18.9594 131.737 13.5794 122.177C10.0094 115.837 7.57937 111.077 6.30937 107.887C2.53937 98.477 0.799386 88.657 1.10939 78.427C1.35939 70.307 3.84937 61.877 3.49937 53.457C14.3294 15.767 50.9394 -4.18296 88.7894 0.737039Z" fill="#00ABE0"/>
<path d="M88.7906 0.734375C101.731 2.46438 126.151 10.5944 126.861 26.6644C127.011 29.8844 126.351 32.9944 124.881 36.0044C120.511 42.8544 112.281 46.3544 104.291 44.7944C103.621 44.6644 100.881 43.4444 96.0807 41.1144C78.0207 32.3744 55.3707 38.4244 43.8607 54.6744C36.9806 64.3744 35.5306 77.5444 37.5606 89.3344C39.8506 101.894 46.1906 111.314 56.6006 117.584C56.8206 117.904 56.8606 118.124 56.7306 118.244C56.3206 118.644 55.8806 118.684 55.3906 118.364C53.1506 116.884 51.0606 115.334 49.1106 113.714C48.9306 113.564 48.7206 113.474 48.4906 113.444C48.4106 113.434 48.3306 113.414 48.2606 113.404C48.2106 113.394 48.1606 113.364 48.1306 113.334L40.3506 106.754C40.2406 106.664 40.1507 106.564 40.0807 106.444C36.6107 101.274 34.2906 95.8444 33.1306 90.1344C28.5706 67.6344 37.6606 45.4044 58.7806 36.0044C72.4606 29.9144 85.8806 30.3844 99.0306 37.4344C104.671 40.4644 109.991 40.7344 114.981 38.2544C120.491 35.5144 123.141 28.9644 122.041 23.1544C121.971 22.8144 122.191 22.4844 122.531 22.4044L123.471 22.1944C124.061 22.0644 124.361 21.3844 124.061 20.8544C122.031 17.2344 119.361 14.3744 116.031 12.2844C107.541 6.93438 98.1106 3.55438 87.7206 2.13438C87.1506 2.05438 87.0906 1.25437 87.6406 1.08437L88.7906 0.734375Z" fill="#017AB6"/>
<path d="M116.06 113.961C123.9 117.521 127.88 123.391 128 131.561C126.74 146.891 111.9 152.501 99.44 156.251C86.34 160.191 72.39 160.411 57.59 156.911C47.87 154.611 39.39 151.091 32.16 146.341C12.9 132.611 0.6 111.401 0 87.2109L0.0299988 75.3409C0.319999 67.9309 1.47 60.6409 3.5 53.4609C3.85 61.8809 1.36002 70.3109 1.11002 78.4309C0.800016 88.6609 2.54 98.4809 6.31 107.891C7.58 111.081 10.01 115.841 13.58 122.181C18.96 131.741 28.25 140.121 38.26 144.891C47.59 149.331 56.41 152.111 64.7 153.241C78.73 155.151 92.6 153.491 106.31 148.271C116.94 144.221 126.94 136.341 122.39 123.361C122.28 123.041 122.53 122.701 122.87 122.721C123.18 122.741 123.53 122.841 123.92 123.031C124.2 123.161 124.48 122.841 124.31 122.581C122.16 119.271 119.35 116.891 115.86 115.461C115.38 115.271 115.19 115.011 115.28 114.691C115.36 114.421 115.62 114.171 116.06 113.961Z" fill="#017AB6"/>
<path d="M4.46906 64.9357C4.51906 64.4757 4.71908 63.2257 5.07908 61.1757C6.20908 54.7057 8.25905 48.5457 11.2391 42.7057C21.3391 22.8957 37.3091 10.3457 59.1491 5.05573C60.7391 4.66573 61.8291 4.29573 63.7191 4.26573C64.3391 4.25573 64.7391 4.93573 64.4191 5.47573C64.1491 5.94573 63.7691 6.27573 63.2891 6.46573C62.3691 6.82573 57.5691 8.71574 48.8991 12.1357C45.3291 13.5457 40.8891 16.0857 35.5891 19.7757C20.7691 30.1057 10.7391 46.0057 8.06907 63.6057C7.92907 64.5257 7.27906 65.2857 6.39906 65.5757L5.58906 65.8357C4.99906 66.0257 4.40906 65.5557 4.46906 64.9357Z" fill="#7BD5F6"/>
<path d="M76.8408 125.498H79.5208C79.6108 125.498 79.6908 125.488 79.7708 125.458C81.0208 125.028 83.2408 124.608 86.4308 124.178C93.6808 123.228 99.5908 119.338 106.131 116.598C106.481 116.458 106.841 116.368 107.201 116.328C109.151 116.128 111.241 116.358 113.451 117.008C113.771 117.108 113.761 117.558 113.441 117.648L109.051 118.888C108.951 118.918 108.851 118.958 108.761 119.008C102.721 122.358 97.7808 124.728 93.9508 126.128C88.6108 128.078 84.0108 127.098 76.9708 126.048C76.8708 126.028 76.8008 125.948 76.8008 125.858V125.548C76.8008 125.518 76.8208 125.498 76.8408 125.498Z" fill="#7BD5F6"/>
</svg>
