<svg width="126" height="158" viewBox="0 0 126 158" fill="none" xmlns="http://www.w3.org/2000/svg">
<path d="M57.7731 123.141C62.3831 123.471 66.8231 122.711 71.1031 120.881C75.1731 119.141 77.8931 117.691 79.2731 116.531C87.2431 109.801 92.3931 101.321 94.7131 91.1011C96.0631 85.1811 95.0831 80.6511 94.0131 74.7011C93.8031 73.5111 93.4131 72.3811 92.8531 71.3311C92.6731 70.9811 92.1531 71.0511 92.0731 71.4411C91.7031 73.2811 91.6031 75.2511 91.7931 77.3511C92.1831 81.8411 91.9031 86.1711 90.9331 90.3411L90.4231 74.2311C90.4231 74.1811 90.4231 74.1211 90.4131 74.0711C89.4931 69.1211 88.0731 63.7311 86.1531 57.8911C84.0431 51.5011 81.5131 46.7011 78.5531 43.5111C71.6231 36.0311 62.8331 32.8611 52.5631 32.4211C44.1731 32.0611 38.0131 31.8311 34.0831 31.7311C33.8331 31.7211 33.6231 31.9311 33.6231 32.1811V122.871C33.6231 123.161 33.8731 123.381 34.1631 123.341C34.3831 123.311 34.6431 123.211 34.9431 123.051C35.1531 122.941 35.3831 122.881 35.6231 122.881L57.7731 123.141ZM5.99308 139.401C6.18308 98.7011 6.9431 72.9611 7.3931 32.7211C7.4531 27.7911 7.09309 23.2811 6.31309 19.2011C6.70309 14.9611 8.35311 11.4911 11.2731 8.79107C16.7831 3.69107 23.2531 4.54107 30.1631 4.22107C30.4831 4.21107 30.7331 3.95107 30.7531 3.63107C30.7631 3.32107 30.5331 3.04107 30.2231 3.00107C25.7331 2.40107 21.1031 2.49107 16.3431 3.26107C10.4631 4.21107 6.26313 7.61107 4.10313 12.9011C3.98313 13.2011 3.92307 13.5111 3.92307 13.8311C4.03307 59.3011 4.04312 101.301 3.97312 139.821C3.97312 142.061 5.12308 144.651 7.43308 147.601C7.50308 147.691 7.62308 147.741 7.74308 147.731C7.93308 147.721 8.07311 147.691 8.15311 147.641C8.36311 147.521 8.43309 147.251 8.31309 147.041C6.92309 144.721 6.14308 142.171 5.99308 139.401ZM85.6731 8.97107C85.5431 9.61107 85.6431 10.2511 85.9531 10.9011C88.7231 13.5011 91.7031 15.8311 94.9131 17.8911C96.0331 18.6111 97.0631 19.4511 98.0031 20.4011C99.8931 22.3311 101.823 24.2411 103.793 26.1411C109.183 31.3511 112.733 38.6211 116.283 45.6311C118.113 50.8111 119.223 54.7911 119.613 57.5811C120.883 66.6211 121.163 75.8411 120.453 85.2511C119.553 97.0311 115.843 108.521 110.213 118.211C100.063 135.711 85.0831 146.561 65.2831 150.751C60.1731 151.831 54.6031 152.481 48.5531 152.691C38.0831 153.061 27.6731 153.061 17.3031 152.691C14.4531 152.591 11.7731 151.721 9.28312 150.081C9.02312 149.911 8.68308 149.971 8.49308 150.201L8.30308 150.421C8.06308 150.701 7.65313 150.761 7.35313 150.571C6.33313 149.921 5.42309 149.041 4.63309 147.941C4.41309 147.631 3.94309 147.661 3.75309 147.991C3.68309 148.111 3.65311 148.331 3.65311 148.641C1.27311 145.051 0.0730869 140.871 0.0630869 136.101C-0.0569131 75.1911 -0.00687896 38.5211 0.223121 26.1011C0.303121 22.0611 0.343126 19.4511 0.353126 18.2611C0.383126 14.8711 0.763089 12.3011 1.50309 10.5611C3.99309 4.72107 9.83308 1.09107 15.9331 0.181072C16.8631 0.0510717 19.9731 -0.00892858 25.2431 0.00107142C27.5531 0.00107142 35.4031 0.0910681 48.8131 0.271068C61.9331 0.451068 74.2231 3.35107 85.6731 8.97107Z" fill="#FFCF3A"/>
<path d="M116.283 45.6284C112.733 38.6184 109.183 31.3484 103.793 26.1384C101.823 24.2384 99.8931 22.3284 98.0031 20.3984C97.0631 19.4484 96.0331 18.6084 94.9131 17.8884C91.7031 15.8284 88.7231 13.4984 85.9531 10.8984C89.2631 12.3284 91.8431 13.6884 93.6931 14.9784C102.473 21.0684 110.923 30.1084 116.213 39.9184C118.223 43.6584 119.793 47.9184 120.903 52.6884C123.733 64.8684 124.253 77.0384 122.473 89.1984C122.443 89.3884 122.263 89.5284 122.063 89.4984L121.993 89.4884C121.793 89.4584 121.643 89.2684 121.673 89.0684C123.423 75.8284 122.483 62.7384 118.843 49.8084C118.273 47.7784 117.493 45.8984 116.523 44.1684C116.433 44.0084 116.183 44.0784 116.193 44.2584L116.283 45.6284Z" fill="#FEA835"/>
<path d="M5.99252 139.403C5.10252 135.573 4.75252 131.643 4.93252 127.593C5.27252 120.173 5.56253 113.963 5.50253 106.943C5.31253 81.3531 5.17254 57.9031 5.08254 36.6031C5.05254 29.0931 5.46252 23.2931 6.31252 19.2031C7.09252 23.2831 7.45254 27.7931 7.39254 32.7231C6.94254 72.9631 6.18252 98.7031 5.99252 139.403Z" fill="#FED081"/>
<path d="M57.7734 123.138C74.5234 119.658 87.0934 107.008 90.9334 90.3382C91.9034 86.1682 92.1834 81.8381 91.7934 77.3481C91.6034 75.2481 91.7034 73.2781 92.0734 71.4381C92.1534 71.0481 92.6735 70.9781 92.8535 71.3281C93.4135 72.3781 93.8034 73.5082 94.0134 74.6982C95.0834 80.6482 96.0634 85.1781 94.7134 91.0981C92.3934 101.318 87.2434 109.798 79.2734 116.528C77.8934 117.688 75.1735 119.138 71.1035 120.878C66.8235 122.708 62.3834 123.468 57.7734 123.138Z" fill="#FED081"/>
<path d="M85.6723 8.96875C102.202 17.3588 114.072 30.2488 121.272 47.6188C125.292 61.6588 126.392 75.8187 124.582 90.0987C122.792 104.209 117.512 117.339 108.742 129.509C94.4623 149.299 71.3723 157.479 47.5723 157.799C37.3023 157.939 27.0423 157.919 16.7923 157.749C11.2223 156.459 6.84234 153.419 3.65234 148.639C3.65234 148.329 3.68232 148.109 3.75232 147.989C3.94232 147.659 4.41232 147.629 4.63232 147.939C5.42232 149.039 6.33236 149.919 7.35236 150.569C7.65236 150.759 8.06231 150.699 8.30231 150.419L8.49231 150.199C8.68231 149.969 9.02235 149.909 9.28235 150.079C11.7723 151.719 14.4523 152.589 17.3023 152.689C27.6723 153.059 38.0823 153.059 48.5523 152.689C54.6023 152.479 60.1723 151.829 65.2823 150.749C85.0823 146.559 100.062 135.709 110.212 118.209C115.842 108.519 119.552 97.0287 120.452 85.2487C121.162 75.8387 120.882 66.6187 119.612 57.5787C119.222 54.7887 118.112 50.8087 116.282 45.6287L116.192 44.2588C116.182 44.0788 116.432 44.0088 116.522 44.1688C117.492 45.8988 118.272 47.7788 118.842 49.8088C122.482 62.7388 123.422 75.8287 121.672 89.0687C121.642 89.2687 121.792 89.4587 121.992 89.4887L122.062 89.4987C122.262 89.5287 122.442 89.3888 122.472 89.1988C124.252 77.0388 123.732 64.8687 120.902 52.6887C119.792 47.9187 118.222 43.6588 116.212 39.9188C110.922 30.1088 102.472 21.0688 93.6923 14.9788C91.8423 13.6888 89.2623 12.3288 85.9523 10.8988C85.6423 10.2488 85.5423 9.60875 85.6723 8.96875Z" fill="#E89D11"/>
<path d="M42.873 120.725C55.793 121.755 69.353 117.895 77.803 108.605C92.313 92.6647 91.8231 68.7847 80.1431 51.2847C73.6131 41.8647 64.3431 37.8347 52.8531 37.4547C47.1131 37.2747 42.3131 37.1947 38.4531 37.2247C38.0231 37.2347 37.673 37.5747 37.673 38.0047V120.035C37.673 120.355 37.9031 120.635 38.2231 120.695C39.7131 120.985 41.263 120.995 42.873 120.725ZM90.933 90.3447C87.093 107.015 74.5231 119.665 57.7731 123.145L35.623 122.885C35.383 122.885 35.1531 122.945 34.9431 123.055C34.6431 123.215 34.3831 123.315 34.1631 123.345C33.8731 123.385 33.623 123.165 33.623 122.875V32.1847C33.623 31.9347 33.8331 31.7247 34.0831 31.7347C38.0131 31.8347 44.173 32.0647 52.563 32.4247C62.833 32.8647 71.623 36.0347 78.553 43.5147C81.513 46.7047 84.0431 51.5047 86.1531 57.8947C88.0731 63.7347 89.4931 69.1247 90.4131 74.0747C90.4231 74.1247 90.423 74.1847 90.423 74.2347L90.933 90.3447Z" fill="#E89D11"/>
</svg>
