<svg width="100" height="159" viewBox="0 0 100 159" fill="none" xmlns="http://www.w3.org/2000/svg">
<path d="M92.5737 131.213C96.6737 139.413 93.6337 147.773 85.6337 151.683C83.7137 152.633 80.7137 153.123 76.6237 153.163C54.2837 153.403 34.8537 153.363 18.3437 153.053C13.2937 152.953 9.32371 151.023 6.42371 147.263L6.94366 147.153C7.32366 147.073 7.54368 146.673 7.39368 146.313L6.01367 142.853C7.98367 136.783 10.6037 129.563 15.4037 125.533C20.6337 121.123 25.9837 122.873 31.3337 126.123C31.5937 126.273 31.8637 126.393 32.1537 126.483C37.3237 128.113 42.6237 128.953 48.0737 129.003C59.0237 129.113 70.0837 129.043 81.2537 128.773C85.3837 128.673 89.1537 129.483 92.5737 131.213Z" fill="#9954B3"/>
<path d="M12.0033 4.14062L14.6433 4.20062C15.3033 4.22062 15.5033 5.10063 14.9233 5.40063C14.2433 5.75063 13.6633 6.30062 13.1933 7.03062C13.0233 7.30062 12.7833 7.52062 12.4933 7.66062C9.53327 9.17062 7.62329 11.5806 6.76329 14.9006C6.71329 15.0706 6.69328 15.2406 6.69328 15.4106C6.72328 38.2406 6.6533 69.1006 6.4633 107.971C6.4533 110.681 6.19328 115.151 5.69328 121.381C5.11328 128.511 5.22329 135.671 6.01329 142.851L7.39329 146.311C7.54329 146.671 7.32328 147.071 6.94328 147.151L6.42332 147.261C3.91332 143.141 2.66327 138.491 2.68327 133.321C2.71327 126.661 2.60332 117.501 2.92332 110.001C3.40332 99.2406 3.12332 89.7006 3.42332 77.8106C3.55332 73.0106 3.53332 67.7006 3.36332 61.8706C3.25332 58.0906 3.24331 55.7006 3.34331 54.6906C3.56331 52.4506 3.0833 51.3006 3.4033 49.3906C3.4933 48.8206 3.47331 48.1106 3.34331 47.2706C3.15331 46.0806 3.12328 44.0806 3.25328 41.2906C3.53328 34.9806 3.11328 29.0206 3.25328 22.0706C3.26328 21.7506 3.21327 21.4406 3.12327 21.1406C2.59327 19.3906 2.38331 17.9506 2.47331 16.8406C2.98331 10.5206 6.16328 6.29063 12.0033 4.14062Z" fill="#C69BD4"/>
<path d="M92.9941 3.70148C92.5041 3.94148 92.2141 4.30148 92.1441 4.77148C89.2141 3.23148 87.0441 2.44148 85.6441 2.40148C75.1341 2.09148 52.5741 2.06148 17.9541 2.31148C17.6941 2.31148 17.4241 2.35148 17.1641 2.44148L12.0041 4.14148C6.16408 6.29148 2.98411 10.5215 2.47411 16.8415C2.38411 17.9515 2.59407 19.3915 3.12407 21.1415C3.21407 21.4415 3.26408 21.7515 3.25408 22.0715C3.11408 29.0215 3.53408 34.9815 3.25408 41.2915C3.12408 44.0815 3.1541 46.0815 3.3441 47.2715C3.4741 48.1115 3.4941 48.8215 3.4041 49.3915C3.0841 51.3015 3.5641 52.4515 3.3441 54.6915C3.2441 55.7015 3.25412 58.0915 3.36412 61.8715C3.53412 67.7015 3.55412 73.0115 3.42412 77.8115C3.12412 89.7015 3.40412 99.2415 2.92412 110.001C2.60412 117.501 2.71407 126.661 2.68407 133.321C2.66407 138.491 3.91412 143.141 6.42412 147.261C9.32412 151.021 13.2941 152.951 18.3441 153.051C34.8541 153.361 54.2841 153.401 76.6241 153.161C80.7141 153.121 83.7141 152.631 85.6341 151.681C93.6341 147.771 96.6741 139.411 92.5741 131.211L94.3541 130.061C96.1841 132.281 97.0941 134.871 97.0741 137.831C97.0441 141.511 96.8241 144.041 96.3941 145.431C94.8341 150.511 91.5541 153.831 86.5541 155.401C83.2241 156.451 80.3141 156.961 77.8341 156.931C67.0241 156.811 51.6741 156.711 31.7841 156.621C26.6841 156.601 20.9041 156.061 15.9941 155.961C15.5241 155.951 15.0541 155.881 14.6141 155.731C9.48412 154.031 5.6241 150.901 3.0241 146.351C2.8341 146.021 2.63411 145.891 2.41411 145.941C2.20411 145.991 1.9841 146.141 1.7741 146.411C0.634095 142.881 0.0940904 138.941 0.14409 134.571C0.51409 103.881 0.464076 65.8715 0.00407573 20.5315C-0.0459243 15.1215 0.364117 11.5015 1.23412 9.66148C5.02412 1.68148 12.9341 -0.0585199 21.3341 0.00148006C46.4041 0.17148 63.3241 0.261477 72.0741 0.271477C76.7141 0.281477 82.4041 0.611479 86.0841 1.03148C88.3741 1.29148 90.6841 2.18148 92.9941 3.70148Z" fill="#7B2994"/>
<path d="M96.0531 8.63281C96.4431 9.08281 96.7431 9.62282 96.9331 10.2328C99.4031 18.1128 98.5332 29.4128 89.9832 33.4528C89.2732 33.7928 87.2931 34.3028 84.0231 34.9728C83.9631 34.9828 83.9031 34.9828 83.8531 34.9828L36.6931 34.8528C36.4431 34.8528 36.2231 35.0128 36.1431 35.2428C34.2131 40.5028 34.3831 47.3828 34.7031 54.6028C34.8531 57.8328 35.4931 61.7428 39.0031 62.6128C41.3731 63.2028 43.9931 63.4728 46.8731 63.4428L32.8831 63.9528C32.6431 63.9628 32.4531 63.7728 32.4531 63.5428V31.7428C32.4531 31.5428 32.6131 31.3828 32.8131 31.3828C52.7331 31.3728 67.2431 31.3228 76.3431 31.2328C85.2831 31.1328 93.1431 31.4228 95.1331 21.2628C95.9831 16.9128 95.7432 12.8928 94.4232 9.20281C94.3332 8.94281 94.5232 8.66281 94.7932 8.66281C94.9232 8.65281 95.0731 8.83282 95.2531 9.18282C95.3931 9.47282 95.5931 9.51282 95.8431 9.30282C96.0131 9.16282 96.0831 8.94281 96.0531 8.63281Z" fill="#7B2994"/>
<path d="M88.1534 125.595C75.5434 125.015 62.9534 124.815 50.3734 124.995C45.8034 125.065 39.9034 124.665 34.0034 125.275C33.8234 125.295 33.6535 125.385 33.5435 125.535C33.2735 125.905 32.9335 125.995 32.5435 125.805C32.3735 125.725 32.2734 125.555 32.2734 125.365V90.3852C32.2734 90.2052 32.4235 90.0552 32.6035 90.0652C35.2035 90.1352 47.4834 90.1152 69.4434 90.0052C72.2934 89.9852 75.3834 90.3252 78.4434 89.7452C87.0334 88.0952 87.9234 79.4252 86.6934 72.3052C86.2434 69.6852 84.8934 67.8952 82.6434 66.9352C82.3034 66.7952 81.9934 66.6152 81.7034 66.3952C79.5134 64.7052 77.9534 63.8352 77.0234 63.8052C72.7834 63.6352 68.5334 63.5152 64.2734 63.4252C70.9734 63.0452 75.4034 62.9752 77.5634 63.2252C84.2434 63.9752 88.2834 67.5852 89.6834 74.0752C89.8334 74.8052 89.8534 77.0952 89.7434 80.9452C89.5334 88.4352 84.6634 93.8052 77.0234 93.8352C59.4034 93.8952 46.2734 93.9852 37.6334 94.1052C35.7034 94.1352 34.7435 95.2352 34.7335 97.4052C34.6835 111.755 34.6634 120.005 34.6834 122.155C34.6934 123.445 35.7535 124.485 37.0435 124.475C38.7835 124.465 40.8734 124.435 43.3234 124.385C61.1334 124.015 74.2434 123.965 82.6434 124.255C83.4434 124.285 85.2834 124.725 88.1534 125.595Z" fill="#7B2994"/>
<path d="M92.1445 4.76803C93.6945 5.68803 94.9945 6.97803 96.0545 8.62803C96.0845 8.93803 96.0145 9.15804 95.8445 9.29804C95.5945 9.50804 95.3945 9.46804 95.2545 9.17804C95.0745 8.82804 94.9246 8.64803 94.7946 8.65803C94.5246 8.65803 94.3346 8.93803 94.4246 9.19803C95.7446 12.888 95.9845 16.908 95.1345 21.258C93.1445 31.418 85.2845 31.128 76.3445 31.228C67.2445 31.318 52.7345 31.368 32.8145 31.378C32.6145 31.378 32.4545 31.538 32.4545 31.738V63.538C32.4545 63.768 32.6445 63.958 32.8845 63.948L46.8745 63.438L64.2745 63.418C68.5345 63.508 72.7845 63.628 77.0245 63.798C77.9545 63.828 79.5145 64.698 81.7045 66.388C81.9945 66.608 82.3045 66.788 82.6445 66.928C84.8945 67.888 86.2445 69.678 86.6945 72.298C87.9245 79.418 87.0345 88.088 78.4445 89.738C75.3845 90.318 72.2945 89.978 69.4445 89.998C47.4845 90.108 35.2046 90.128 32.6046 90.058C32.4246 90.048 32.2745 90.198 32.2745 90.378V125.358C32.2745 125.548 32.3746 125.718 32.5446 125.798C32.9346 125.988 33.2746 125.898 33.5446 125.528C33.6546 125.378 33.8245 125.288 34.0045 125.268C39.9045 124.658 45.8045 125.058 50.3745 124.988C62.9545 124.808 75.5445 125.008 88.1545 125.588C90.7145 126.478 92.7846 127.968 94.3546 130.058L92.5745 131.208C89.1545 129.478 85.3845 128.668 81.2545 128.768C70.0845 129.038 59.0245 129.108 48.0745 128.998C42.6245 128.948 37.3245 128.108 32.1545 126.478C31.8645 126.388 31.5945 126.268 31.3345 126.118C25.9845 122.868 20.6345 121.118 15.4045 125.528C10.6045 129.558 7.98453 136.778 6.01453 142.848C5.22453 135.668 5.11452 128.508 5.69452 121.378C6.19452 115.148 6.45454 110.678 6.46454 107.968C6.65454 69.098 6.72452 38.238 6.69452 15.408C6.69452 15.238 6.71453 15.068 6.76453 14.898C7.62453 11.578 9.53451 9.16803 12.4945 7.65803C12.7845 7.51803 13.0245 7.29804 13.1945 7.02804C13.6645 6.29804 14.2446 5.74804 14.9246 5.39804C15.5046 5.09804 15.3045 4.21803 14.6445 4.19803L12.0045 4.13804L17.1646 2.43804C17.4246 2.34804 17.6945 2.30803 17.9545 2.30803C52.5745 2.05803 75.1345 2.08804 85.6445 2.39804C87.0445 2.43804 89.2145 3.22803 92.1445 4.76803Z" fill="#A55CB9"/>
<path d="M92.9934 3.70312C97.7034 7.12313 99.9235 12.1631 99.6635 18.8231C99.2935 28.4531 94.6334 34.2131 85.6834 36.1231L37.2935 36.4731C36.8535 36.4831 36.5034 36.8331 36.5034 37.2731V60.7931C36.5034 61.1031 36.7534 61.3531 37.0634 61.3531L44.1234 61.3631C53.7734 61.3631 63.4334 61.4231 73.0834 61.5531C75.2134 61.5831 78.9534 61.7231 81.3434 62.6331C91.8734 66.6531 94.1134 79.3431 89.1934 88.5531C86.1834 93.0631 81.8134 95.3331 76.0834 95.3531C74.7034 95.3531 61.6535 95.3331 36.9235 95.2831C36.6335 95.2831 36.3934 95.5231 36.3934 95.8131V122.423C36.3934 122.793 36.6934 123.093 37.0634 123.093L43.3234 123.103C55.9634 123.063 68.6334 122.963 81.3334 122.793C87.4234 122.713 92.0834 124.813 95.3134 129.093C97.9634 132.623 99.0234 136.783 98.4934 141.573C97.9634 146.323 96.1735 150.243 93.1135 153.323C88.7535 156.483 84.2434 158.063 79.5834 158.073C61.5534 158.083 43.5534 158.083 25.5734 158.073C15.2434 158.363 6.81344 156.053 1.77344 146.413C1.98344 146.143 2.20345 145.993 2.41345 145.943C2.63345 145.893 2.83344 146.023 3.02344 146.353C5.62344 150.903 9.48346 154.033 14.6135 155.733C15.0535 155.883 15.5234 155.953 15.9934 155.963C20.9034 156.063 26.6834 156.603 31.7834 156.623C51.6734 156.713 67.0234 156.813 77.8334 156.933C80.3134 156.963 83.2234 156.453 86.5534 155.403C91.5534 153.833 94.8334 150.513 96.3934 145.433C96.8234 144.043 97.0434 141.513 97.0734 137.833C97.0934 134.873 96.1835 132.283 94.3535 130.063C92.7835 127.973 90.7134 126.483 88.1534 125.593C85.2834 124.723 83.4434 124.283 82.6434 124.253C74.2434 123.963 61.1334 124.013 43.3234 124.383C40.8734 124.433 38.7835 124.463 37.0435 124.473C35.7535 124.483 34.6934 123.443 34.6834 122.153C34.6634 120.003 34.6835 111.753 34.7335 97.4031C34.7435 95.2331 35.7034 94.1331 37.6334 94.1031C46.2734 93.9831 59.4034 93.8931 77.0234 93.8331C84.6634 93.8031 89.5334 88.4331 89.7434 80.9431C89.8534 77.0931 89.8334 74.8031 89.6834 74.0731C88.2834 67.5831 84.2434 63.9731 77.5634 63.2231C75.4034 62.9731 70.9734 63.0431 64.2734 63.4231L46.8734 63.4431C43.9934 63.4731 41.3734 63.2031 39.0034 62.6131C35.4934 61.7431 34.8534 57.8331 34.7034 54.6031C34.3834 47.3831 34.2134 40.5031 36.1434 35.2431C36.2234 35.0131 36.4434 34.8531 36.6934 34.8531L83.8535 34.9831C83.9035 34.9831 83.9634 34.9831 84.0234 34.9731C87.2934 34.3031 89.2735 33.7931 89.9835 33.4531C98.5335 29.4131 99.4034 18.1131 96.9334 10.2331C96.7434 9.62313 96.4434 9.08313 96.0534 8.63313C94.9934 6.98313 93.6934 5.69312 92.1434 4.77312C92.2134 4.30312 92.5034 3.94312 92.9934 3.70312Z" fill="#4B0970"/>
</svg>
