<svg width="130" height="176" viewBox="0 0 130 176" fill="none" xmlns="http://www.w3.org/2000/svg">
<path opacity="0.0476" d="M34.9963 174.974C25.6853 174.974 18.1113 167.036 18.1113 157.279V35.8122C18.1113 26.0552 25.6853 18.1172 34.9963 18.1172H111.925C121.236 18.1172 128.81 26.0552 128.81 35.8122C128.81 45.5692 121.236 53.5072 111.925 53.5072H51.8813V78.8512H96.5394C105.85 78.8512 113.424 86.7892 113.424 96.5462C113.424 106.303 105.85 114.241 96.5394 114.241H51.8813V157.28C51.8813 167.036 44.3073 174.974 34.9963 174.974Z" fill="#F9F9F9"/>
<path opacity="0.0952" d="M34.1027 174.048C24.7947 174.048 17.2227 166.112 17.2227 156.358V34.9244C17.2227 25.1704 24.7947 17.2344 34.1027 17.2344H111.011C120.319 17.2344 127.891 25.1704 127.891 34.9244C127.891 44.6784 120.319 52.6144 111.011 52.6144H50.9836V77.9514H95.6296C104.938 77.9514 112.51 85.8874 112.51 95.6414C112.51 105.395 104.938 113.331 95.6296 113.331H50.9836V156.358C50.9826 166.112 43.4107 174.048 34.1027 174.048Z" fill="#F3F3F3"/>
<path opacity="0.1429" d="M33.208 173.123C23.902 173.123 16.332 165.189 16.332 155.438V34.0366C16.332 24.2856 23.902 16.3516 33.208 16.3516H110.095C119.401 16.3516 126.971 24.2856 126.971 34.0366C126.971 43.7876 119.401 51.7216 110.095 51.7216H50.084V77.0516H94.718C104.024 77.0516 111.594 84.9856 111.594 94.7366C111.594 104.489 104.024 112.422 94.718 112.422H50.084V155.437C50.084 165.189 42.514 173.123 33.208 173.123Z" fill="#EDEDEE"/>
<path opacity="0.1905" d="M32.3124 172.197C23.0094 172.197 15.4414 164.265 15.4414 154.517V33.1488C15.4414 23.3998 23.0094 15.4688 32.3124 15.4688H109.178C118.481 15.4688 126.049 23.3998 126.049 33.1488C126.049 42.8977 118.481 50.8288 109.178 50.8288H49.1844V76.1518H93.8065C103.109 76.1518 110.677 84.0837 110.677 93.8317C110.677 103.581 103.109 111.512 93.8065 111.512H49.1844V154.515C49.1834 164.265 41.6164 172.197 32.3124 172.197Z" fill="#E7E7E8"/>
<path opacity="0.2381" d="M31.4197 171.27C22.1187 171.27 14.5527 163.341 14.5527 153.594V32.2609C14.5527 22.5149 22.1187 14.5859 31.4197 14.5859H108.265C117.566 14.5859 125.132 22.5149 125.132 32.2609C125.132 42.0069 117.566 49.9369 108.265 49.9369H48.2867V75.2529H92.8957C102.197 75.2529 109.763 83.1819 109.763 92.9289C109.763 102.675 102.197 110.605 92.8957 110.605H48.2867V153.597C48.2867 163.341 40.7207 171.27 31.4197 171.27Z" fill="#E1E1E2"/>
<path opacity="0.2857" d="M30.5261 170.345C21.2281 170.345 13.6641 162.418 13.6641 152.674V31.3741C13.6641 21.6301 21.2281 13.7031 30.5261 13.7031H107.35C116.648 13.7031 124.212 21.6301 124.212 31.3741C124.212 41.1171 116.648 49.0451 107.35 49.0451H47.3881V74.3541H91.9851C101.283 74.3541 108.847 82.2811 108.847 92.0251C108.847 101.768 101.283 109.696 91.9851 109.696H47.3881V152.676C47.3881 162.418 39.8241 170.345 30.5261 170.345Z" fill="#DBDBDC"/>
<path opacity="0.3333" d="M29.6305 169.42C20.3345 169.42 12.7734 161.495 12.7734 151.754V30.4863C12.7734 20.7453 20.3355 12.8203 29.6305 12.8203H106.433C115.729 12.8203 123.29 20.7453 123.29 30.4863C123.29 40.2273 115.728 48.1523 106.433 48.1523H46.4885V73.4543H91.0735C100.369 73.4543 107.93 81.3793 107.93 91.1203C107.93 100.861 100.368 108.786 91.0735 108.786H46.4885V151.754C46.4885 161.495 38.9265 169.42 29.6305 169.42Z" fill="#D5D5D6"/>
<path opacity="0.381" d="M28.7358 168.494C19.4428 168.494 11.8828 160.571 11.8828 150.833V29.5985C11.8828 19.8605 19.4428 11.9375 28.7358 11.9375H105.518C114.811 11.9375 122.371 19.8605 122.371 29.5985C122.371 39.3365 114.811 47.2595 105.518 47.2595H45.5888V72.5545H90.1618C99.4548 72.5545 107.015 80.4775 107.015 90.2155C107.015 99.9535 99.4548 107.877 90.1618 107.877H45.5888V150.832C45.5888 160.571 38.0288 168.494 28.7358 168.494Z" fill="#CFCFD1"/>
<path opacity="0.4286" d="M27.8422 167.569C18.5512 167.569 10.9941 159.648 10.9941 149.913V28.7107C10.9941 18.9747 18.5522 11.0547 27.8422 11.0547H104.603C113.894 11.0547 121.451 18.9757 121.451 28.7107C121.451 38.4467 113.894 46.3667 104.603 46.3667H44.6912V71.6547H89.2521C98.5431 71.6547 106.1 79.5757 106.1 89.3107C106.1 99.0467 98.5421 106.967 89.2521 106.967H44.6912V149.912C44.6902 159.648 37.1332 167.569 27.8422 167.569Z" fill="#C9C9CB"/>
<path opacity="0.4762" d="M26.9475 166.643C17.6595 166.643 10.1035 158.724 10.1035 148.992V27.8229C10.1035 18.0899 17.6585 10.1719 26.9475 10.1719H103.688C112.976 10.1719 120.531 18.0909 120.531 27.8229C120.531 37.5559 112.976 45.4739 103.688 45.4739H43.7915V70.7549H88.3405C97.6285 70.7549 105.185 78.6739 105.185 88.4059C105.185 98.1389 97.6285 106.057 88.3405 106.057H43.7915V148.99C43.7905 158.724 36.2355 166.643 26.9475 166.643Z" fill="#C3C3C5"/>
<path opacity="0.5238" d="M26.0538 165.717C16.7688 165.717 9.21484 157.801 9.21484 148.071V26.9361C9.21484 17.2061 16.7678 9.28906 26.0538 9.28906H102.773C112.059 9.28906 119.612 17.2051 119.612 26.9361C119.612 36.6661 112.059 44.5831 102.773 44.5831H42.8928V69.8571H87.4298C96.7158 69.8571 104.269 77.7731 104.269 87.5041C104.269 97.2341 96.7158 105.151 87.4298 105.151H42.8939V148.072C42.8929 157.801 35.3398 165.717 26.0538 165.717Z" fill="#BCBEBF"/>
<path opacity="0.5714" d="M25.1602 164.784C15.8772 164.784 8.32617 156.87 8.32617 147.142V26.0404C8.32617 16.3124 15.8772 8.39844 25.1602 8.39844H101.858C111.141 8.39844 118.692 16.3124 118.692 26.0404C118.692 35.7684 111.141 43.6824 101.858 43.6824H41.9952V68.9504H86.5192C95.8022 68.9504 103.353 76.8644 103.353 86.5924C103.353 96.3204 95.8022 104.234 86.5192 104.234H41.9952V147.143C41.9952 156.87 34.4432 164.784 25.1602 164.784Z" fill="#B6B8B9"/>
<path opacity="0.619" d="M24.2655 163.859C14.9855 163.859 7.43555 155.947 7.43555 146.222V25.1526C7.43555 15.4276 14.9845 7.51562 24.2655 7.51562H100.943C110.223 7.51562 117.773 15.4276 117.773 25.1526C117.773 34.8776 110.224 42.7896 100.943 42.7896H41.0955V68.0506H85.6075C94.8885 68.0506 102.438 75.9626 102.438 85.6876C102.438 95.4126 94.8885 103.325 85.6075 103.325H41.0955V146.223C41.0955 155.947 33.5455 163.859 24.2655 163.859Z" fill="#B0B2B3"/>
<path opacity="0.6667" d="M23.3719 162.933C14.0939 162.933 6.54688 155.023 6.54688 145.301V24.2648C6.54688 14.5428 14.0939 6.63281 23.3719 6.63281H100.028C109.306 6.63281 116.853 14.5428 116.853 24.2648C116.853 33.9868 109.306 41.8968 100.028 41.8968H40.1969V67.1508H84.6969C93.9749 67.1508 101.522 75.0608 101.522 84.7828C101.522 94.5048 93.9749 102.415 84.6969 102.415H40.1969V145.301C40.1969 155.023 32.6499 162.933 23.3719 162.933Z" fill="#AAACAE"/>
<path opacity="0.7143" d="M22.4762 162.007C13.2012 162.007 5.65625 154.099 5.65625 144.38V23.377C5.65625 13.658 13.2012 5.75 22.4762 5.75H99.1112C108.386 5.75 115.931 13.658 115.931 23.377C115.931 33.097 108.386 41.004 99.1112 41.004H39.2972V66.251H83.7842C93.0592 66.251 100.604 74.159 100.604 83.878C100.604 93.597 93.0592 101.505 83.7842 101.505H39.2972V144.379C39.2972 154.099 31.7522 162.007 22.4762 162.007Z" fill="#A4A6A8"/>
<path opacity="0.7619" d="M21.5816 161.081C12.3086 161.081 4.76562 153.175 4.76562 143.459V22.4892C4.76562 12.7722 12.3086 4.86719 21.5816 4.86719H98.1956C107.469 4.86719 115.012 12.7722 115.012 22.4892C115.012 32.2062 107.469 40.1112 98.1956 40.1112H38.3976V65.3512H82.8726C92.1456 65.3512 99.6886 73.2572 99.6886 82.9732C99.6886 92.6902 92.1456 100.595 82.8726 100.595H38.3976V143.457C38.3976 153.175 30.8546 161.081 21.5816 161.081Z" fill="#9EA0A2"/>
<path opacity="0.8095" d="M20.688 160.155C11.418 160.155 3.87695 152.252 3.87695 142.537V21.6024C3.87695 11.8884 11.418 3.98438 20.688 3.98438H97.281C106.551 3.98438 114.092 11.8874 114.092 21.6024C114.092 31.3164 106.551 39.2194 97.281 39.2194H37.499V64.4524H81.962C91.232 64.4524 98.7729 72.3554 98.7729 82.0704C98.7729 91.7844 91.232 99.6884 81.962 99.6884H37.499V142.538C37.499 152.252 29.958 160.155 20.688 160.155Z" fill="#989A9C"/>
<path opacity="0.8571" d="M19.7953 159.231C10.5273 159.231 2.98828 151.33 2.98828 141.618V20.7146C2.98828 11.0026 10.5273 3.10156 19.7953 3.10156H96.3672C105.635 3.10156 113.174 11.0026 113.174 20.7146C113.174 30.4266 105.635 38.3276 96.3672 38.3276H36.6022V63.5536H81.0533C90.3213 63.5536 97.8603 71.4546 97.8603 81.1666C97.8603 90.8786 90.3213 98.7796 81.0533 98.7796H36.6022V141.619C36.6012 151.33 29.0623 159.231 19.7953 159.231Z" fill="#929496"/>
<path opacity="0.9048" d="M18.8997 158.305C9.63466 158.305 2.09766 150.406 2.09766 140.697V19.8268C2.09766 10.1178 9.63466 2.21875 18.8997 2.21875H95.4507C104.716 2.21875 112.253 10.1178 112.253 19.8268C112.253 29.5358 104.716 37.4348 95.4507 37.4348H35.7017V62.6537H80.1407C89.4057 62.6537 96.9427 70.5527 96.9427 80.2617C96.9427 89.9707 89.4057 97.8698 80.1407 97.8698H35.7017V140.697C35.7017 150.406 28.1647 158.305 18.8997 158.305Z" fill="#8C8E91"/>
<path opacity="0.9524" d="M18.006 157.379C8.74298 157.379 1.20898 149.482 1.20898 139.776V18.9389C1.20898 9.23293 8.74398 1.33594 18.006 1.33594H94.5359C103.799 1.33594 111.333 9.23293 111.333 18.9389C111.333 28.6449 103.798 36.5419 94.5359 36.5419H34.804V61.7539H79.23C88.493 61.7539 96.027 69.6509 96.027 79.3569C96.027 89.0629 88.492 96.9599 79.23 96.9599H34.803V139.775C34.804 149.482 27.269 157.379 18.006 157.379Z" fill="#86888B"/>
<path d="M17.1113 156.453C7.85133 156.453 0.318359 148.558 0.318359 138.855V18.0511C0.318359 8.34712 7.85133 0.453125 17.1113 0.453125H93.6204C102.88 0.453125 110.413 8.34812 110.413 18.0511C110.413 27.7541 102.88 35.6491 93.6204 35.6491H33.9044V60.8541H78.3184C87.5784 60.8541 95.1113 68.7491 95.1113 78.4521C95.1113 88.1561 87.5784 96.0501 78.3184 96.0501H33.9044V138.853C33.9044 148.558 26.3713 156.453 17.1113 156.453Z" fill="#808285"/>
<path d="M16.89 156.9C7.57695 156.9 0 148.96 0 139.2V17.7C0 7.941 7.57595 0 16.89 0H93.84C103.154 0 110.73 7.94 110.73 17.7C110.73 27.46 103.154 35.4 93.84 35.4H33.78V60.751H78.45C87.763 60.751 95.34 68.691 95.34 78.451C95.34 88.211 87.764 96.151 78.45 96.151H33.78V139.201C33.78 148.96 26.204 156.9 16.89 156.9Z" fill="url(#paint0_linear_2315_3114)"/>
<path d="M93.84 1.5H16.89C8.39095 1.5 1.5 8.754 1.5 17.7V139.2C1.5 148.146 8.39095 155.4 16.89 155.4C25.389 155.4 32.28 148.146 32.28 139.2V94.65H78.45C86.949 94.65 93.84 87.396 93.84 78.45C93.84 69.504 86.949 62.25 78.45 62.25H32.28V33.9H93.84C102.339 33.9 109.23 26.646 109.23 17.7C109.23 8.754 102.339 1.5 93.84 1.5Z" fill="url(#paint1_linear_2315_3114)"/>
<path d="M16.89 150.9C10.886 150.9 6 145.652 6 139.2V17.7C6 11.249 10.885 6 16.89 6H93.84C99.844 6 104.73 11.249 104.73 17.7C104.73 24.151 99.845 29.4 93.84 29.4H27.78V66.751H78.45C84.454 66.751 89.34 72 89.34 78.451C89.34 84.902 84.455 90.151 78.45 90.151H27.78V139.201C27.78 145.652 22.895 150.9 16.89 150.9Z" fill="url(#paint2_linear_2315_3114)"/>
<path opacity="0.3" d="M93.84 0H16.89C7.57695 0 0 7.94 0 17.7V60.985C15.659 72.53 35.87 79.499 57.949 79.499C70.936 79.499 83.269 77.073 94.421 72.741C92.148 65.778 85.855 60.75 78.45 60.75H33.78V35.399H93.84C103.154 35.399 110.73 27.459 110.73 17.699C110.73 7.94 103.154 0 93.84 0Z" fill="white"/>
<defs>
<linearGradient id="paint0_linear_2315_3114" x1="0.0009" y1="78.4507" x2="110.73" y2="78.4507" gradientUnits="userSpaceOnUse">
<stop stop-color="#B07EB7"/>
<stop offset="0.5" stop-color="#8C3D96"/>
<stop offset="1" stop-color="#762A90"/>
</linearGradient>
<linearGradient id="paint1_linear_2315_3114" x1="1.5002" y1="78.4497" x2="109.23" y2="78.4497" gradientUnits="userSpaceOnUse">
<stop stop-color="#762A90"/>
<stop offset="0.5" stop-color="#8C3D96"/>
<stop offset="1" stop-color="#B07EB7"/>
</linearGradient>
<linearGradient id="paint2_linear_2315_3114" x1="6.0009" y1="78.4507" x2="104.73" y2="78.4507" gradientUnits="userSpaceOnUse">
<stop stop-color="#B07EB7"/>
<stop offset="0.5" stop-color="#8C3D96"/>
<stop offset="1" stop-color="#762A90"/>
</linearGradient>
</defs>
</svg>
