<svg width="144" height="161" viewBox="0 0 144 161" fill="none" xmlns="http://www.w3.org/2000/svg">
<path d="M116.392 8.37697C118.032 10.527 119.842 12.527 121.832 14.387C124.672 17.047 126.412 18.957 127.062 20.107C129.252 24.057 129.772 28.377 128.642 33.067C127.202 39.017 121.642 44.347 115.352 44.167C109.312 43.987 106.302 41.677 100.502 37.487C95.3218 33.737 89.4518 31.607 82.8918 31.107C51.1718 28.717 30.4218 52.197 32.5918 82.897C33.2818 92.657 36.6318 101.427 42.6318 109.217C42.7418 109.367 42.9718 109.267 42.9518 109.087L42.5118 105.957C42.4918 105.807 42.6818 105.727 42.7718 105.847C43.3218 106.557 44.0218 107.487 44.8618 108.617C49.8118 115.297 56.1418 119.847 63.8318 122.257C64.8818 122.587 65.8518 122.847 66.7518 123.027C68.2418 123.337 69.5818 123.637 70.7518 123.947C71.3118 124.087 71.6718 124.047 71.8218 123.817C71.9918 123.577 72.0018 123.187 71.8718 122.657C79.8018 123.787 86.9518 123.137 93.3318 120.687C99.5218 118.327 107.062 112.317 106.572 105.417C106.402 103.007 106.362 101.177 106.472 99.937L108.542 98.517C108.742 98.387 108.902 98.207 109.032 98.007L110.632 95.437C110.652 99.947 110.382 103.947 109.822 107.437C108.942 112.887 106.112 117.147 101.332 120.217C96.5418 123.297 91.3617 125.077 85.7917 125.567C85.6217 125.577 85.4918 125.717 85.5018 125.887V125.907C85.5018 126.097 85.6418 126.247 85.8318 126.257C89.9918 126.627 94.1918 126.477 98.4418 125.787C98.8718 125.717 99.2918 125.587 99.6818 125.407C105.702 122.637 111.372 116.587 112.602 110.127C113.492 105.457 113.402 100.257 112.332 94.537C112.292 94.297 112.072 94.147 111.832 94.177C111.372 94.227 110.972 94.647 110.632 95.437L110.472 94.787C110.392 94.457 110.062 94.267 109.732 94.347C109.122 94.497 108.732 94.567 108.542 94.577C100.232 94.877 92.2317 94.787 84.5417 94.297C82.0417 94.147 80.3218 93.357 79.3718 91.927C77.0418 87.137 76.6418 82.667 78.1718 78.507C79.4218 75.117 81.4818 72.937 84.3618 71.957C87.2318 70.967 91.3318 70.437 96.6518 70.367C107.152 70.207 114.982 70.107 120.152 70.057C125.992 69.997 130.352 69.537 133.222 68.687C133.362 68.647 133.362 68.447 133.222 68.407C130.582 67.657 129.112 67.277 128.812 67.267C119.812 67.227 110.792 67.147 101.742 67.037C110.652 66.787 119.562 66.687 128.452 66.737C128.502 66.737 129.312 66.697 130.882 66.627C133.722 66.477 136.152 67.517 138.172 69.747C138.372 69.957 138.362 70.287 138.162 70.487C137.592 71.077 137.452 71.677 137.752 72.287C138.782 74.407 139.322 76.697 139.382 79.167C139.592 87.257 139.532 94.477 139.222 100.817C138.142 122.547 128.132 138.277 109.192 148.007C101.292 152.067 92.7518 154.357 83.5818 154.887C69.8218 155.687 57.5318 153.887 45.1918 148.147C39.8218 145.647 34.9817 142.877 30.6617 139.827C26.6917 137.017 23.6618 133.777 21.5818 130.087C9.83179 114.027 4.67175 96.257 6.10175 76.767C6.29175 74.297 6.57179 71.387 6.96179 68.037C8.83179 52.067 15.3518 38.017 26.5218 25.897C34.2318 17.527 46.6218 10.957 56.9518 8.61697C57.3718 8.52697 60.4217 7.86697 66.1017 6.63697C78.7417 3.91697 91.6617 4.52697 104.282 7.78697C104.352 7.80697 104.432 7.78697 104.482 7.73697C104.662 7.56697 104.672 7.37697 104.522 7.14697C104.462 7.05697 104.362 6.99697 104.262 6.96697C98.6618 5.45697 94.0918 4.39697 90.5518 3.78697C83.3818 2.53697 75.9818 3.08697 67.6118 3.08697C67.2718 3.08697 66.9418 3.18697 66.6518 3.38697C66.1818 3.70697 65.7717 3.87697 65.4117 3.89697C59.0217 4.22697 54.3117 5.00697 51.2917 6.23697C46.9817 7.98697 44.2518 9.14697 43.0918 9.70697C34.4118 13.887 26.9418 19.597 20.6718 26.827C6.28175 43.437 0.731785 67.107 3.64178 88.897C4.67178 96.627 6.74179 104.267 9.83179 111.817C6.35179 108.547 4.63174 101.847 3.66174 97.587C2.42174 92.177 1.47178 83.577 1.07178 75.527C0.881777 71.747 0.551797 71.367 0.0917969 74.397C0.401797 63.497 2.51175 53.377 6.42175 44.047C16.4718 20.077 38.6618 2.99697 65.0518 0.666968C71.3018 0.106968 77.4818 -0.103034 83.5718 0.0469655C95.2818 0.326966 106.222 3.10697 116.392 8.37697Z" fill="#DD3394"/>
<path d="M116.393 8.375C124.593 12.475 131.143 17.955 133.593 27.115C134.163 34.145 132.273 39.815 127.913 44.135C121.953 50.035 113.553 51.115 106.563 46.675C101.503 43.465 97.5129 39.985 92.5029 38.315C83.9929 35.465 75.6229 35.135 67.4029 37.325C44.3429 43.435 33.9629 65.825 37.6329 88.165C40.6329 106.425 53.4628 120.045 71.8728 122.655C72.0028 123.185 71.9929 123.575 71.8229 123.815C71.6729 124.045 71.3129 124.085 70.7529 123.945C69.5829 123.635 68.2429 123.335 66.7529 123.025C65.8529 122.845 64.8829 122.585 63.8329 122.255C56.1429 119.845 49.8128 115.295 44.8628 108.615C44.0228 107.485 43.3229 106.555 42.7729 105.845C42.6829 105.725 42.4929 105.805 42.5129 105.955L42.9529 109.085C42.9729 109.265 42.7429 109.365 42.6329 109.215C36.6329 101.425 33.2829 92.655 32.5929 82.895C30.4229 52.195 51.1729 28.715 82.8929 31.105C89.4529 31.605 95.3229 33.735 100.503 37.485C106.303 41.675 109.313 43.985 115.353 44.165C121.643 44.345 127.203 39.015 128.643 33.065C129.773 28.375 129.253 24.055 127.063 20.105C126.413 18.955 124.673 17.045 121.833 14.385C119.843 12.525 118.033 10.525 116.393 8.375Z" fill="#9F1761"/>
<path d="M143.642 100.957C142.542 124.897 129.882 145.697 107.122 154.677C100.352 157.347 93.2522 159.337 85.8422 160.647C75.3522 160.807 66.0922 159.897 58.0722 157.917C47.0622 155.207 37.3122 150.287 28.8422 143.177C8.91217 126.437 -1.07783 100.647 0.0921725 74.3974C0.552172 71.3674 0.882153 71.7474 1.07215 75.5274C1.47215 83.5774 2.42212 92.1774 3.66212 97.5874C4.63212 101.847 6.35216 108.547 9.83216 111.817C12.5022 118.867 16.4222 124.957 21.5822 130.087C23.6622 133.777 26.6921 137.017 30.6621 139.827C34.9821 142.877 39.8221 145.647 45.1921 148.147C57.5321 153.887 69.8222 155.687 83.5822 154.887C92.7522 154.357 101.292 152.067 109.192 148.007C128.132 138.277 138.142 122.547 139.222 100.817C139.532 94.4774 139.592 87.2574 139.382 79.1674C139.322 76.6974 138.782 74.4074 137.752 72.2874C137.452 71.6774 137.592 71.0774 138.162 70.4874C138.362 70.2874 138.372 69.9574 138.172 69.7474C136.152 67.5174 133.722 66.4774 130.882 66.6274C129.312 66.6974 128.502 66.7374 128.452 66.7374C119.562 66.6874 110.652 66.7874 101.742 67.0374L87.0922 67.0774C86.7322 67.0774 86.3822 67.1974 86.0922 67.4074C84.8622 68.3174 83.5521 67.8974 82.1721 68.7374C78.3421 71.0874 76.0322 73.6574 75.2622 76.4274C74.3522 79.7274 74.0022 82.2174 74.2122 83.8974C74.5822 86.9074 76.3021 89.5874 79.3721 91.9274C80.3221 93.3574 82.0421 94.1474 84.5421 94.2974C92.2321 94.7874 100.232 94.8774 108.542 94.5774C108.732 94.5674 109.122 94.4974 109.732 94.3474C110.062 94.2674 110.392 94.4574 110.472 94.7874L110.632 95.4374L109.032 98.0074C108.902 98.2074 108.742 98.3874 108.542 98.5174L106.472 99.9374C100.362 99.8174 94.3021 99.7574 88.3121 99.7674C84.4421 99.7674 79.9222 97.9474 77.0222 95.0974C70.6522 88.8474 69.5221 81.4574 73.6121 72.9374C78.1821 63.4174 91.2721 64.9474 100.732 64.9174C116.052 64.8774 126.162 64.8874 131.072 64.9574C138.262 65.0574 143.012 72.0574 143.622 78.6074C144.092 83.7574 144.102 91.2074 143.642 100.957Z" fill="#9F1761"/>
<path d="M21.5814 130.089C16.4214 124.959 12.5014 118.869 9.83138 111.819C6.74138 104.269 4.67138 96.6293 3.64138 88.8993C0.731377 67.1093 6.28134 43.4393 20.6713 26.8293C26.9413 19.5993 34.4114 13.8893 43.0914 9.70926C44.2514 9.14926 46.9813 7.98926 51.2913 6.23926C54.3113 5.00926 59.0213 4.22926 65.4113 3.89926C65.7713 3.87926 66.1814 3.70926 66.6514 3.38926C66.9414 3.18926 67.2714 3.08925 67.6114 3.08925C75.9814 3.08925 83.3814 2.53926 90.5514 3.78926C94.0914 4.39926 98.6614 5.45926 104.261 6.96926C104.361 6.99926 104.461 7.05926 104.521 7.14926C104.671 7.37926 104.661 7.56926 104.481 7.73926C104.431 7.78926 104.351 7.80926 104.281 7.78926C91.6613 4.52926 78.7413 3.91926 66.1013 6.63926C60.4213 7.86926 57.3714 8.52925 56.9514 8.61925C46.6214 10.9593 34.2314 17.5293 26.5214 25.8993C15.3514 38.0193 8.83138 52.0693 6.96138 68.0393C6.57138 71.3893 6.29134 74.2993 6.10134 76.7693C4.67134 96.2593 9.83138 114.029 21.5814 130.089Z" fill="#F28ABB"/>
<path d="M101.741 67.0391C110.791 67.1491 119.811 67.2291 128.811 67.2691C129.111 67.2791 130.581 67.6591 133.221 68.4091C133.361 68.4491 133.361 68.6491 133.221 68.6891C130.351 69.5391 125.991 69.9991 120.151 70.0591C114.981 70.1091 107.151 70.2091 96.6514 70.3691C91.3314 70.4391 87.2314 70.9691 84.3614 71.9591C81.4814 72.9391 79.4214 75.1191 78.1714 78.5091C76.6414 82.6691 77.0414 87.1391 79.3714 91.9291C76.3014 89.5891 74.5814 86.9091 74.2114 83.8991C74.0014 82.2191 74.3514 79.7291 75.2614 76.4291C76.0314 73.6591 78.3414 71.0891 82.1714 68.7391C83.5514 67.8991 84.8614 68.3191 86.0914 67.4091C86.3814 67.1991 86.7314 67.0791 87.0914 67.0791L101.741 67.0391Z" fill="#F28ABB"/>
<path d="M110.632 95.4357C110.972 94.6457 111.373 94.2257 111.833 94.1757C112.073 94.1457 112.293 94.2957 112.333 94.5357C113.403 100.256 113.492 105.456 112.602 110.126C111.372 116.586 105.702 122.636 99.6825 125.406C99.2925 125.586 98.8725 125.716 98.4425 125.786C94.1925 126.476 89.9925 126.626 85.8325 126.256C85.6425 126.246 85.5025 126.096 85.5025 125.906V125.886C85.4925 125.716 85.6225 125.576 85.7925 125.566C91.3625 125.076 96.5425 123.296 101.333 120.216C106.113 117.146 108.943 112.886 109.823 107.436C110.383 103.946 110.652 99.9457 110.632 95.4357Z" fill="#F28ABB"/>
</svg>
