<svg width="36" height="158" viewBox="0 0 36 158" fill="none" xmlns="http://www.w3.org/2000/svg">
<path d="M7.6862 147.033C6.5762 144.473 6.2262 142.623 6.2462 139.673C6.4062 109.243 6.44622 77.1334 6.35622 43.3434C6.33622 34.5334 6.41622 25.9234 6.60622 17.5234C6.71622 12.7934 8.53621 9.59338 12.0662 7.92338C12.4162 7.75338 12.7162 7.49339 12.9362 7.18339C13.7662 5.99339 14.7262 5.28339 15.8162 5.03339C16.3762 4.90339 16.3362 4.0934 15.7662 4.0134C11.3362 3.4234 7.91619 5.06338 5.48619 8.92338C3.90619 11.4234 3.11621 13.3934 3.11621 14.8234C3.06621 50.9434 2.8762 86.1934 2.5562 120.563C2.5462 122.103 2.7262 123.903 3.1062 125.953C3.2762 126.873 3.3362 127.803 3.3062 128.733C3.0962 133.663 3.5562 138.823 4.6862 144.223C4.9562 145.473 5.6162 146.633 6.6762 147.713C7.1562 148.203 7.9562 147.663 7.6862 147.033ZM22.9962 0.693395L22.3462 1.02338C21.9362 1.22338 22.0062 1.82339 22.4462 1.93339C25.7962 2.74339 28.5162 4.37339 30.5862 6.84339C30.7162 6.99339 30.7662 7.19338 30.7262 7.39338C30.6962 7.52338 30.5862 7.63339 30.4162 7.72339C30.1262 7.86339 29.9562 8.1834 30.0062 8.5134C30.4362 11.3534 30.6562 13.2034 30.6662 14.0634C30.9262 27.2534 31.0062 40.1434 30.8962 52.7234C30.6162 85.6734 30.9562 112.353 30.7162 140.723C30.6662 147.683 25.8362 151.853 19.1362 152.733C16.1462 153.123 12.8362 152.573 9.1862 151.073C8.6162 150.843 8.29619 150.873 8.23619 151.163C8.08619 151.923 7.0362 152.083 6.4362 151.433C3.3762 148.153 1.7562 144.363 1.5862 140.053C1.4762 137.153 1.4562 133.153 1.5262 128.063C1.5662 125.263 1.0862 123.173 0.0861987 121.803C-0.0438013 87.8534 -0.0237928 53.8534 0.126207 19.8134C0.156207 12.7134 0.916214 6.9034 7.44621 2.8534C12.0362 0.0133991 17.2162 -0.706605 22.9962 0.693395Z" fill="#9EC748"/>
<path d="M22.9969 0.695312C29.1769 2.32531 33.1769 6.21531 34.9969 12.3853C35.3869 15.2753 35.5769 19.1553 35.5469 24.0053C35.4369 44.0353 35.4169 80.1853 35.4969 132.465C35.5069 139.975 34.9969 144.975 33.9669 147.455C32.0469 152.085 28.3669 155.335 22.9269 157.185C10.5669 160.325 0.656869 151.425 0.26687 139.305C0.0768695 133.515 0.0168616 127.685 0.0868616 121.805C1.08686 123.175 1.56686 125.265 1.52686 128.065C1.45686 133.155 1.47686 137.155 1.58686 140.055C1.75686 144.365 3.37687 148.155 6.43687 151.435C7.03687 152.085 8.08686 151.925 8.23686 151.165C8.29686 150.875 8.61687 150.845 9.18687 151.075C12.8369 152.575 16.1469 153.125 19.1369 152.735C25.8369 151.855 30.6669 147.685 30.7169 140.725C30.9569 112.355 30.6169 85.6753 30.8969 52.7253C31.0069 40.1453 30.9269 27.2553 30.6669 14.0653C30.6569 13.2053 30.4369 11.3553 30.0069 8.51532C29.9569 8.18532 30.1269 7.86531 30.4169 7.72531C30.5869 7.63531 30.6969 7.52529 30.7269 7.39529C30.7669 7.19529 30.7169 6.99531 30.5869 6.84531C28.5169 4.37531 25.7969 2.7453 22.4469 1.9353C22.0069 1.8253 21.9369 1.2253 22.3469 1.0253L22.9969 0.695312Z" fill="#699D24"/>
<path d="M7.68704 147.036C7.95704 147.666 7.15703 148.206 6.67703 147.716C5.61703 146.636 4.95704 145.476 4.68704 144.226C3.55704 138.826 3.09704 133.666 3.30704 128.736C3.33704 127.806 3.27704 126.876 3.10704 125.956C2.72704 123.906 2.54704 122.106 2.55704 120.566C2.87704 86.1955 3.06705 50.9455 3.11705 14.8255C3.11705 13.3955 3.90703 11.4255 5.48703 8.92551C7.91703 5.06551 11.337 3.42554 15.767 4.01554C16.337 4.09554 16.377 4.90552 15.817 5.03552C14.727 5.28552 13.767 5.99552 12.937 7.18552C12.717 7.49552 12.417 7.75551 12.067 7.92551C8.53705 9.59551 6.71705 12.7955 6.60705 17.5255C6.41705 25.9255 6.33705 34.5355 6.35705 43.3455C6.44705 77.1355 6.40704 109.246 6.24704 139.676C6.22704 142.626 6.57704 144.476 7.68704 147.036Z" fill="#C5D971"/>
</svg>
