<svg xmlns="http://www.w3.org/2000/svg" fill="none" viewBox="0 0 100 100" class=""><path fill="currentColor" fill-rule="evenodd" d="M50 2.93C24.005 2.93 2.93 24.005 2.93 50S24.005 97.07 50 97.07 97.07 75.995 97.07 50 75.995 2.93 50 2.93M9.18 50C9.18 27.456 27.456 9.18 50 9.18S90.82 27.456 90.82 50 72.544 90.82 50 90.82 9.18 72.544 9.18 50m29.417-14.964a4.59 4.59 0 1 0-6.491 6.491 4.59 4.59 0 0 0 6.491-6.491m29.297 0a4.59 4.59 0 1 0-6.491 6.492 4.59 4.59 0 0 0 6.491-6.492M29.167 60.33a3.125 3.125 0 0 0-5.6 2.777 29.505 29.505 0 0 0 52.866 0 3.125 3.125 0 0 0-5.6-2.777 23.253 23.253 0 0 1-41.666 0" clip-rule="evenodd"></path></svg>