<svg width="98" height="159" viewBox="0 0 98 159" fill="none" xmlns="http://www.w3.org/2000/svg">
<path d="M79.0282 4.0575C77.7882 3.7275 76.4782 3.70751 75.0982 3.99751C69.8782 5.10751 66.5482 8.2075 65.0982 13.3075C63.9682 17.2575 63.5582 21.5575 63.8582 26.2275C64.0782 29.6375 64.1482 33.2575 64.0682 37.0675C63.8082 48.5775 64.0482 60.2975 64.5082 71.4975C64.5982 73.8275 64.5182 77.4375 64.2582 82.3175C64.0682 85.9075 64.0782 89.5175 64.2782 93.1575C64.4982 97.0575 63.8182 100.238 63.9582 104.068C64.0782 107.378 64.0082 109.698 63.7482 111.028C62.7282 116.238 59.7382 120.338 54.7782 123.088C51.6282 124.828 48.8382 125.918 46.4282 126.368C46.2282 126.408 46.0882 126.578 46.0982 126.778C46.0982 126.978 46.2482 127.148 46.4482 127.178L51.7982 127.938C51.9382 127.958 52.0782 127.948 52.2082 127.898C62.3282 124.678 67.4582 117.698 67.5982 106.968C67.7282 96.9675 68.1282 87.6875 68.1282 78.6475C68.1182 39.4775 68.1082 19.7275 68.0982 19.4075C68.0482 16.2475 68.3282 14.0475 68.9182 12.7975C70.8282 8.76753 74.7882 7.1775 79.0982 5.5575C79.8182 5.2875 79.7682 4.2575 79.0282 4.0575ZM17.8082 145.318C15.0782 141.668 12.4382 138.348 9.88821 135.358C7.91821 133.048 6.70822 130.918 6.27822 128.988C5.75822 126.668 5.98824 123.478 6.97824 119.428C8.16824 114.508 15.3182 111.408 19.5982 111.108C20.2482 111.068 20.4882 110.238 19.9582 109.858C18.4682 108.798 16.6082 108.508 14.3782 108.978C14.3482 108.988 14.3282 109.008 14.3182 109.038C14.2882 109.108 14.2482 109.188 14.1982 109.258C14.1282 109.348 14.0482 109.408 13.9582 109.428C9.63822 110.468 6.46823 112.838 4.43823 116.548C2.96823 119.228 2.58822 122.308 3.27822 125.788C3.89822 128.878 5.17821 131.778 7.10821 134.498C6.91821 134.428 6.73821 134.388 6.57821 134.368C6.29821 134.348 6.04822 134.528 5.98822 134.798L5.87823 135.258C5.81823 135.518 5.46823 135.578 5.31823 135.358C2.90823 131.848 1.82821 128.078 2.07821 124.048C2.25821 121.268 2.34822 119.808 2.33822 119.658C2.31822 118.658 2.66821 117.248 3.38821 115.438C4.82821 111.808 8.22823 108.078 12.2882 107.938C13.4482 107.898 14.3882 107.778 15.1182 107.578C18.4182 106.678 23.1382 108.588 25.9282 110.408C26.1282 110.538 26.3082 110.688 26.4782 110.858L31.1382 115.558C31.1682 115.588 31.1882 115.608 31.2082 115.638C34.2282 119.708 37.7982 122.508 41.9182 124.058C42.3782 124.228 42.8682 124.318 43.3582 124.328C46.6882 124.338 49.7282 123.638 52.4582 122.208C58.1582 119.238 61.4582 114.668 62.3582 108.498C63.0282 103.888 63.4982 97.6475 63.4282 91.8075C63.3482 85.4975 63.3582 80.4175 63.4482 76.5875C63.6082 69.9475 63.6782 64.8775 63.6582 61.3775C63.5382 44.8275 63.5182 28.8975 63.6082 13.5975C63.6082 13.5875 63.6082 13.5675 63.6082 13.5575L64.8382 9.71751C64.8482 9.67751 64.8682 9.63752 64.8882 9.60752C66.8382 5.65752 69.7282 3.14751 73.5582 2.06751C73.8582 1.98751 74.1582 1.93751 74.4682 1.90751C77.5882 1.65751 79.3582 1.50752 79.7782 1.47752C85.6782 1.02752 90.2082 3.30753 93.3682 8.29753C93.5082 8.51753 93.4082 8.81753 93.1582 8.89753L92.8782 8.98753C92.7382 9.03753 92.5782 8.95751 92.5182 8.81751C92.3382 8.36751 92.1282 8.07751 91.8882 7.93751C91.5982 7.77751 91.2682 8.05753 91.3682 8.36753L92.4182 11.5875C92.4682 11.7275 92.4982 11.8775 92.5082 12.0275C93.0182 18.9775 93.2682 26.7175 93.2482 35.2275C93.2182 50.4875 93.1482 75.0775 93.0582 108.988C93.0182 122.358 88.2382 133.578 78.3782 142.378C69.4482 150.348 58.1682 154.098 44.5282 153.628C33.6382 153.258 24.7282 150.488 17.8082 145.318Z" fill="#9EC748"/>
<path d="M7.10798 134.494C9.71798 138.314 13.278 141.924 17.808 145.314C24.728 150.484 33.638 153.254 44.528 153.624C58.168 154.094 69.448 150.344 78.378 142.374C88.238 133.574 93.018 122.354 93.058 108.984C93.148 75.0739 93.218 50.4838 93.248 35.2238C93.268 26.7138 93.018 18.9738 92.508 12.0238C92.498 11.8738 92.468 11.7238 92.418 11.5838L91.368 8.36386C91.268 8.05386 91.598 7.77384 91.888 7.93384C92.128 8.07384 92.338 8.36384 92.518 8.81384C92.578 8.95384 92.738 9.03386 92.878 8.98386L93.158 8.89386C93.408 8.81386 93.508 8.51385 93.368 8.29385C90.208 3.30385 85.678 1.02385 79.778 1.47385C79.358 1.50385 77.588 1.65384 74.468 1.90384C74.158 1.93384 73.858 1.98384 73.558 2.06384C69.728 3.14384 66.838 5.65385 64.888 9.60385C64.868 9.63385 64.848 9.67384 64.838 9.71384L63.608 13.5538C63.608 13.5638 63.608 13.5838 63.608 13.5938C63.518 28.8938 63.538 44.8238 63.658 61.3738C63.678 64.8738 63.608 69.9438 63.448 76.5838C63.358 80.4138 63.348 85.4938 63.428 91.8038C63.498 97.6438 63.028 103.884 62.358 108.494C61.458 114.664 58.158 119.234 52.458 122.204C49.728 123.634 46.688 124.334 43.358 124.324C42.868 124.314 42.378 124.224 41.918 124.054C37.798 122.504 34.228 119.704 31.208 115.634C31.188 115.604 31.168 115.584 31.138 115.554L26.478 110.854C26.308 110.684 26.128 110.534 25.928 110.404C23.138 108.584 18.418 106.674 15.118 107.574C14.388 107.774 13.448 107.894 12.288 107.934C8.228 108.074 4.82798 111.804 3.38798 115.434C2.66798 117.244 2.31799 118.654 2.33799 119.654C2.34799 119.804 2.25798 121.264 2.07798 124.044C1.82798 128.074 2.908 131.844 5.318 135.354C5.468 135.574 5.818 135.514 5.878 135.254L5.98799 134.794C6.04799 134.524 6.29798 134.344 6.57798 134.364C6.73798 134.384 6.91798 134.424 7.10798 134.494ZM96.468 121.304C92.138 138.764 81.278 150.484 63.898 156.464C57.148 158.284 50.198 158.964 43.048 158.494C27.278 157.464 14.708 150.684 5.33799 138.154C2.36799 134.184 0.607982 129.714 0.0779818 124.744C-0.582018 118.554 2.99799 110.564 8.89799 107.914C15.698 104.844 21.888 105.544 27.458 110.004C28.728 111.014 31.148 113.594 34.728 117.734C39.498 123.264 45.288 124.394 52.088 121.134C59.368 117.644 61.088 112.834 61.158 104.954C61.458 70.5839 61.578 41.0138 61.528 16.2438C61.528 14.1738 62.608 11.2239 64.768 7.41385C67.848 1.98385 73.558 0.473834 79.408 0.0538344C90.958 -0.786166 97.528 8.32384 97.618 18.9938C97.928 54.6038 97.948 84.9538 97.658 110.034C97.618 113.234 97.218 116.994 96.468 121.304Z" fill="#699D24"/>
<path d="M79.0282 4.05253C79.7682 4.25253 79.8182 5.28253 79.0982 5.55253C74.7882 7.17253 70.8282 8.76255 68.9182 12.7926C68.3282 14.0426 68.0482 16.2425 68.0982 19.4025C68.1082 19.7225 68.1182 39.4726 68.1282 78.6426C68.1282 87.6826 67.7282 96.9625 67.5982 106.963C67.4582 117.693 62.3281 124.673 52.2081 127.893C52.0781 127.943 51.9381 127.953 51.7981 127.933L46.4482 127.173C46.2482 127.143 46.0982 126.973 46.0982 126.773C46.0882 126.573 46.2281 126.403 46.4281 126.363C48.8381 125.913 51.6282 124.823 54.7782 123.083C59.7382 120.333 62.7282 116.233 63.7482 111.023C64.0082 109.693 64.0781 107.373 63.9581 104.063C63.8181 100.233 64.4982 97.0525 64.2782 93.1525C64.0782 89.5125 64.0682 85.9025 64.2582 82.3125C64.5182 77.4325 64.5982 73.8225 64.5082 71.4925C64.0482 60.2925 63.8082 48.5725 64.0682 37.0625C64.1482 33.2525 64.0781 29.6325 63.8581 26.2225C63.5581 21.5525 63.9682 17.2525 65.0982 13.3025C66.5482 8.20253 69.8782 5.10253 75.0982 3.99253C76.4782 3.70253 77.7882 3.72253 79.0282 4.05253Z" fill="#C5D971"/>
<path d="M17.8084 145.316C13.2784 141.926 9.71835 138.315 7.10835 134.495C5.17835 131.775 3.89836 128.876 3.27836 125.786C2.58836 122.306 2.96836 119.226 4.43836 116.546C6.46836 112.836 9.63835 110.466 13.9584 109.426C14.0484 109.406 14.1284 109.346 14.1984 109.256C14.2484 109.186 14.2884 109.106 14.3184 109.036C14.3284 109.006 14.3484 108.986 14.3784 108.976C16.6084 108.506 18.4684 108.796 19.9584 109.856C20.4884 110.236 20.2484 111.066 19.5984 111.106C15.3184 111.406 8.16837 114.506 6.97837 119.426C5.98837 123.476 5.75836 126.666 6.27836 128.986C6.70836 130.916 7.91834 133.046 9.88834 135.356C12.4383 138.346 15.0784 141.666 17.8084 145.316Z" fill="#C5D971"/>
</svg>
