<svg width="115" height="159" viewBox="0 0 115 159" fill="none" xmlns="http://www.w3.org/2000/svg">
<path d="M82.9605 97.0605C86.0505 101.49 89.0505 105.96 91.9705 110.48C96.8605 118.07 100.451 122.89 105.171 129.08C107.491 132.13 109 134.75 109.71 136.94C113.74 149.45 100.01 155.32 90.0105 153.14C86.9605 152.47 84.2705 150.49 81.9205 147.2L82.5905 147.28C83.0405 147.33 83.3405 146.83 83.0805 146.46L49.2105 97.0605C49.0205 96.7805 49.2305 96.4105 49.5705 96.4305C60.6005 97.2405 71.7305 97.4505 82.9605 97.0605Z" fill="#ED3D27"/>
<path d="M10.4606 5.27899C7.43059 6.68899 5.41059 9.059 4.40059 12.389C4.32059 12.389 4.24061 12.389 4.17061 12.389C2.71061 15.039 1.98059 17.929 1.99059 21.039C2.07059 49.049 2.11062 67.259 2.11062 75.669C2.11062 82.499 2.4406 89.449 2.3106 96.589C2.2406 99.939 2.24061 105.169 2.29061 112.259C2.36061 121.979 2.3806 132.329 2.3406 143.309C2.3406 143.839 2.55061 144.659 2.98061 145.779C3.06061 145.989 3.3106 146.069 3.5006 145.959C3.8106 145.779 4.22061 145.809 4.73061 146.059L6.7506 149.599C11.6906 153.869 17.5306 154.739 24.2806 152.219C27.5906 150.979 29.9706 148.479 31.4006 144.719C32.0806 142.919 32.7806 140.869 32.8306 139.149C33.1406 128.919 33.1506 117.759 32.8706 105.679C32.8406 104.049 33.2206 102.799 34.0206 101.949C37.9106 97.769 40.9206 94.469 43.0506 92.049C43.4806 91.559 44.2706 91.659 44.5706 92.239C45.2306 93.539 46.0106 94.879 46.9106 96.249C58.2206 113.499 69.8906 130.489 81.9206 147.199C84.2706 150.489 86.9606 152.469 90.0106 153.139C100.011 155.319 113.741 149.449 109.711 136.939C109.001 134.749 107.491 132.129 105.171 129.079C100.451 122.889 96.8606 118.069 91.9706 110.479C89.0506 105.959 86.0506 101.489 82.9606 97.059L65.7306 72.709C65.5306 72.419 65.5006 72.059 65.6406 71.749C66.0306 70.889 66.6006 69.989 67.3606 69.049C80.6606 52.609 92.2406 38.029 102.101 25.299C106.051 20.199 107.771 14.609 105.961 9.02899C105.521 7.65899 105.271 6.71901 105.201 6.20901C105.161 5.90901 105.021 5.62899 104.811 5.40899C102.861 3.34899 99.6206 1.24902 96.9006 2.30902C96.6406 2.41902 96.3506 2.45901 96.0706 2.42901C92.7506 2.09901 90.1706 2.52901 88.3306 3.70901C83.9806 5.42901 80.4406 7.83899 77.7306 10.939C75.8206 13.119 73.4606 16.089 70.6306 19.849C61.9006 31.469 52.9706 42.499 42.4906 55.719C40.3106 58.469 36.9706 62.219 34.6406 65.909C33.8906 66.659 33.3506 66.279 33.0406 64.759C32.9206 64.149 32.8606 63.259 32.8506 62.069C32.7806 47.559 32.8306 31.909 33.0006 15.109C33.0206 12.439 32.1606 9.97899 32.3406 7.56899C32.3706 7.13899 32.2406 6.719 31.9606 6.389C29.7806 3.779 26.9506 2.399 23.4706 2.229C20.3206 2.079 17.2806 2.23901 14.3506 2.70901C14.0206 2.75901 13.7206 2.93899 13.5206 3.21899C12.7806 4.20899 11.7606 3.51901 10.9306 4.23901C10.6106 4.51901 10.4506 4.86899 10.4606 5.27899ZM37.2406 43.649L37.3906 56.549C37.3906 56.799 37.7106 56.909 37.8706 56.709L42.4806 50.909C43.7106 49.539 44.8806 48.139 46.0106 46.699C57.3806 32.159 65.3306 21.869 69.8406 15.829C74.6906 9.349 78.3806 5.32899 80.9006 3.77899C85.9106 0.698986 91.5206 -0.50101 97.7206 0.18899C106.361 1.13899 112.151 9.92901 110.661 18.119C109.721 23.749 106.071 28.359 102.661 32.619C92.2006 45.679 81.5606 58.949 70.7306 72.439C70.4006 72.859 70.3706 73.439 70.6706 73.879L75.6806 81.329C83.5906 92.859 91.8906 104.929 100.591 117.559C103.841 122.269 107.211 126.889 110.721 131.419C112.951 134.299 114.131 137.779 114.271 141.869C114.361 146.869 112.501 150.969 108.701 154.169C103.041 158.929 95.5006 159.059 88.6906 157.169C85.0206 155.719 81.9306 153.229 79.4306 149.699C66.6006 131.539 55.4506 115.369 45.9806 101.189C45.5306 100.159 44.8906 99.239 44.0706 98.449C43.8506 98.229 43.4906 98.249 43.3006 98.489C41.7206 100.459 40.0506 102.459 38.2806 104.469C37.4906 105.359 37.1006 106.439 37.0906 107.699C37.0206 115.889 37.0006 124.129 37.0106 132.419C37.0206 138.909 36.7706 142.999 36.2606 144.669C33.1906 154.689 26.3306 159.209 15.6806 158.229C8.58059 157.179 3.84061 153.649 1.45061 147.649C0.460612 145.179 -0.0194001 141.349 0.000599906 136.169C0.1906 92.999 0.260601 56.309 0.220601 26.079C0.210601 18.079 0.71059 12.879 1.74059 10.489C4.35059 4.40901 9.61059 0.978999 17.5206 0.199C28.8406 -0.911 37.0806 4.629 37.1906 16.669C37.2606 25.639 37.2806 34.639 37.2406 43.649Z" fill="#BE1A11"/>
<path d="M34.6403 65.9126C36.9703 62.2226 40.3103 58.4726 42.4903 55.7226C52.9703 42.5026 61.9003 31.4726 70.6303 19.8526C73.4603 16.0926 75.8203 13.1226 77.7303 10.9426C80.4403 7.84261 83.9803 5.43263 88.3303 3.71263L93.5603 3.49263C93.8203 3.48263 94.0603 3.64262 94.1403 3.89262L94.2303 4.15263C94.3603 4.54263 94.1403 4.96263 93.7503 5.08263C87.5003 6.93263 82.1203 10.7626 77.6303 16.5726C63.0003 35.4626 49.7303 52.2926 37.8403 67.0526C37.0903 67.9826 36.1203 68.7626 34.9103 69.3926C34.4503 69.6326 33.9203 69.2326 34.0303 68.7226L34.6403 65.9126Z" fill="#FEA796"/>
<path d="M34.641 65.9075L34.0309 68.7175C33.9209 69.2275 34.4509 69.6275 34.9109 69.3875C36.1209 68.7575 37.0909 67.9775 37.8409 67.0475C49.7309 52.2875 63.0009 35.4575 77.6309 16.5675C82.1209 10.7575 87.501 6.92754 93.751 5.07754C94.141 4.95754 94.3609 4.53754 94.2309 4.14754L94.1409 3.88753C94.0609 3.63753 93.821 3.47754 93.561 3.48754L88.3309 3.70754C90.1709 2.52754 92.7509 2.09754 96.0709 2.42754C96.3509 2.45754 96.6409 2.41755 96.9009 2.30755C99.6209 1.24755 102.861 3.34752 104.811 5.40752C105.021 5.62752 105.161 5.90754 105.201 6.20754C105.271 6.71754 105.521 7.65752 105.961 9.02752C107.771 14.6075 106.051 20.1975 102.101 25.2975C92.2409 38.0275 80.661 52.6075 67.361 69.0475C66.601 69.9875 66.0309 70.8875 65.6409 71.7475C65.5009 72.0575 65.5309 72.4175 65.7309 72.7075L82.9609 97.0575C71.7309 97.4475 60.6009 97.2375 49.5709 96.4275C49.2309 96.4075 49.0209 96.7775 49.2109 97.0575L83.0809 146.458C83.3409 146.828 83.0409 147.328 82.5909 147.278L81.921 147.198C69.891 130.488 58.2209 113.498 46.9109 96.2475C46.0109 94.8775 45.2309 93.5375 44.5709 92.2375C44.2709 91.6575 43.4809 91.5575 43.0509 92.0475C40.9209 94.4675 37.9109 97.7675 34.0209 101.948C33.2209 102.798 32.8409 104.048 32.8709 105.678C33.1509 117.758 33.1409 128.918 32.8309 139.148C32.7809 140.868 32.0809 142.918 31.4009 144.718C29.9709 148.478 27.5909 150.978 24.2809 152.218C17.5309 154.738 11.6909 153.868 6.75094 149.598C6.57094 147.438 6.39095 145.338 6.20095 143.308C5.99095 140.858 5.92094 138.768 6.00094 137.018C6.21094 132.668 6.62095 128.308 6.60095 124.768C6.51095 107.388 7.12095 91.5175 7.10095 74.9175C7.09095 70.6875 7.02094 52.2075 6.87094 19.4875C6.86094 17.6875 6.97093 15.8275 7.18093 13.8975C8.61093 10.5975 11.261 7.96754 15.111 6.01754C15.931 5.59754 15.6909 4.36754 14.7709 4.29754C13.6009 4.20754 12.1609 4.52752 10.4609 5.27752C10.4509 4.86752 10.6109 4.51754 10.9309 4.23754C11.7609 3.51754 12.7809 4.20752 13.5209 3.21752C13.7209 2.93752 14.0209 2.75754 14.3509 2.70754C17.2809 2.23754 20.3209 2.07753 23.4709 2.22753C26.9509 2.39753 29.7809 3.77753 31.9609 6.38753C32.2409 6.71753 32.3709 7.13753 32.3409 7.56753C32.1609 9.97753 33.0209 12.4375 33.0009 15.1075C32.8309 31.9075 32.7809 47.5575 32.8509 62.0675C32.8609 63.2575 32.9209 64.1475 33.0409 64.7575C33.3509 66.2775 33.891 66.6575 34.641 65.9075Z" fill="#F54A3A"/>
<path d="M4.17036 12.3906C3.74036 15.0106 3.53033 17.1306 3.52033 18.7406C3.51033 43.5106 3.63035 83.7706 3.88035 139.531C3.89035 141.001 4.17036 143.171 4.73036 146.061C4.22036 145.811 3.81035 145.781 3.50035 145.961C3.31035 146.071 3.06036 145.991 2.98036 145.781C2.55036 144.661 2.34034 143.841 2.34034 143.311C2.38034 132.331 2.36035 121.981 2.29035 112.261C2.24035 105.171 2.24034 99.9406 2.31034 96.5906C2.44034 89.4506 2.11036 82.5006 2.11036 75.6706C2.11036 67.2606 2.07034 49.0506 1.99034 21.0406C1.98034 17.9306 2.71036 15.0406 4.17036 12.3906Z" fill="#F54A3A"/>
<path d="M4.40011 12.3906C4.96011 13.7006 5.89011 14.2006 7.18011 13.9006C6.97011 15.8306 6.86011 17.6906 6.87011 19.4906C7.02011 52.2106 7.09013 70.6906 7.10013 74.9206C7.12013 91.5206 6.51013 107.391 6.60013 124.771C6.62013 128.311 6.21012 132.671 6.00012 137.021C5.92012 138.771 5.99013 140.861 6.20013 143.311C6.39013 145.341 6.57012 147.441 6.75012 149.601L4.73013 146.061C4.17013 143.171 3.89012 141.001 3.88012 139.531C3.63012 83.7706 3.51011 43.5106 3.52011 18.7406C3.53011 17.1306 3.74013 15.0106 4.17013 12.3906C4.24013 12.3906 4.32011 12.3906 4.40011 12.3906Z" fill="#FE7E64"/>
</svg>
