<svg width="70" height="64" viewBox="0 0 70 64" fill="none" xmlns="http://www.w3.org/2000/svg">
<path d="M18.9316 31.0555L18.5654 31.625L21.82 33.7174L22.1862 33.1479L18.9316 31.0555Z" fill="#878787"/>
<path d="M16.9929 31.0565L13.7383 33.1484L14.1043 33.7179L17.3589 31.626L16.9929 31.0565Z" fill="#878787"/>
<path d="M18.301 31.3438H17.625V33.4358H18.301V31.3438Z" fill="#878787"/>
<path d="M13.732 32.9453H22.195C22.461 32.9453 22.676 33.1603 22.676 33.4263V33.4363C22.676 33.7023 22.461 33.9173 22.195 33.9173H13.732C13.466 33.9173 13.251 33.7023 13.251 33.4363V33.4263C13.251 33.1603 13.466 32.9453 13.732 32.9453Z" fill="#575756"/>
<path d="M19.0398 30.25H16.8848V31.844H19.0398V30.25Z" fill="#878787"/>
<path d="M19.886 28.5625H16.04V30.6145H19.886V28.5625Z" fill="#575756"/>
<path d="M20.2939 60.5008L19.9277 61.0703L23.1823 63.1627L23.5485 62.5932L20.2939 60.5008Z" fill="#878787"/>
<path d="M18.3532 60.5018L15.0986 62.5938L15.4647 63.1632L18.7193 61.0713L18.3532 60.5018Z" fill="#878787"/>
<path d="M19.6623 60.7891H18.9863V62.8811H19.6623V60.7891Z" fill="#878787"/>
<path d="M15.0933 62.3906H23.5563C23.8223 62.3906 24.0373 62.6056 24.0373 62.8716V62.8816C24.0373 63.1476 23.8223 63.3626 23.5563 63.3626H15.0933C14.8273 63.3626 14.6123 63.1476 14.6123 62.8816V62.8716C14.6123 62.6056 14.8273 62.3906 15.0933 62.3906Z" fill="#575756"/>
<path d="M20.4011 59.6953H18.2461V61.2893H20.4011V59.6953Z" fill="#878787"/>
<path d="M21.2474 58.0078H17.4014V60.0598H21.2474V58.0078Z" fill="#575756"/>
<path d="M13.5984 53.9519C9.45439 53.9519 6.08339 50.5809 6.08339 46.4369V43.5019V42.2959V16.3649C6.08339 15.2439 5.17539 14.3359 4.05439 14.3359C2.93339 14.3359 2.02539 15.2439 2.02539 16.3649V42.1769V43.3829V46.4369C2.02539 52.8179 7.21639 58.0089 13.5984 58.0089H40.9884V53.9519H13.5984Z" fill="#9D9D9C"/>
<path d="M5.60186 35.4464C5.60186 36.3014 4.90886 36.9944 4.05386 36.9944C3.19886 36.9944 2.50586 36.3014 2.50586 35.4464C2.50586 34.5914 3.19886 33.8984 4.05386 33.8984C4.90886 33.8984 5.60186 34.5914 5.60186 35.4464Z" fill="#575756"/>
<path d="M4.39182 32.0078H3.71582V35.4428H4.39182V32.0078Z" fill="#B2B2B2"/>
<path d="M3.7954 35.2932L1.09961 37.4219L1.51915 37.9532L4.21494 35.8245L3.7954 35.2932Z" fill="#B2B2B2"/>
<path d="M4.39233 35.1704L3.98633 35.7109L6.73295 37.774L7.13896 37.2335L4.39233 35.1704Z" fill="#B2B2B2"/>
<path d="M5.1408 35.4464C5.1408 36.0464 4.6538 36.5334 4.0538 36.5334C3.4538 36.5334 2.9668 36.0464 2.9668 35.4464C2.9668 34.8464 3.4538 34.3594 4.0538 34.3594C4.6538 34.3594 5.1408 34.8464 5.1408 35.4464Z" fill="#B2B2B2"/>
<path d="M4.054 39.4966C1.819 39.4966 0 37.6786 0 35.4436C0 33.2086 1.819 31.3906 4.054 31.3906C6.289 31.3906 8.108 33.2086 8.108 35.4436C8.108 37.6786 6.289 39.4966 4.054 39.4966ZM4.054 32.2006C2.266 32.2006 0.811998 33.6556 0.811998 35.4426C0.811998 37.2306 2.267 38.6856 4.054 38.6856C5.842 38.6856 7.296 37.2306 7.296 35.4426C7.296 33.6556 5.842 32.2006 4.054 32.2006Z" fill="#575756"/>
<path d="M51.2404 15.7745L50.6709 16.1406L52.7633 19.3952L53.3327 19.0291L51.2404 15.7745Z" fill="#878787"/>
<path d="M52.7615 10.9481L50.6699 14.2031L51.2395 14.5691L53.3311 11.3141L52.7615 10.9481Z" fill="#878787"/>
<path d="M53.0451 14.8359H50.9531V15.5119H53.0451V14.8359Z" fill="#878787"/>
<path d="M52.5586 10.9419V19.4049C52.5586 19.6709 52.7736 19.8859 53.0396 19.8859H53.0496C53.3156 19.8859 53.5306 19.6709 53.5306 19.4049V10.9419C53.5306 10.6759 53.3156 10.4609 53.0496 10.4609H53.0396C52.7736 10.4609 52.5586 10.6769 52.5586 10.9419Z" fill="#575756"/>
<path d="M51.4602 14.0938H49.8662V16.2487H51.4602V14.0938Z" fill="#878787"/>
<path d="M50.2268 13.25H48.1748V17.096H50.2268V13.25Z" fill="#575756"/>
<path d="M48.7465 32.9V0H44.6895V32.9C44.6895 40.286 50.6984 46.296 58.0854 46.296H68.6574V42.239H58.0854C52.9364 42.238 48.7465 38.049 48.7465 32.9Z" fill="#878787"/>
<path d="M65.8462 0C65.8442 0.038 65.8352 0.0740028 65.8352 0.113003V46.542C65.8352 50.626 62.5132 53.949 58.4282 53.949H38.8162C33.7302 53.949 29.5922 49.811 29.5922 44.725V0H25.5352V44.724C25.5352 52.048 31.4932 58.006 38.8162 58.006H58.4282C64.7492 58.006 69.8922 52.863 69.8922 46.542V0.113003C69.8922 0.0740028 69.8832 0.038 69.8812 0H65.8462Z" fill="#B2B2B2"/>
<path d="M6.03747 14.716V0.653999C6.03747 0.423999 5.99047 0.206 5.92047 0H2.09747C2.02647 0.206 1.98047 0.423999 1.98047 0.653999V14.716C1.98047 22.468 8.28647 28.774 16.0385 28.774H46.0925V24.717H16.0385C10.5235 24.717 6.03747 20.23 6.03747 14.716Z" fill="#878787"/>
<path d="M49.1888 55.6964C49.1888 56.5514 48.4958 57.2444 47.6408 57.2444C46.7858 57.2444 46.0928 56.5514 46.0928 55.6964C46.0928 54.8414 46.7858 54.1484 47.6408 54.1484C48.4948 54.1484 49.1888 54.8414 49.1888 55.6964Z" fill="#575756"/>
<path d="M47.9778 52.2578H47.3018V55.6928H47.9778V52.2578Z" fill="#878787"/>
<path d="M47.379 55.5429L44.6836 57.6719L45.1032 58.2031L47.7986 56.0741L47.379 55.5429Z" fill="#878787"/>
<path d="M47.9802 55.4204L47.5742 55.9609L50.3208 58.024L50.7268 57.4835L47.9802 55.4204Z" fill="#878787"/>
<path d="M48.7267 55.6964C48.7267 56.2974 48.2397 56.7834 47.6397 56.7834C47.0397 56.7834 46.5527 56.2964 46.5527 55.6964C46.5527 55.0964 47.0397 54.6094 47.6397 54.6094C48.2407 54.6094 48.7267 55.0964 48.7267 55.6964Z" fill="#878787"/>
<path d="M47.6399 59.7476C45.4049 59.7476 43.5859 57.9296 43.5859 55.6936C43.5859 53.4586 45.4049 51.6406 47.6399 51.6406C49.8749 51.6406 51.6939 53.4586 51.6939 55.6936C51.6939 57.9296 49.8749 59.7476 47.6399 59.7476ZM47.6399 52.4516C45.8519 52.4516 44.3979 53.9066 44.3979 55.6936C44.3979 57.4816 45.8529 58.9366 47.6399 58.9366C49.4279 58.9366 50.8819 57.4816 50.8819 55.6936C50.8829 53.9066 49.4279 52.4516 47.6399 52.4516Z" fill="#575756"/>
</svg>
