<svg width="65" height="77" viewBox="0 0 65 77" fill="none" xmlns="http://www.w3.org/2000/svg">
<path d="M56.8431 22.6413V33.2092H50.0551C45.3721 33.2092 41.5681 37.0142 41.5681 41.6962V41.9722C41.5681 52.1262 33.4951 60.4422 23.4311 60.8332C23.1871 60.8412 22.9431 60.8493 22.6911 60.8493H22.4151C22.1631 60.8493 21.9191 60.8412 21.6751 60.8332C11.6111 60.4432 3.53809 52.1262 3.53809 41.9722V9.03125H14.1061V41.9722C14.1061 46.5492 17.8291 50.2803 22.4141 50.2803H22.6901C27.2751 50.2803 30.9981 46.5492 30.9981 41.9722V41.6962C30.9981 31.1842 39.5501 22.6402 50.0541 22.6402H56.8431V22.6413Z" fill="#DADADA"/>
<path opacity="0.5" d="M49.1058 26.0093V24.1953C39.8678 24.6923 32.4988 32.3423 32.4988 41.7033V41.9793C32.4988 42.1853 32.4808 42.3873 32.4678 42.5903H34.6568C34.5248 33.7983 40.7178 27.0273 49.1058 26.0093Z" fill="white"/>
<path d="M32.0021 43.9844C31.0761 48.2764 27.2541 51.5044 22.6891 51.5044H22.4141C17.8491 51.5044 14.0281 48.2764 13.1011 43.9844H4.87109C5.87309 52.7784 13.3561 59.6334 22.4131 59.6334H22.6881C31.7451 59.6334 39.2281 52.7784 40.2301 43.9844H32.0021Z" fill="#0091A1"/>
<path d="M17.64 0H0V7.785H17.64V0Z" fill="#9D9D9C"/>
<path d="M17.639 7.78125H0L2.375 11.5303H15.264L17.639 7.78125Z" fill="#878787"/>
<path d="M14.6369 11.5312H3.00195V13.8342H14.6369V11.5312Z" fill="#575756"/>
<path d="M64.3338 19.0469H56.5488V36.6869H64.3338V19.0469Z" fill="#9D9D9C"/>
<path d="M56.5488 36.6869V19.0469L52.8008 21.4219V34.3119L56.5488 36.6869Z" fill="#878787"/>
<path d="M52.8001 22.0469H50.4971V33.6819H52.8001V22.0469Z" fill="#575756"/>
<path d="M23.4298 58.6797V60.8337C23.1858 60.8417 22.9418 60.8497 22.6898 60.8497H22.4138C22.1618 60.8497 21.9178 60.8417 21.6738 60.8337V58.6797H23.4298Z" fill="#0091A1"/>
<path d="M25.4419 76.2715C36.4981 76.2715 45.4609 74.7608 45.4609 72.8974C45.4609 71.034 36.4981 69.5234 25.4419 69.5234C14.3857 69.5234 5.42285 71.034 5.42285 72.8974C5.42285 74.7608 14.3857 76.2715 25.4419 76.2715Z" fill="#0091A1"/>
<path d="M28.9701 70.1017C35.5362 70.1017 40.8591 69.2045 40.8591 68.0977C40.8591 66.991 35.5362 66.0938 28.9701 66.0938C22.4039 66.0938 17.0811 66.991 17.0811 68.0977C17.0811 69.2045 22.4039 70.1017 28.9701 70.1017Z" fill="#0091A1"/>
<path d="M23.1014 64.7256C23.1014 65.3246 19.7174 65.8106 15.5424 65.8106C11.3674 65.8106 7.9834 65.3246 7.9834 64.7256C7.9834 64.1266 11.3674 63.6406 15.5424 63.6406C19.7174 63.6416 23.1014 64.1266 23.1014 64.7256Z" fill="#0091A1"/>
<path opacity="0.5" d="M7.98404 15.2109H4.87305V42.2799H7.98404V15.2109Z" fill="white"/>
<path opacity="0.75" d="M4.02394 0.898438H1.21094V6.58644H4.02394V0.898438Z" fill="white"/>
<path opacity="0.75" d="M63.2857 20.6484H57.5977V23.4614H63.2857V20.6484Z" fill="white"/>
<path opacity="0.1" d="M37.182 43.9844C36.152 51.0284 30.087 56.4594 22.762 56.4594H22.535C15.21 56.4594 9.14504 51.0284 8.11504 43.9844H4.87305C5.87505 52.7784 13.358 59.6334 22.415 59.6334H22.69C31.747 59.6334 39.23 52.7784 40.232 43.9844H37.182Z" fill="#1D1D1B"/>
<path opacity="0.5" d="M41.7377 71.5391C36.6667 74.7101 24.1347 74.8261 10.2617 74.3921C13.5377 74.9451 18.1217 75.3671 23.9317 75.3671C36.2027 75.3671 43.0767 73.4951 43.4777 72.5171C43.3697 72.2331 42.7717 71.8891 41.7377 71.5391Z" fill="white"/>
</svg>
