<svg width="70" height="74" viewBox="0 0 70 74" fill="none" xmlns="http://www.w3.org/2000/svg">
<path d="M67.7124 14.5745L67.7234 14.5655L67.7214 14.5645C68.2644 14.0065 68.7184 13.3435 69.0474 12.5875C70.3074 9.69049 69.9014 5.97349 65.6074 3.85249L59.2594 0.325496C58.2504 -0.235504 56.9924 -0.0585122 56.1764 0.757488L55.5204 1.41349L62.9214 8.8145L60.9974 12.3685L54.8154 18.5505L58.6494 22.3845L66.8714 15.2985C67.1704 15.0825 67.4524 14.8415 67.7124 14.5745Z" fill="#706F6F"/>
<path d="M56.6953 18.5475L62.0743 13.1685L64.5613 8.57345L57.4463 1.45846C57.8093 1.27946 58.2483 1.28145 58.6153 1.48545L64.9913 5.02845L65.0203 5.04246C65.7913 5.42346 66.4403 5.87446 66.9483 6.38246C69.0553 8.48946 68.2673 11.0525 67.8303 12.0565C67.5733 12.6465 67.2173 13.1775 66.7703 13.6365L66.7213 13.6865C66.5303 13.8775 66.3193 14.0575 66.0923 14.2225L66.0483 14.2544L58.7193 20.5715L56.6953 18.5475Z" fill="#9D9D9C"/>
<path d="M56.1064 1.97649C56.2654 1.81749 56.2654 1.5595 56.1064 1.4005C55.9474 1.2415 55.6894 1.2415 55.5304 1.4005C55.3714 1.5595 55.3714 1.81749 55.5304 1.97649C55.6904 2.13549 55.9474 2.13549 56.1064 1.97649Z" fill="#706F6F"/>
<path d="M56.6826 2.55463C56.8416 2.39563 56.8416 2.13762 56.6826 1.97862C56.5236 1.81963 56.2656 1.81963 56.1066 1.97862C55.9476 2.13762 55.9476 2.39563 56.1066 2.55463C56.2656 2.71363 56.5236 2.71363 56.6826 2.55463Z" fill="#706F6F"/>
<path d="M57.2587 3.13275C57.4177 2.97375 57.4177 2.71575 57.2587 2.55675C57.0997 2.39775 56.8417 2.39775 56.6827 2.55675C56.5237 2.71575 56.5237 2.97375 56.6827 3.13275C56.8417 3.29075 57.0997 3.29075 57.2587 3.13275Z" fill="#706F6F"/>
<path d="M57.8339 3.70307C57.9929 3.54407 57.9929 3.28606 57.8339 3.12706C57.6749 2.96806 57.4169 2.96806 57.2579 3.12706C57.0989 3.28606 57.0989 3.54407 57.2579 3.70307C57.4169 3.86207 57.6749 3.86207 57.8339 3.70307Z" fill="#706F6F"/>
<path d="M58.4091 4.28119C58.5681 4.12219 58.5681 3.86419 58.4091 3.70519C58.2501 3.54619 57.9921 3.54619 57.8331 3.70519C57.6741 3.86419 57.6741 4.12219 57.8331 4.28119C57.9931 4.44019 58.2501 4.44019 58.4091 4.28119Z" fill="#706F6F"/>
<path d="M58.9853 4.85932C59.1443 4.70032 59.1443 4.44231 58.9853 4.28331C58.8263 4.12431 58.5683 4.12431 58.4093 4.28331C58.2503 4.44231 58.2503 4.70032 58.4093 4.85932C58.5683 5.01832 58.8263 5.01832 58.9853 4.85932Z" fill="#706F6F"/>
<path d="M59.5615 5.43743C59.7205 5.27843 59.7205 5.02044 59.5615 4.86144C59.4025 4.70244 59.1445 4.70244 58.9855 4.86144C58.8265 5.02044 58.8265 5.27843 58.9855 5.43743C59.1445 5.59643 59.4025 5.59643 59.5615 5.43743Z" fill="#706F6F"/>
<path d="M60.1376 6.00775C60.2966 5.84875 60.2966 5.59075 60.1376 5.43175C59.9786 5.27275 59.7206 5.27275 59.5616 5.43175C59.4026 5.59075 59.4026 5.84875 59.5616 6.00775C59.7206 6.16675 59.9786 6.16675 60.1376 6.00775Z" fill="#706F6F"/>
<path d="M60.7128 6.58586C60.8718 6.42686 60.8718 6.16887 60.7128 6.00987C60.5538 5.85088 60.2958 5.85088 60.1368 6.00987C59.9778 6.16887 59.9778 6.42686 60.1368 6.58586C60.2968 6.74486 60.5538 6.74486 60.7128 6.58586Z" fill="#706F6F"/>
<path d="M61.288 7.164C61.447 7.005 61.447 6.747 61.288 6.588C61.129 6.429 60.871 6.429 60.712 6.588C60.553 6.747 60.553 7.005 60.712 7.164C60.871 7.323 61.129 7.323 61.288 7.164Z" fill="#706F6F"/>
<path d="M61.8642 7.73432C62.0232 7.57532 62.0232 7.31731 61.8642 7.15831C61.7052 6.99931 61.4472 6.99931 61.2882 7.15831C61.1292 7.31731 61.1292 7.57532 61.2882 7.73432C61.4472 7.89232 61.7052 7.89232 61.8642 7.73432Z" fill="#706F6F"/>
<path d="M62.4404 8.31244C62.5994 8.15344 62.5994 7.89544 62.4404 7.73644C62.2814 7.57744 62.0234 7.57744 61.8644 7.73644C61.7054 7.89544 61.7054 8.15344 61.8644 8.31244C62.0234 8.47144 62.2814 8.47144 62.4404 8.31244Z" fill="#706F6F"/>
<path d="M51.6486 15.3828L46.8996 16.9248C46.0646 17.1958 45.3196 17.6898 44.7446 18.3528L27.5576 38.1638L31.5386 42.1448L50.8096 22.8738L55.9916 19.5298L51.6486 15.3828Z" fill="#706F6F"/>
<path opacity="0.4" d="M47.2069 17.8755C46.5449 18.0905 45.9539 18.4815 45.4979 19.0075L28.9219 38.1145L29.5089 38.7015L50.8679 16.6875L47.2069 17.8755Z" fill="white"/>
<path d="M4.40672 71.0931C3.84272 71.6681 3.84671 72.5901 4.41571 73.1591L4.43672 73.1801C4.99672 73.7401 5.90071 73.7551 6.47871 73.2131L36.5597 45.0151L33.2727 41.7031L4.40672 71.0931Z" fill="#E94E1B"/>
<path d="M58.8975 21.6671L57.9385 14.8851L51.2565 8.20312L49.9485 10.7431C49.2975 12.0071 49.0585 13.4421 49.2645 14.8481L50.6125 24.0521L33.2715 41.7081L36.5585 45.0201L57.6295 25.2681C58.6135 24.3451 59.0865 23.0021 58.8975 21.6671Z" fill="#878787"/>
<path d="M51.2564 8.19412L57.9384 14.8761L60.3334 12.4811L52.9304 5.07812L52.1844 5.82413C51.5214 6.48713 51.1994 7.36712 51.2564 8.19412Z" fill="#706F6F"/>
<path d="M53.5068 5.65618C53.6658 5.49718 53.6658 5.23919 53.5068 5.08019C53.3478 4.92119 53.0898 4.92119 52.9308 5.08019C52.7718 5.23919 52.7718 5.49718 52.9308 5.65618C53.0898 5.81518 53.3478 5.81518 53.5068 5.65618Z" fill="#706F6F"/>
<path d="M54.082 6.23432C54.241 6.07532 54.241 5.81731 54.082 5.65831C53.923 5.49931 53.665 5.49931 53.506 5.65831C53.347 5.81731 53.347 6.07532 53.506 6.23432C53.665 6.39332 53.923 6.39332 54.082 6.23432Z" fill="#706F6F"/>
<path d="M54.6581 6.80463C54.8171 6.64563 54.8171 6.38762 54.6581 6.22862C54.4991 6.06963 54.2411 6.06963 54.0821 6.22862C53.9231 6.38762 53.9231 6.64563 54.0821 6.80463C54.2411 6.96363 54.4991 6.96363 54.6581 6.80463Z" fill="#706F6F"/>
<path d="M55.2333 7.38275C55.3923 7.22375 55.3923 6.96575 55.2333 6.80675C55.0743 6.64775 54.8163 6.64775 54.6573 6.80675C54.4983 6.96575 54.4983 7.22375 54.6573 7.38275C54.8163 7.54175 55.0743 7.54175 55.2333 7.38275Z" fill="#706F6F"/>
<path d="M55.8095 7.96088C55.9685 7.80188 55.9685 7.54387 55.8095 7.38487C55.6505 7.22588 55.3925 7.22588 55.2335 7.38487C55.0745 7.54387 55.0745 7.80188 55.2335 7.96088C55.3925 8.11988 55.6505 8.11988 55.8095 7.96088Z" fill="#706F6F"/>
<path d="M56.3857 8.539C56.5447 8.38 56.5447 8.122 56.3857 7.963C56.2267 7.804 55.9687 7.804 55.8097 7.963C55.6507 8.122 55.6507 8.38 55.8097 8.539C55.9687 8.698 56.2267 8.698 56.3857 8.539Z" fill="#706F6F"/>
<path d="M56.9609 9.1093C57.1199 8.9503 57.1199 8.69231 56.9609 8.53331C56.8019 8.37431 56.5439 8.37431 56.3849 8.53331C56.2259 8.69231 56.2259 8.9503 56.3849 9.1093C56.5449 9.2683 56.8019 9.2683 56.9609 9.1093Z" fill="#706F6F"/>
<path d="M57.5361 9.68743C57.6951 9.52843 57.6951 9.27044 57.5361 9.11144C57.3771 8.95244 57.1191 8.95244 56.9601 9.11144C56.8011 9.27044 56.8011 9.52843 56.9601 9.68743C57.1201 9.84643 57.3771 9.84643 57.5361 9.68743Z" fill="#706F6F"/>
<path d="M58.1122 10.2656C58.2712 10.1066 58.2712 9.84856 58.1122 9.68956C57.9532 9.53056 57.6952 9.53056 57.5362 9.68956C57.3772 9.84856 57.3772 10.1066 57.5362 10.2656C57.6952 10.4246 57.9532 10.4246 58.1122 10.2656Z" fill="#706F6F"/>
<path d="M58.6884 10.8359C58.8474 10.6769 58.8474 10.4189 58.6884 10.2599C58.5294 10.1009 58.2714 10.1009 58.1124 10.2599C57.9534 10.4189 57.9534 10.6769 58.1124 10.8359C58.2714 10.9949 58.5294 10.9949 58.6884 10.8359Z" fill="#706F6F"/>
<path d="M59.2636 11.414C59.4226 11.255 59.4226 10.997 59.2636 10.838C59.1046 10.679 58.8466 10.679 58.6876 10.838C58.5286 10.997 58.5286 11.255 58.6876 11.414C58.8476 11.573 59.1046 11.573 59.2636 11.414Z" fill="#706F6F"/>
<path d="M59.8398 11.9921C59.9988 11.8331 59.9988 11.5751 59.8398 11.4161C59.6808 11.2571 59.4228 11.2571 59.2638 11.4161C59.1048 11.5751 59.1048 11.8331 59.2638 11.9921C59.4228 12.1511 59.6808 12.1511 59.8398 11.9921Z" fill="#706F6F"/>
<path d="M51.9818 11.8094C52.3822 11.8094 52.7068 11.4848 52.7068 11.0844C52.7068 10.684 52.3822 10.3594 51.9818 10.3594C51.5814 10.3594 51.2568 10.684 51.2568 11.0844C51.2568 11.4848 51.5814 11.8094 51.9818 11.8094Z" fill="#B2B2B2"/>
<path d="M56.0478 15.1513C55.7648 15.4343 55.3058 15.4343 55.0228 15.1513C54.7398 14.8683 54.7398 14.4093 55.0228 14.1263C55.3058 13.8433 55.7648 13.8433 56.0478 14.1263C56.3308 14.4093 56.3308 14.8683 56.0478 15.1513Z" fill="#B2B2B2"/>
<path d="M55.2228 19.8146C54.6098 20.4286 53.6148 20.4286 53.0008 19.8146C52.3878 19.2006 52.3878 18.2066 53.0008 17.5926C53.6138 16.9796 54.6088 16.9796 55.2228 17.5926C55.8368 18.2066 55.8368 19.2016 55.2228 19.8146Z" fill="#B2B2B2"/>
<path d="M3.09025 69.2778C2.38325 69.9848 1.23725 69.9848 0.53025 69.2778C-0.17675 68.5708 -0.17675 67.4248 0.53025 66.7178L27.0303 40.2178C27.7373 39.5107 28.8832 39.5107 29.5902 40.2178C30.2972 40.9248 30.2972 42.0708 29.5902 42.7778L3.09025 69.2778Z" fill="#706F6F"/>
<path opacity="0.5" d="M13.13 55.5312L1.237 67.4253C1.084 67.5773 1 67.7803 1 67.9963C1 68.2133 1.084 68.4163 1.237 68.5693C1.283 68.6153 1.34001 68.6413 1.39301 68.6743L13.812 56.1873L13.13 55.5312Z" fill="white"/>
<path d="M28.7635 43.8531C28.6415 43.9751 28.4335 43.9861 28.2985 43.8781L25.6655 41.7731C25.5305 41.6651 25.5195 41.4791 25.6415 41.3571C25.7635 41.2351 25.9715 41.2241 26.1065 41.3321L28.7395 43.4371C28.8745 43.5451 28.8855 43.7311 28.7635 43.8531Z" fill="#878787"/>
<path d="M28.0566 44.564C27.9346 44.686 27.7266 44.697 27.5916 44.589L24.9586 42.484C24.8236 42.376 24.8126 42.19 24.9336 42.068C25.0556 41.946 25.2636 41.935 25.3986 42.043L28.0316 44.148C28.1676 44.256 28.1786 44.442 28.0566 44.564Z" fill="#878787"/>
<path d="M27.3495 45.2668C27.2285 45.3888 27.0195 45.3998 26.8845 45.2918L24.2515 43.1868C24.1165 43.0788 24.1056 42.8928 24.2266 42.7708C24.3486 42.6498 24.5566 42.6378 24.6916 42.7458L27.3245 44.8508C27.4605 44.9598 27.4715 45.1458 27.3495 45.2668Z" fill="#878787"/>
<path d="M26.6435 45.9699C26.5215 46.0919 26.3135 46.1029 26.1785 45.9949L23.5455 43.8899C23.4105 43.7819 23.3995 43.5959 23.5205 43.4739C23.6415 43.3529 23.8495 43.3409 23.9855 43.4489L26.6185 45.5539C26.7535 45.6629 26.7645 45.8489 26.6435 45.9699Z" fill="#878787"/>
<path d="M25.9365 46.6812C25.8145 46.8022 25.6065 46.8142 25.4715 46.7062L22.8385 44.6012C22.7035 44.4932 22.6925 44.3072 22.8135 44.1852C22.9345 44.0632 23.1435 44.0522 23.2785 44.1602L25.9115 46.2652C26.0465 46.3742 26.0575 46.5602 25.9365 46.6812Z" fill="#878787"/>
<path d="M25.2294 47.3849C25.1074 47.5059 24.8994 47.5169 24.7644 47.4089L22.1314 45.304C21.9964 45.196 21.9854 45.0099 22.1064 44.8879C22.2284 44.7659 22.4365 44.7559 22.5715 44.8629L25.2044 46.968C25.3394 47.078 25.3504 47.2639 25.2294 47.3849Z" fill="#878787"/>
<path d="M24.5224 48.0953C24.4004 48.2173 24.1924 48.2283 24.0574 48.1203L21.4244 46.0153C21.2894 45.9073 21.2784 45.7213 21.3994 45.5993C21.5214 45.4773 21.7294 45.4663 21.8644 45.5743L24.4974 47.6793C24.6334 47.7873 24.6434 47.9743 24.5224 48.0953Z" fill="#878787"/>
<path d="M23.8154 48.7984C23.6934 48.9204 23.4854 48.9304 23.3504 48.8234L20.7174 46.7184C20.5824 46.6104 20.5714 46.4244 20.6924 46.3024C20.8144 46.1804 21.0224 46.1694 21.1574 46.2774L23.7904 48.3824C23.9264 48.4904 23.9374 48.6764 23.8154 48.7984Z" fill="#878787"/>
<path d="M23.1083 49.509C22.9873 49.631 22.7784 49.642 22.6434 49.534L20.0104 47.429C19.8754 47.321 19.8643 47.135 19.9853 47.013C20.1073 46.892 20.3154 46.88 20.4504 46.988L23.0834 49.093C23.2194 49.201 23.2303 49.387 23.1083 49.509Z" fill="#878787"/>
<path d="M22.4013 50.2125C22.2793 50.3335 22.0713 50.3455 21.9363 50.2375L19.3033 48.1325C19.1683 48.0245 19.1573 47.8385 19.2783 47.7165C19.3993 47.5945 19.6083 47.5835 19.7433 47.6915L22.3763 49.7964C22.5123 49.9044 22.5233 50.0905 22.4013 50.2125Z" fill="#878787"/>
<path d="M21.6943 50.9234C21.5733 51.0444 21.3653 51.0564 21.2293 50.9484L18.5963 48.8434C18.4613 48.7354 18.4503 48.5494 18.5713 48.4274C18.6923 48.3054 18.9013 48.2944 19.0363 48.4024L21.6693 50.5074C21.8053 50.6154 21.8163 50.8014 21.6943 50.9234Z" fill="#878787"/>
<path d="M20.9882 51.6265C20.8662 51.7485 20.6582 51.7595 20.5232 51.6515L17.8902 49.5465C17.7552 49.4385 17.7442 49.2525 17.8652 49.1305C17.9872 49.0085 18.1952 48.9975 18.3302 49.1055L20.9632 51.2105C21.0982 51.3195 21.1092 51.5055 20.9882 51.6265Z" fill="#878787"/>
<path d="M20.2812 52.3375C20.1592 52.4595 19.9512 52.4705 19.8162 52.3625L17.1832 50.2575C17.0482 50.1495 17.0372 49.9635 17.1582 49.8415C17.2802 49.7195 17.4882 49.7085 17.6232 49.8165L20.2562 51.9215C20.3912 52.0305 20.4022 52.2165 20.2812 52.3375Z" fill="#878787"/>
<path d="M19.5742 53.0407C19.4532 53.1627 19.2442 53.1727 19.1092 53.0647L16.4762 50.9597C16.3412 50.8517 16.3302 50.6657 16.4512 50.5437C16.5732 50.4227 16.7812 50.4117 16.9162 50.5197L19.5492 52.6247C19.6842 52.7337 19.6952 52.9197 19.5742 53.0407Z" fill="#878787"/>
<path d="M18.8671 53.7512C18.7461 53.8732 18.5371 53.8842 18.4021 53.7762L15.7691 51.6712C15.6341 51.5632 15.6231 51.3772 15.7441 51.2552C15.8651 51.1342 16.0731 51.1222 16.2091 51.2302L18.8421 53.3352C18.9781 53.4442 18.9881 53.6302 18.8671 53.7512Z" fill="#878787"/>
<path d="M18.1601 54.4547C18.0381 54.5757 17.8301 54.5876 17.6951 54.4796L15.0621 52.3747C14.9271 52.2667 14.9161 52.0806 15.0371 51.9586C15.1581 51.8366 15.3671 51.8257 15.5021 51.9337L18.1351 54.0387C18.2711 54.1467 18.2821 54.3327 18.1601 54.4547Z" fill="#878787"/>
<path d="M17.4531 55.1647C17.3321 55.2857 17.1241 55.2967 16.9881 55.1897L14.3551 53.0847C14.2201 52.9767 14.2091 52.7907 14.3301 52.6687C14.4511 52.5477 14.6601 52.5367 14.7951 52.6447L17.4281 54.7497C17.5641 54.8567 17.5751 55.0427 17.4531 55.1647Z" fill="#878787"/>
<path d="M16.746 55.8687C16.624 55.9907 16.416 56.0017 16.281 55.8937L13.6481 53.7887C13.5131 53.6807 13.502 53.4947 13.623 53.3727C13.745 53.2507 13.9531 53.2397 14.0881 53.3477L16.721 55.4527C16.857 55.5607 16.868 55.7467 16.746 55.8687Z" fill="#878787"/>
<path d="M16.039 56.5797C15.917 56.7017 15.709 56.7126 15.574 56.6046L12.941 54.4997C12.806 54.3917 12.795 54.2056 12.916 54.0836C13.038 53.9616 13.246 53.9507 13.381 54.0587L16.014 56.1636C16.15 56.2716 16.161 56.4577 16.039 56.5797Z" fill="#878787"/>
<path d="M29.4396 44.3879L25.2826 40.2309C25.1506 40.0989 25.1506 39.8839 25.2826 39.7519L26.9746 38.0599C27.1066 37.9279 27.3216 37.9279 27.4536 38.0599L31.6106 42.2169C31.7426 42.3489 31.7426 42.5639 31.6106 42.6959L29.9186 44.3879C29.7866 44.5199 29.5726 44.5199 29.4396 44.3879Z" fill="#DADADA"/>
<path d="M25.8274 40.1C25.7494 40.178 25.6254 40.181 25.5504 40.107C25.4754 40.032 25.4784 39.908 25.5574 39.83L27.0534 38.334C27.1314 38.256 27.2564 38.253 27.3304 38.327C27.4054 38.402 27.4024 38.526 27.3234 38.604L25.8274 40.1Z" fill="#B2B2B2"/>
<path d="M26.2288 40.4994C26.1508 40.5774 26.0268 40.5804 25.9518 40.5064C25.8768 40.4314 25.8798 40.3074 25.9588 40.2294L27.4548 38.7324C27.5328 38.6544 27.6568 38.6514 27.7318 38.7254C27.8068 38.8004 27.8038 38.9244 27.7248 39.0024L26.2288 40.4994Z" fill="#B2B2B2"/>
<path d="M26.6292 40.9047C26.5512 40.9827 26.4272 40.9857 26.3522 40.9117C26.2772 40.8367 26.2802 40.7127 26.3592 40.6347L27.8552 39.1387C27.9332 39.0607 28.0582 39.0577 28.1322 39.1317C28.2072 39.2067 28.2042 39.3307 28.1252 39.4087L26.6292 40.9047Z" fill="#B2B2B2"/>
<path d="M27.0315 41.3041C26.9535 41.3821 26.8295 41.3851 26.7545 41.3111C26.6795 41.2361 26.6825 41.1121 26.7615 41.0341L28.2575 39.5371C28.3355 39.4591 28.4595 39.4561 28.5345 39.5301C28.6095 39.6051 28.6065 39.7291 28.5275 39.8071L27.0315 41.3041Z" fill="#B2B2B2"/>
<path d="M27.4329 41.7026C27.3549 41.7806 27.2309 41.7836 27.1559 41.7096C27.0809 41.6346 27.0839 41.5106 27.1629 41.4326L28.6589 39.9356C28.7369 39.8576 28.8609 39.8546 28.9359 39.9286C29.0109 40.0036 29.0079 40.1276 28.9289 40.2056L27.4329 41.7026Z" fill="#B2B2B2"/>
<path d="M27.8333 42.1088C27.7553 42.1868 27.6313 42.1898 27.5563 42.1158C27.4813 42.0408 27.4843 41.9168 27.5633 41.8388L29.0593 40.3418C29.1373 40.2638 29.2613 40.2608 29.3363 40.3348C29.4113 40.4098 29.4083 40.5338 29.3293 40.6118L27.8333 42.1088Z" fill="#B2B2B2"/>
<path d="M28.2356 42.5073C28.1576 42.5853 28.0336 42.5883 27.9586 42.5143C27.8836 42.4393 27.8866 42.3153 27.9656 42.2373L29.4626 40.7402C29.5406 40.6622 29.6646 40.6593 29.7396 40.7333C29.8146 40.8083 29.8116 40.9323 29.7326 41.0103L28.2356 42.5073Z" fill="#B2B2B2"/>
<path d="M28.6361 42.9057C28.5581 42.9837 28.4341 42.9867 28.3591 42.9127C28.2841 42.8377 28.2871 42.7137 28.3651 42.6357L29.8621 41.1387C29.9401 41.0607 30.0641 41.0577 30.1391 41.1317C30.2141 41.2067 30.2111 41.3307 30.1321 41.4087L28.6361 42.9057Z" fill="#B2B2B2"/>
<path d="M29.0383 43.3119C28.9603 43.3899 28.8363 43.3929 28.7613 43.3189C28.6863 43.2439 28.6894 43.1199 28.7684 43.0419L30.2654 41.5449C30.3434 41.4669 30.4673 41.4639 30.5423 41.5379C30.6173 41.6129 30.6144 41.737 30.5354 41.815L29.0383 43.3119Z" fill="#B2B2B2"/>
<path d="M29.4397 43.7104C29.3617 43.7884 29.2367 43.7914 29.1627 43.7174C29.0877 43.6424 29.0907 43.5184 29.1697 43.4404L30.6667 41.9434C30.7447 41.8654 30.8687 41.8624 30.9437 41.9364C31.0187 42.0114 31.0157 42.1354 30.9367 42.2134L29.4397 43.7104Z" fill="#B2B2B2"/>
<path d="M29.8401 44.1156C29.7621 44.1936 29.6381 44.1966 29.5631 44.1226C29.4881 44.0476 29.4911 43.9236 29.5701 43.8456L31.0671 42.3496C31.1451 42.2716 31.2691 42.2686 31.3441 42.3426C31.4191 42.4176 31.4161 42.5416 31.3371 42.6196L29.8401 44.1156Z" fill="#B2B2B2"/>
</svg>
