<svg width="67" height="71" viewBox="0 0 67 71" fill="none" xmlns="http://www.w3.org/2000/svg">
<path d="M65.568 3.83594H27.207V6.89694H65.568V3.83594Z" fill="#706F6F"/>
<path d="M34.2001 5.36569C34.2001 7.67769 32.3261 9.55169 30.0141 9.55169C27.7021 9.55169 25.8281 7.67769 25.8281 5.36569C25.8281 3.05369 27.7021 1.17969 30.0141 1.17969C32.3261 1.17969 34.2001 3.05369 34.2001 5.36569Z" fill="#C6C6C6"/>
<path opacity="0.75" d="M30.5931 2.74669C30.4061 2.70569 30.2131 2.67969 30.0141 2.67969C28.5331 2.67969 27.3281 3.88469 27.3281 5.36569C27.3281 6.80669 28.4701 7.97669 29.8961 8.03969C28.4161 6.49269 28.6421 3.98469 30.5931 2.74669Z" fill="white"/>
<path d="M66.8525 5.36569C66.8525 7.67769 64.9785 9.55169 62.6665 9.55169C60.3545 9.55169 58.4805 7.67769 58.4805 5.36569C58.4805 3.05369 60.3545 1.17969 62.6665 1.17969C64.9785 1.17969 66.8525 3.05369 66.8525 5.36569Z" fill="#C6C6C6"/>
<path d="M48.82 2.69531H43.959V13.4383H48.82V2.69531Z" fill="#706F6F"/>
<path d="M52.6899 11.2734H40.0879V70.5044H52.6899V11.2734Z" fill="#DADADA"/>
<path d="M54.3098 14.6016H38.4668V43.6766H54.3098V14.6016Z" fill="#706F6F"/>
<path d="M17.7625 24.5938C8.53054 24.5938 1.01953 32.1047 1.01953 41.3368V46.0177H10.7415V41.3368C10.7415 37.4657 13.8915 34.3158 17.7625 34.3158H51.2685V24.5938H17.7625Z" fill="#C6C6C6"/>
<path d="M56.6969 40.8924C49.8249 40.8924 42.9519 40.8924 36.0799 40.8924C32.5789 33.4524 32.5789 24.8384 36.0799 17.3984C42.9519 17.3984 49.8249 17.3984 56.6969 17.3984C60.1979 24.8384 60.1979 33.4524 56.6969 40.8924Z" fill="#DADADA"/>
<path opacity="0.75" d="M42.4358 18.8984H37.0508C34.2448 25.4614 34.2448 32.8304 37.0508 39.3934H38.4668C35.6778 31.4394 38.0528 22.5644 42.4358 18.8984Z" fill="white"/>
<path d="M51.6237 9.537C52.2367 8.574 52.5967 7.435 52.5967 6.209C52.5967 2.78 49.8167 0 46.3877 0C42.9587 0 40.1787 2.78 40.1787 6.209C40.1787 7.435 40.5387 8.575 41.1517 9.537H51.6237Z" fill="#DADADA"/>
<path opacity="0.75" d="M47.0787 1.57C46.8517 1.536 46.6247 1.5 46.3887 1.5C43.7927 1.5 41.6807 3.612 41.6807 6.208C41.6807 6.838 41.8087 7.458 42.0537 8.036H44.2177C43.3647 5.436 44.1107 3.076 47.0787 1.57Z" fill="white"/>
<path d="M11.277 61.5303C11.277 65.5993 8.753 68.8982 5.638 68.8982C2.524 68.8982 0 65.5993 0 61.5303C0 57.4613 5.638 48.1562 5.638 48.1562C5.638 48.1562 11.277 57.4613 11.277 61.5303Z" fill="#0091A1"/>
<path d="M4.37349 61.2789C4.37349 62.6969 3.62348 63.8469 2.69748 63.8469C1.77148 63.8469 1.02148 62.6969 1.02148 61.2789C1.02148 59.8609 1.77148 58.7109 2.69748 58.7109C3.62248 58.7099 4.37349 59.8599 4.37349 61.2789Z" fill="white"/>
<path opacity="0.75" d="M63.0316 2.74669C62.8446 2.70569 62.6516 2.67969 62.4526 2.67969C60.9716 2.67969 59.7666 3.88469 59.7666 5.36569C59.7666 6.80669 60.9086 7.97669 62.3346 8.03969C60.8546 6.49269 61.0796 3.98469 63.0316 2.74669Z" fill="white"/>
</svg>
