<svg width="80" height="80" viewBox="0 0 80 80" fill="none" xmlns="http://www.w3.org/2000/svg">
<path d="M0.4365 76.1011L3.2665 78.9311C3.8495 79.5141 4.7935 79.5141 5.3765 78.9311L53.0395 31.2681L48.0995 26.3281L0.4365 73.9911C-0.1455 74.5741 -0.1455 75.5191 0.4365 76.1011Z" fill="#CA9E67"/>
<path opacity="0.15" d="M48.0991 28.4531L1.49707 75.0441L3.41708 76.9631L49.6791 30.0321L48.0991 28.4531Z" fill="#1D1D1B"/>
<path d="M50.5358 22.7266L56.6428 28.8336L51.5648 33.9106C51.0348 34.4406 50.1738 34.4406 49.6438 33.9106L45.4588 29.7246C44.9278 29.1946 44.9278 28.3336 45.4588 27.8036L50.5358 22.7266Z" fill="#D94919"/>
<path d="M51.1166 2.17681C51.6766 1.61681 52.2616 1.10681 52.8666 0.632812L78.7366 26.5038C78.2636 27.1088 77.7526 27.6938 77.1926 28.2538C76.4226 29.0238 75.6036 29.7108 74.7346 30.3168C67.5466 35.3728 57.5506 34.6808 51.1206 28.2498C44.6896 21.8188 43.9986 11.8238 49.0536 4.63481C49.6586 3.76581 50.3466 2.94681 51.1166 2.17681Z" fill="#E94E1B"/>
<path opacity="0.2" d="M52.7766 2.67188C52.5716 2.85888 52.3716 3.04788 52.1756 3.24388C51.4726 3.94788 50.8356 4.70688 50.2796 5.50388C45.5916 12.1709 46.3376 21.1769 52.0196 27.0189C49.0366 19.0569 50.3636 11.8559 55.4196 5.31488L52.7766 2.67188Z" fill="#1D1D1B"/>
<path opacity="0.75" d="M72.4744 25.1797C72.2984 25.3717 72.1244 25.5667 71.9414 25.7497C71.2244 26.4667 70.4504 27.1167 69.6414 27.6807C65.5204 30.5797 60.5234 31.4437 55.8994 30.3877C61.5434 33.4727 68.5814 33.2197 74.0684 29.3607C74.5664 29.0137 75.0444 28.6247 75.5114 28.2167L72.4744 25.1797Z" fill="white"/>
<path d="M48.7206 2.38575L50.7087 0.396751C51.2357 -0.130249 52.0957 -0.134249 52.6267 0.396751L78.9746 26.7448C79.5056 27.2758 79.5016 28.1358 78.9746 28.6628L76.9866 30.6518C76.4556 31.1828 75.5997 31.1828 75.0677 30.6518L48.7196 4.30375C48.1896 3.77275 48.1896 2.91675 48.7206 2.38575Z" fill="#D94919"/>
</svg>
