<svg width="72" height="54" viewBox="0 0 72 54" fill="none" xmlns="http://www.w3.org/2000/svg">
<path d="M1.76401 23.8203H69.687C70.376 24.5093 70.762 24.8953 71.451 25.5843V47.9313C70.762 48.6203 70.376 49.0063 69.687 49.6953H1.76401C1.07501 49.0063 0.689 48.6203 0 47.9313V25.5843C0.688 24.8953 1.07501 24.5093 1.76401 23.8203Z" fill="#C6C6C6"/>
<path opacity="0.15" d="M1.49902 42.4297V47.3077L2.38504 48.1937H69.065L69.951 47.3077V42.4297H1.49902Z" fill="#1D1D1B"/>
<path d="M48.6631 1.764V23.818C43.5171 34.992 27.4921 35.139 22.7881 23.818V1.764C23.4771 1.075 23.8631 0.689 24.5521 0H46.8991C47.5871 0.689 47.9741 1.075 48.6631 1.764Z" fill="#DADADA"/>
<path d="M51.9951 5.28744V15.5784C51.5361 16.0374 51.2781 16.8834 50.8191 17.3424H20.6311C20.1721 16.8834 19.9141 16.0374 19.4551 15.5784V5.28744C19.9141 4.82844 20.1721 3.98244 20.6311 3.52344H50.8191C51.2781 3.98244 51.5361 4.82844 51.9951 5.28744Z" fill="#878787"/>
<path d="M28.0311 15.1993C25.1621 16.5803 22.3031 16.7253 19.4551 15.1993V5.66134C22.2111 4.12434 25.0801 4.29134 28.0311 5.66134V15.1993Z" fill="#DADADA"/>
<path opacity="0.75" d="M26.5311 7.42831V6.65731C25.4871 6.26731 24.4861 6.07031 23.5481 6.07031C22.6491 6.07031 21.7941 6.24231 20.9551 6.59531V10.4303C22.3731 8.72831 24.0351 7.41331 26.5311 7.42831Z" fill="white"/>
<path d="M43.4189 15.1993C46.2879 16.5803 49.1469 16.7253 51.9949 15.1993V5.66134C49.2389 4.12434 46.3699 4.29134 43.4189 5.66134V15.1993Z" fill="#DADADA"/>
<path opacity="0.75" d="M50.4949 7.55331V6.59531C49.6559 6.24231 48.8019 6.07031 47.9019 6.07031C46.9639 6.07031 45.9629 6.26731 44.9189 6.65731V10.1783C46.1829 8.51131 48.2129 7.34831 50.4949 7.55331Z" fill="white"/>
<path d="M28.0312 15.1993C30.9002 16.5803 40.5713 16.7253 43.4193 15.1993V5.66134C40.6633 4.12434 30.9822 4.29134 28.0312 5.66134V15.1993Z" fill="#EDEDED"/>
<path opacity="0.75" d="M41.9193 7.88631V6.67431C40.7723 6.34231 38.7503 6.07031 36.0673 6.07031C33.5093 6.07031 31.0232 6.32732 29.5312 6.72432V12.8443C32.8293 9.51431 36.9713 7.88731 41.9193 7.88631Z" fill="white"/>
<path d="M7.70834 20.4844H17.9993C18.4583 20.9434 19.3043 21.2014 19.7633 21.6604V51.8484C19.3043 52.3074 18.4583 52.5654 17.9993 53.0244H7.70834C7.24934 52.5654 6.40334 52.3074 5.94434 51.8484V21.6604C6.40334 21.2004 7.24834 20.9434 7.70834 20.4844Z" fill="#878787"/>
<path d="M17.4401 44.4453C18.7681 47.3143 18.9071 50.1733 17.4401 53.0213H8.26713C6.78913 50.2653 6.94913 47.3963 8.26713 44.4453H17.4401Z" fill="#DADADA"/>
<path d="M17.4401 29.0604C18.7681 26.1914 18.9071 23.3324 17.4401 20.4844H8.26713C6.78913 23.2404 6.94913 26.1104 8.26713 29.0604H17.4401Z" fill="#DADADA"/>
<path d="M16.8513 23.3084C16.7753 22.7084 16.7023 22.5694 16.4743 21.9844H9.22034C8.78734 22.6214 8.56934 23.7304 8.56934 24.7724C10.7253 23.5944 13.6423 22.9074 16.8513 23.3084Z" fill="white"/>
<path d="M17.4401 44.4505C18.7681 41.5815 18.9071 31.9105 17.4401 29.0625H8.26713C6.78913 31.8185 6.94913 41.4995 8.26713 44.4505H17.4401Z" fill="#EDEDED"/>
<path opacity="0.75" d="M16.7764 32.6385C16.6844 31.8375 16.5614 31.1235 16.4064 30.5625H9.28937C8.75537 31.7955 8.56836 34.0765 8.56836 37.1385C10.7884 34.0765 13.6634 32.5445 16.7764 32.6385Z" fill="white"/>
<path d="M53.4515 20.4844H63.7425C64.2015 20.9434 65.0475 21.2014 65.5065 21.6604V51.8484C65.0475 52.3074 64.2015 52.5654 63.7425 53.0244H53.4515C52.9925 52.5654 52.1465 52.3074 51.6875 51.8484V21.6604C52.1465 21.2004 52.9925 20.9434 53.4515 20.4844Z" fill="#878787"/>
<path d="M63.0266 44.4453C64.3096 47.3143 64.4436 50.1733 63.0266 53.0213H54.1676C52.7406 50.2653 52.8946 47.3963 54.1676 44.4453H63.0266Z" fill="#DADADA"/>
<path d="M63.0266 29.0604C64.3096 26.1914 64.4436 23.3324 63.0266 20.4844H54.1676C52.7406 23.2404 52.8946 26.1104 54.1676 29.0604H63.0266Z" fill="#DADADA"/>
<path d="M63.0266 44.4505C64.3096 41.5815 64.4436 31.9105 63.0266 29.0625H54.1676C52.7406 31.8185 52.8946 41.4995 54.1676 44.4505H63.0266Z" fill="#EDEDED"/>
<path opacity="0.75" d="M62.7031 32.6385C62.6111 31.8375 62.4881 31.1235 62.3331 30.5625H55.2161C54.6821 31.7955 54.4951 34.0765 54.4951 37.1385C56.7141 34.0765 59.5891 32.5445 62.7031 32.6385Z" fill="white"/>
<path opacity="0.75" d="M16.8513 23.3084C16.7753 22.7084 16.7023 22.5694 16.4743 21.9844H9.22034C8.78734 22.6214 8.56934 23.7304 8.56934 24.7724C10.7253 23.5944 13.6423 22.9074 16.8513 23.3084Z" fill="white"/>
<path opacity="0.75" d="M62.74 23.3084C62.664 22.7084 62.591 22.5694 62.363 21.9844H55.109C54.676 22.6214 54.458 23.7304 54.458 24.7724C56.615 23.5944 59.531 22.9074 62.74 23.3084Z" fill="white"/>
</svg>
