<svg width="55" height="74" viewBox="0 0 55 74" fill="none" xmlns="http://www.w3.org/2000/svg">
<path d="M5.01901 55.0158H0V47.8148C0 42.5928 4.24801 38.3438 9.47101 38.3438H21.213V43.3628H9.47101C7.01701 43.3628 5.01901 45.3598 5.01901 47.8148V55.0158Z" fill="#DADADA"/>
<path d="M32.1466 11.0938H25.9326V34.0867H32.1466V11.0938Z" fill="#9D9D9C"/>
<path d="M33.459 31.8906H24.623V34.4556H33.459V31.8906Z" fill="#B2B2B2"/>
<path d="M29.0945 56.0511H28.9855C26.0125 56.0511 23.6025 53.6411 23.6025 50.6681V34.4531H34.4775V50.6681C34.4775 53.6411 32.0675 56.0511 29.0945 56.0511Z" fill="#DADADA"/>
<path d="M23.6032 43.9075H17.6582V37.8125H23.6032C25.1162 39.8175 25.1972 41.8485 23.6032 43.9075Z" fill="#C6C6C6"/>
<path d="M32.4683 28.0104H25.6133C25.4283 28.0104 25.2783 27.8604 25.2783 27.6754V25.3584C25.2783 25.1734 25.4283 25.0234 25.6133 25.0234H32.4683C32.6533 25.0234 32.8033 25.1734 32.8033 25.3584V27.6754C32.8033 27.8604 32.6533 28.0104 32.4683 28.0104Z" fill="#B2B2B2"/>
<path d="M27.3045 28.0176C27.3045 28.1536 27.1945 28.2636 27.0585 28.2636C26.9225 28.2636 26.8125 28.1536 26.8125 28.0176V25.0116C26.8125 24.8756 26.9225 24.7656 27.0585 24.7656C27.1945 24.7656 27.3045 24.8756 27.3045 25.0116V28.0176Z" fill="#C6C6C6"/>
<path d="M31.2703 28.0176C31.2703 28.1536 31.1603 28.2636 31.0243 28.2636C30.8883 28.2636 30.7783 28.1536 30.7783 28.0176V25.0116C30.7783 24.8756 30.8883 24.7656 31.0243 24.7656C31.1603 24.7656 31.2703 24.8756 31.2703 25.0116V28.0176Z" fill="#C6C6C6"/>
<path d="M19.5095 37.4288V44.2838C19.5095 44.4688 19.3595 44.6188 19.1745 44.6188H16.8575C16.6725 44.6188 16.5225 44.4688 16.5225 44.2838V37.4288C16.5225 37.2438 16.6725 37.0938 16.8575 37.0938H19.1745C19.3595 37.0938 19.5095 37.2438 19.5095 37.4288Z" fill="#B2B2B2"/>
<path d="M19.5186 42.5938C19.6546 42.5938 19.7646 42.7038 19.7646 42.8398C19.7646 42.9758 19.6546 43.0858 19.5186 43.0858H16.5126C16.3766 43.0858 16.2666 42.9758 16.2666 42.8398C16.2666 42.7038 16.3766 42.5938 16.5126 42.5938H19.5186Z" fill="#C6C6C6"/>
<path d="M19.5186 38.625C19.6546 38.625 19.7646 38.735 19.7646 38.871C19.7646 39.007 19.6546 39.117 19.5186 39.117H16.5126C16.3766 39.117 16.2666 39.007 16.2666 38.871C16.2666 38.735 16.3766 38.625 16.5126 38.625H19.5186Z" fill="#C6C6C6"/>
<path d="M35.0749 48.8125H23.0049V51.5615H35.0749V48.8125Z" fill="#B2B2B2"/>
<path d="M25.157 51.6234C25.157 51.7704 25.037 51.8904 24.89 51.8904C24.743 51.8904 24.623 51.7704 24.623 51.6234V48.7514C24.623 48.6034 24.743 48.4844 24.89 48.4844C25.038 48.4844 25.157 48.6044 25.157 48.7514V51.6234Z" fill="#C6C6C6"/>
<path d="M29.3084 51.6234C29.3084 51.7704 29.1884 51.8904 29.0414 51.8904C28.8934 51.8904 28.7744 51.7704 28.7744 51.6234V48.7514C28.7744 48.6034 28.8944 48.4844 29.0414 48.4844C29.1884 48.4844 29.3084 48.6044 29.3084 48.7514V51.6234Z" fill="#C6C6C6"/>
<path d="M33.4588 51.6234C33.4588 51.7704 33.3388 51.8904 33.1918 51.8904C33.0438 51.8904 32.9248 51.7704 32.9248 51.6234V48.7514C32.9248 48.6034 33.0448 48.4844 33.1918 48.4844C33.3388 48.4844 33.4588 48.6044 33.4588 48.7514V51.6234Z" fill="#C6C6C6"/>
<path d="M51.7535 69.3683C51.7535 71.8323 40.8066 73.8302 27.3036 73.8302C13.7996 73.8302 2.85254 71.8323 2.85254 69.3683C2.85254 66.9043 13.7996 64.9062 27.3036 64.9062C40.8076 64.9062 51.7535 66.9043 51.7535 69.3683Z" fill="#0091A1"/>
<path opacity="0.5" d="M47.9849 67.8594C41.8989 71.6654 26.8599 71.8034 10.2119 71.2834C14.1439 71.9474 19.6439 72.4534 26.6169 72.4534C41.3439 72.4534 49.5929 70.2064 50.0729 69.0334C49.9429 68.6934 49.2259 68.2804 47.9849 67.8594Z" fill="white"/>
<path d="M33.8354 66.7961C41.6022 66.7961 47.8985 65.6472 47.8985 64.2301C47.8985 62.8129 41.6022 61.6641 33.8354 61.6641C26.0687 61.6641 19.7725 62.8129 19.7725 64.2301C19.7725 65.6472 26.0687 66.7961 33.8354 66.7961Z" fill="#0091A1"/>
<path d="M37.7996 61.0318C37.7996 62.1708 32.7376 63.0947 26.4926 63.0947C20.2486 63.0947 15.1855 62.1708 15.1855 61.0318C15.1855 59.8918 20.2476 58.9688 26.4926 58.9688C32.7376 58.9688 37.7996 59.8928 37.7996 61.0318Z" fill="#0091A1"/>
<path d="M21.8768 57.3941C21.8768 57.9351 19.4718 58.3741 16.5058 58.3741C13.5398 58.3741 11.1348 57.9351 11.1348 57.3941C11.1348 56.8531 13.5398 56.4141 16.5058 56.4141C19.4718 56.4141 21.8768 56.8531 21.8768 57.3941Z" fill="#0091A1"/>
<path d="M11.032 62.6448C11.032 62.9278 9.77498 63.1568 8.22498 63.1568C6.67498 63.1568 5.41797 62.9278 5.41797 62.6448C5.41797 62.3618 6.67498 62.1328 8.22498 62.1328C9.77498 62.1318 11.032 62.3618 11.032 62.6448Z" fill="#0091A1"/>
<path d="M40.1449 21.8983H17.9348C10.7948 21.8983 5.00586 16.1103 5.00586 8.96931V1.82031H53.0728V8.96931C53.0738 16.1103 47.2859 21.8983 40.1449 21.8983Z" fill="#C6C6C6"/>
<path opacity="0.75" d="M8.48383 4.79688H6.50781V8.96988C6.50781 15.2129 11.5418 20.2959 17.7638 20.3899C11.4398 17.6769 8.26983 14.7949 8.48383 4.79688Z" fill="white"/>
<path d="M54.6753 1.81999C54.6753 2.82499 53.8603 3.64 52.8553 3.64H5.22626C4.22126 3.64 3.40625 2.82499 3.40625 1.81999C3.40625 0.814992 4.22126 0 5.22626 0H52.8553C53.8603 0 54.6753 0.814992 54.6753 1.81999Z" fill="#EDEDED"/>
<path d="M33.459 21.8984H24.623V24.2884H33.459V21.8984Z" fill="#706F6F"/>
</svg>
