<svg width="68" height="92" viewBox="0 0 68 92" fill="none" xmlns="http://www.w3.org/2000/svg">
<path d="M40.0772 30.6953H27.4082V42.5183H40.0772V30.6953Z" fill="#E8BF93"/>
<path d="M54.5988 64.8416L53.4688 65.5016L53.5388 67.2816L53.7588 72.4816L54.0788 80.2816H13.4088L13.7188 72.6716L13.9488 67.2816L14.0188 65.5016L12.8088 64.7916L4.75879 60.1016L13.1288 41.5716C13.6488 40.8516 14.3088 40.2916 15.0488 39.9016C15.0488 39.8916 15.0488 39.8916 15.0588 39.8916C15.3688 39.7216 15.6988 39.5816 16.0388 39.4816C16.5188 39.2816 17.0288 39.0616 17.5588 38.8416C17.6188 38.8116 17.6888 38.7916 17.7588 38.7616C18.0988 38.6216 18.4488 38.4916 18.7988 38.3516C20.0588 37.8516 21.3788 37.3416 22.5888 36.8816C25.2488 35.8816 27.4088 35.1016 27.4088 35.1016C27.4088 37.5316 30.5788 38.7516 33.7388 38.7516C36.9088 38.7516 40.0788 37.5316 40.0788 35.1016C40.0788 35.1016 42.2388 35.8816 44.8888 36.8816C46.1088 37.3416 47.4188 37.8516 48.6788 38.3516C49.0388 38.4916 49.3788 38.6216 49.7188 38.7616C49.7888 38.7916 49.8588 38.8116 49.9188 38.8416C50.4488 39.0616 50.9588 39.2816 51.4388 39.4816C51.7788 39.5816 52.1088 39.7216 52.4288 39.8916C52.4288 39.8916 52.4388 39.8916 52.4388 39.9016C53.1688 40.2916 53.8388 40.8516 54.3588 41.5716L62.7188 60.1016L54.5988 64.8416Z" fill="#EDEDED"/>
<path d="M14.0192 65.5016L13.6692 72.6716L13.4992 72.6316L0.40918 69.7316L4.75918 60.1016L12.8092 64.7916L14.0192 65.5016Z" fill="#FFD2A1"/>
<path d="M67.0687 69.7316L60.9688 70.9916L53.7588 72.4816L53.5387 67.2816L53.4688 65.5016L54.5988 64.8416L62.7188 60.1016L67.0687 69.7316Z" fill="#FFD2A1"/>
<path d="M54.0792 80.2828H13.4092L13.7192 72.6728L13.9392 67.2828H13.9892C17.1492 67.1228 19.5492 64.3928 19.3092 61.2428L18.8692 55.5928L17.5592 38.8428C17.6192 38.8128 17.6892 38.7928 17.7592 38.7628C18.0992 38.6228 18.4492 38.4928 18.7992 38.3528C20.0592 37.8528 21.3792 37.3428 22.5892 36.8828L24.0392 55.5128H43.4492L44.8892 36.8828C46.1092 37.3428 47.4192 37.8528 48.6792 38.3528C49.0392 38.4928 49.3792 38.6228 49.7192 38.7628C49.7892 38.7928 49.8592 38.8128 49.9192 38.8428L48.7492 53.8428L48.1792 61.2428C47.9292 64.3928 50.3392 67.1228 53.4892 67.2828H53.5492L53.7592 72.4828L54.0792 80.2828Z" fill="#0091A1"/>
<path opacity="0.1" d="M60.9685 70.9947L53.7585 72.4847L54.0785 80.2847H13.4085L13.7185 72.6747L13.9385 67.2847H13.9485L14.0185 65.5047L13.6685 72.6747L13.4985 72.6347L13.5285 72.5147L6.38852 71.0347L4.97852 66.9847C7.70852 66.9747 10.4185 66.4247 12.6885 64.8747C12.6985 64.8847 12.6985 64.8847 12.6985 64.8747C12.7385 64.8447 12.7685 64.8247 12.8085 64.7947C15.6785 62.8047 17.8285 59.1847 18.4685 53.0547C18.6085 53.9147 18.7385 54.7547 18.8685 55.5947C20.3585 65.3547 21.5785 73.5047 33.5385 73.5447H33.7985C46.4785 73.5047 47.0985 64.3547 48.7485 53.8447C48.7885 53.5847 48.8385 53.3147 48.8785 53.0547C49.5285 59.2247 51.6985 62.8547 54.5985 64.8447C54.6185 64.8547 54.6285 64.8647 54.6485 64.8747C54.6485 64.8847 54.6485 64.8847 54.6585 64.8747C56.9285 66.4247 59.6385 66.9747 62.3685 66.9847L60.9685 70.9947Z" fill="#1D1D1B"/>
<path d="M33.742 2.55469C27.224 2.56969 22.053 6.89169 22.586 14.6147C22.648 15.5097 22.754 16.3677 22.936 17.2667C21.48 16.4547 20.218 17.8967 20.742 20.0907C21.111 21.6377 21.879 23.7127 22.739 24.0207C23.77 24.3887 24.079 23.7467 24.139 23.7257C24.612 25.9557 24.811 27.9477 25.615 29.1277C26.566 30.5237 27.298 31.5727 27.979 32.3627C29.523 34.1527 30.798 34.5907 33.725 34.5907C33.731 34.5907 33.736 34.5907 33.742 34.5907C33.748 34.5907 33.753 34.5907 33.759 34.5907C36.685 34.5907 37.961 34.1527 39.505 32.3627C40.186 31.5727 40.919 30.5237 41.869 29.1277C42.672 27.9487 42.871 25.9557 43.345 23.7257C43.404 23.7457 43.713 24.3887 44.745 24.0207C45.605 23.7137 46.373 21.6377 46.742 20.0907C47.266 17.8967 46.004 16.4547 44.548 17.2667C44.73 16.3677 44.836 15.5097 44.898 14.6147C45.431 6.89169 40.26 2.56969 33.742 2.55469Z" fill="#FFD2A1"/>
<path d="M45.364 17.0067C45.364 17.0137 45.357 17.0277 45.357 17.0347V17.0417C44.369 17.5887 43.851 18.3097 43.458 21.2947C42.743 21.4907 42.435 21.5327 41.784 21.7497C42.057 20.6707 42.281 19.6617 42.464 18.7227C43.242 14.6947 43.249 11.8917 42.835 9.93772C42.288 7.35272 41.02 6.24571 39.857 5.72671C39.086 5.38371 38.365 5.29272 37.93 5.20872C36.557 4.93572 30.924 4.93572 29.551 5.20872C28.472 5.42572 25.551 5.63572 24.647 9.93772C24.507 10.5897 24.416 11.3457 24.388 12.2077C24.325 13.9027 24.5 16.0257 25.012 18.6877C25.201 19.6407 25.425 20.6567 25.699 21.7497C25.047 21.5327 24.739 21.4907 24.032 21.2947C23.64 18.3097 23.114 17.5887 22.133 17.0417V17.0347C22.133 17.0277 22.126 17.0137 22.126 17.0067C21.636 14.0927 21.566 11.8297 21.916 9.93772C22.273 7.94072 23.093 6.35772 24.368 4.85872C28.81 -0.381282 40.11 0.451718 43.116 4.85872C44.209 6.45572 45.029 8.01872 45.442 9.93772C45.841 11.8227 45.855 14.0507 45.364 17.0067Z" fill="#936037"/>
<path d="M37.6286 2.56365C38.4566 2.56565 39.4006 2.62165 39.9206 3.26565C40.5656 4.06465 40.1616 5.25665 39.6306 6.13565C37.4806 9.69965 34.1146 13.0117 29.3666 13.1747C29.8856 12.7697 30.7746 11.9626 30.9456 11.2036C28.3886 12.3526 25.4406 12.6087 22.7246 11.9157C23.5586 9.58765 24.4496 7.16765 26.2446 5.46665C27.7026 4.08465 29.6476 3.30265 31.6216 2.92765C33.5956 2.55365 35.6196 2.55865 37.6286 2.56365Z" fill="#936037"/>
<path d="M20.028 36.9048C20.018 36.9228 20.008 36.9428 19.999 36.9608V36.8828C20.008 36.8898 20.018 36.8968 20.028 36.9048Z" fill="#3C3C3B"/>
<path d="M47.2656 36.9048C47.2756 36.9228 47.2856 36.9428 47.2956 36.9608V36.8828C47.2856 36.8898 47.2756 36.8968 47.2656 36.9048Z" fill="#3C3C3B"/>
<path opacity="0.1" d="M45.364 17.0055C45.35 17.0195 45.336 17.0265 45.322 17.0335H45.315C44.362 17.6785 43.423 18.2385 42.464 18.7225C36.789 21.6085 30.974 21.6935 25.012 18.6875C24.073 18.2185 23.134 17.6645 22.182 17.0345H22.175C22.161 17.0275 22.14 17.0135 22.126 17.0065C21.636 14.0925 21.566 11.8295 21.916 9.9375H45.442C45.841 11.8215 45.855 14.0495 45.364 17.0055Z" fill="#1D1D1B"/>
<path d="M35.4613 0H32.0243C26.2292 0 21.5312 4.698 21.5312 10.493L21.7593 14.104C29.8413 12.569 37.5403 12.45 45.7393 13.962L45.9543 10.493C45.9543 4.698 41.2563 0 35.4613 0Z" fill="#0091A1"/>
<path opacity="0.1" d="M31.2073 1.53906C26.6303 1.95306 23.0313 5.80206 23.0283 10.3961L23.1503 12.3291C24.5493 11.2461 25.7183 10.6661 27.1173 10.5181C25.9823 6.33507 27.9783 3.49906 31.2073 1.53906Z" fill="white"/>
<path d="M22.5469 13.7642C22.8179 14.6732 22.8039 14.4272 22.9309 14.7252C23.7159 16.5642 25.6719 17.6902 27.4789 17.3432C28.5739 17.1332 29.5439 16.4592 30.5729 15.9942C31.5789 15.5392 32.6559 15.2882 33.7409 15.2412C34.8259 15.2882 35.9039 15.5392 36.9089 15.9942C37.9379 16.4592 38.9079 17.1332 40.0029 17.3432C41.8109 17.6902 43.7659 16.5652 44.5519 14.7252C44.6789 14.4272 44.6649 14.6732 44.9359 13.7642C41.3929 9.43219 26.2329 9.45419 22.5469 13.7642Z" fill="#009EB0"/>
<path fill-rule="evenodd" clip-rule="evenodd" d="M29.1442 65.4533C29.1422 65.4423 29.1402 65.4313 29.1382 65.4203C28.9742 64.5103 27.9852 63.8513 26.9732 63.9863C23.7082 64.4543 20.5792 65.2053 17.6162 66.1943V69.7243C20.7682 68.6033 24.1322 67.7653 27.6712 67.2863C28.6302 67.1673 29.3092 66.3643 29.1442 65.4533Z" fill="#C1BEA2"/>
<path d="M23.4503 51.3906V84.1026C23.4503 85.7926 22.0803 87.1636 20.3893 87.1636H10.2363V91.3336H21.9693C25.0903 91.3336 27.6203 88.8036 27.6203 85.6826V51.3906H23.4503Z" fill="#706F6F"/>
<path d="M22.7738 51.8281C23.1748 51.8281 23.4999 52.1531 23.4999 52.5541V57.6371C23.4999 58.0381 23.1748 58.3631 22.7738 58.3631C22.3728 58.3631 22.0479 58.0381 22.0479 57.6371V52.5541C22.0479 52.1531 22.3728 51.8281 22.7738 51.8281Z" fill="#C0C0BE"/>
<path d="M28.2992 51.8281C28.7002 51.8281 29.0252 52.1531 29.0252 52.5541V57.6371C29.0252 58.0381 28.7002 58.3631 28.2992 58.3631C27.8982 58.3631 27.5732 58.0381 27.5732 57.6371V52.5541C27.5722 52.1531 27.8982 51.8281 28.2992 51.8281Z" fill="#C0C0BE"/>
<path d="M28.2984 51.3906H22.7734V58.8126H28.2984V51.3906Z" fill="#878787"/>
<path d="M29.0648 50.7059C29.0648 51.1389 28.7138 51.4899 28.2808 51.4899H22.7918C22.3588 51.4899 22.0078 51.1389 22.0078 50.7059C22.0078 50.2729 22.3588 49.9219 22.7918 49.9219H28.2808C28.7138 49.9219 29.0648 50.2729 29.0648 50.7059Z" fill="#C0C0BE"/>
<path d="M25.5356 51.8281C25.9366 51.8281 26.2616 52.1531 26.2616 52.5541V57.6371C26.2616 58.0381 25.9366 58.3631 25.5356 58.3631C25.1346 58.3631 24.8096 58.0381 24.8096 57.6371V52.5541C24.8096 52.1531 25.1346 51.8281 25.5356 51.8281Z" fill="#C0C0BE"/>
<path d="M29.0648 59.5965C29.0648 60.0295 28.7138 60.3805 28.2808 60.3805H22.7918C22.3588 60.3805 22.0078 60.0295 22.0078 59.5965C22.0078 59.1635 22.3588 58.8125 22.7918 58.8125H28.2808C28.7138 58.8125 29.0648 59.1635 29.0648 59.5965Z" fill="#C0C0BE"/>
<path fill-rule="evenodd" clip-rule="evenodd" d="M23.3623 67.5588V67.5278C23.3623 66.6878 24.0433 66.0078 24.8823 66.0078H30.1703C31.0103 66.0078 31.6903 66.6888 31.6903 67.5278V67.5588C31.6903 68.3988 31.0093 69.0788 30.1703 69.0788H24.8823C24.0433 69.0788 23.3623 68.3988 23.3623 67.5588Z" fill="#C1BEA2"/>
<path fill-rule="evenodd" clip-rule="evenodd" d="M23.3623 70.6291V70.5981C23.3623 69.7581 24.0433 69.0781 24.8823 69.0781H30.5453C31.3853 69.0781 32.0653 69.7581 32.0653 70.5981V70.6291C32.0653 71.4691 31.3843 72.1491 30.5453 72.1491H24.8823C24.0433 72.1491 23.3623 71.4691 23.3623 70.6291Z" fill="#C1BEA2"/>
<path fill-rule="evenodd" clip-rule="evenodd" d="M23.3623 73.7072V73.6762C23.3623 72.8362 24.0433 72.1562 24.8823 72.1562H29.6293C30.4693 72.1562 31.1493 72.8362 31.1493 73.6762V73.7072C31.1493 74.5472 30.4683 75.2272 29.6293 75.2272H24.8823C24.0433 75.2272 23.3623 74.5472 23.3623 73.7072Z" fill="#C1BEA2"/>
<path fill-rule="evenodd" clip-rule="evenodd" d="M23.3623 76.5723V76.5453C23.3623 75.7993 23.9663 75.1953 24.7123 75.1953H28.9283C29.6743 75.1953 30.2783 75.7993 30.2783 76.5453V76.5723C30.2783 77.3183 29.6743 77.9223 28.9283 77.9223H24.7123C23.9673 77.9223 23.3623 77.3183 23.3623 76.5723Z" fill="#C1BEA2"/>
<path d="M12.907 67.501C12.907 67.501 7.403 66.334 5.539 66.167C2.492 65.893 0 68.696 0 71.817V71.931C0 75.051 2.496 77.895 5.539 77.581C7.411 77.387 12.907 76.041 12.907 76.041V67.501Z" fill="#FFD2A1"/>
<path fill-rule="evenodd" clip-rule="evenodd" d="M27.2561 67.5588V67.5278C27.2561 66.6878 26.5751 66.0078 25.7361 66.0078H22.6181H22.0631H18.9601C17.6151 66.0078 16.4121 66.6038 15.5921 67.5428L11.7801 67.2618C10.5101 70.1648 10.5691 73.2728 11.7801 76.5578L15.3111 76.0568C16.1211 77.1998 17.4521 77.9478 18.9601 77.9478H22.0631H22.6181H24.7841C25.5301 77.9478 26.1341 77.3428 26.1341 76.5978V76.5708C26.1341 75.8248 25.5301 75.2208 24.7841 75.2208H25.2781C26.1181 75.2208 26.7981 74.5398 26.7981 73.7008V73.6698C26.7981 72.8298 26.1171 72.1498 25.2781 72.1498H25.7361C26.5761 72.1498 27.2561 71.4688 27.2561 70.6298V70.5988C27.2561 69.7588 26.5751 69.0788 25.7361 69.0788C26.5751 69.0788 27.2561 68.3988 27.2561 67.5588Z" fill="#EBE6B9"/>
<path fill-rule="evenodd" clip-rule="evenodd" d="M38.3473 65.4611C38.3493 65.4501 38.3513 65.4391 38.3533 65.4281C38.5173 64.5181 39.5063 63.8591 40.5183 63.9941C43.7833 64.4621 46.9123 65.2131 49.8753 66.2021V69.7321C46.7233 68.6111 43.3583 67.7741 39.8203 67.2941C38.8603 67.1751 38.1813 66.3721 38.3473 65.4611Z" fill="#C1BEA2"/>
<path d="M54.583 67.5088C54.583 67.5088 60.087 66.3418 61.951 66.1748C64.998 65.9008 67.49 68.7048 67.49 71.8248V71.9388C67.49 75.0588 64.994 77.9028 61.951 77.5888C60.079 77.3948 54.583 76.0488 54.583 76.0488V67.5088Z" fill="#FFD2A1"/>
<path d="M46.2188 50.9564V50.9494C46.2138 50.5824 46.1428 50.2094 46.0008 49.8474C45.4548 48.4604 44.0788 47.3554 41.9388 48.0814L38.6438 49.0224C38.1208 49.1724 37.7598 49.6504 37.7598 50.1944V50.6324H42.6978L43.2418 52.4594V56.5844H45.7998L46.1788 51.4774C46.2068 51.3054 46.2208 51.1314 46.2188 50.9564Z" fill="#706F6F"/>
<path d="M43.869 55.9556V52.3666L43.166 50.0036H38.418C38.479 49.8226 38.626 49.6766 38.817 49.6226L42.126 48.6776L42.14 48.6726C42.524 48.5426 42.891 48.4766 43.23 48.4766C44.636 48.4766 45.228 49.5946 45.417 50.0756C45.528 50.3576 45.587 50.6546 45.591 50.9566L45.592 50.9896C45.592 51.1166 45.581 51.2476 45.561 51.3786L45.557 51.4036L45.219 55.9566H43.869V55.9556Z" fill="#9D9D9C"/>
<path d="M38.1447 50.6217C38.1447 50.5157 38.0587 50.4297 37.9527 50.4297C37.8467 50.4297 37.7607 50.5157 37.7607 50.6217C37.7607 50.7277 37.8467 50.8137 37.9527 50.8137C38.0587 50.8137 38.1447 50.7277 38.1447 50.6217Z" fill="#706F6F"/>
<path d="M38.5285 50.6217C38.5285 50.5157 38.4425 50.4297 38.3365 50.4297C38.2305 50.4297 38.1445 50.5157 38.1445 50.6217C38.1445 50.7277 38.2305 50.8137 38.3365 50.8137C38.4425 50.8137 38.5285 50.7277 38.5285 50.6217Z" fill="#706F6F"/>
<path d="M38.9123 50.6217C38.9123 50.5157 38.8263 50.4297 38.7203 50.4297C38.6143 50.4297 38.5283 50.5157 38.5283 50.6217C38.5283 50.7277 38.6143 50.8137 38.7203 50.8137C38.8263 50.8137 38.9123 50.7277 38.9123 50.6217Z" fill="#706F6F"/>
<path d="M39.2971 50.6217C39.2971 50.5157 39.2111 50.4297 39.1051 50.4297C38.9991 50.4297 38.9131 50.5157 38.9131 50.6217C38.9131 50.7277 38.9991 50.8137 39.1051 50.8137C39.2111 50.8137 39.2971 50.7277 39.2971 50.6217Z" fill="#706F6F"/>
<path d="M39.6809 50.6217C39.6809 50.5157 39.5949 50.4297 39.4889 50.4297C39.3829 50.4297 39.2969 50.5157 39.2969 50.6217C39.2969 50.7277 39.3829 50.8137 39.4889 50.8137C39.5959 50.8137 39.6809 50.7277 39.6809 50.6217Z" fill="#706F6F"/>
<path d="M40.0656 50.6217C40.0656 50.5157 39.9796 50.4297 39.8736 50.4297C39.7676 50.4297 39.6816 50.5157 39.6816 50.6217C39.6816 50.7277 39.7676 50.8137 39.8736 50.8137C39.9796 50.8137 40.0656 50.7277 40.0656 50.6217Z" fill="#706F6F"/>
<path d="M40.4494 50.6217C40.4494 50.5157 40.3634 50.4297 40.2574 50.4297C40.1514 50.4297 40.0654 50.5157 40.0654 50.6217C40.0654 50.7277 40.1514 50.8137 40.2574 50.8137C40.3634 50.8137 40.4494 50.7277 40.4494 50.6217Z" fill="#706F6F"/>
<path d="M40.8342 50.6217C40.8342 50.5157 40.7482 50.4297 40.6422 50.4297C40.5362 50.4297 40.4502 50.5157 40.4502 50.6217C40.4502 50.7277 40.5362 50.8137 40.6422 50.8137C40.7482 50.8137 40.8342 50.7277 40.8342 50.6217Z" fill="#706F6F"/>
<path d="M41.218 50.6217C41.218 50.5157 41.132 50.4297 41.026 50.4297C40.92 50.4297 40.834 50.5157 40.834 50.6217C40.834 50.7277 40.92 50.8137 41.026 50.8137C41.132 50.8137 41.218 50.7277 41.218 50.6217Z" fill="#706F6F"/>
<path d="M41.6018 50.6217C41.6018 50.5157 41.5158 50.4297 41.4098 50.4297C41.3038 50.4297 41.2178 50.5157 41.2178 50.6217C41.2178 50.7277 41.3038 50.8137 41.4098 50.8137C41.5158 50.8137 41.6018 50.7277 41.6018 50.6217Z" fill="#706F6F"/>
<path d="M41.9856 50.6217C41.9856 50.5157 41.8996 50.4297 41.7936 50.4297C41.6876 50.4297 41.6016 50.5157 41.6016 50.6217C41.6016 50.7277 41.6876 50.8137 41.7936 50.8137C41.8996 50.8137 41.9856 50.7277 41.9856 50.6217Z" fill="#706F6F"/>
<path d="M42.3703 50.6217C42.3703 50.5157 42.2843 50.4297 42.1783 50.4297C42.0723 50.4297 41.9863 50.5157 41.9863 50.6217C41.9863 50.7277 42.0723 50.8137 42.1783 50.8137C42.2843 50.8137 42.3703 50.7277 42.3703 50.6217Z" fill="#706F6F"/>
<path d="M41.1282 56.5806L40.0582 58.6796C39.8702 59.0486 39.7862 59.4616 39.8152 59.8746L40.6902 72.2176H43.3462V59.3596L43.9592 56.5156L41.1282 56.5806Z" fill="#706F6F"/>
<path d="M43.9543 90.935C43.9573 91.315 44.2663 91.621 44.6463 91.621H44.6603C45.0343 91.621 45.3403 91.324 45.3523 90.951L45.9803 71.508L43.7793 71.5L43.9543 90.935Z" fill="#E94E1B"/>
<path d="M45.6426 56.2633L43.0596 54.3203H38.6016L39.0126 55.6043C39.2166 56.2433 39.6166 56.8013 40.1536 57.2023L43.6736 59.8233L43.7786 71.4993L45.9796 71.5073L46.4196 57.8883C46.4416 57.2513 46.1506 56.6453 45.6426 56.2633Z" fill="#878787"/>
<path d="M38.6021 54.3246H43.0601V52.7266H38.1201V53.2246C38.1201 53.6666 38.3061 54.0676 38.6021 54.3246Z" fill="#706F6F"/>
<path d="M38.3131 52.9153C38.4191 52.9153 38.5051 52.8293 38.5051 52.7233C38.5051 52.6172 38.4191 52.5312 38.3131 52.5312C38.2071 52.5312 38.1211 52.6172 38.1211 52.7233C38.1211 52.8293 38.2071 52.9153 38.3131 52.9153Z" fill="#706F6F"/>
<path d="M38.8889 52.7233C38.8889 52.6173 38.8029 52.5312 38.6969 52.5312C38.5909 52.5312 38.5049 52.6173 38.5049 52.7233C38.5049 52.8293 38.5909 52.9153 38.6969 52.9153C38.8029 52.9153 38.8889 52.8293 38.8889 52.7233Z" fill="#706F6F"/>
<path d="M39.0807 52.9153C39.1867 52.9153 39.2727 52.8293 39.2727 52.7233C39.2727 52.6172 39.1867 52.5312 39.0807 52.5312C38.9746 52.5312 38.8887 52.6172 38.8887 52.7233C38.8887 52.8293 38.9746 52.9153 39.0807 52.9153Z" fill="#706F6F"/>
<path d="M39.6574 52.7233C39.6574 52.6173 39.5714 52.5312 39.4654 52.5312C39.3594 52.5312 39.2734 52.6173 39.2734 52.7233C39.2734 52.8293 39.3594 52.9153 39.4654 52.9153C39.5714 52.9153 39.6574 52.8293 39.6574 52.7233Z" fill="#706F6F"/>
<path d="M39.8492 52.9153C39.9553 52.9153 40.0412 52.8293 40.0412 52.7233C40.0412 52.6172 39.9553 52.5312 39.8492 52.5312C39.7432 52.5312 39.6572 52.6172 39.6572 52.7233C39.6572 52.8293 39.7432 52.9153 39.8492 52.9153Z" fill="#706F6F"/>
<path d="M40.233 52.9153C40.3391 52.9153 40.425 52.8293 40.425 52.7233C40.425 52.6172 40.3391 52.5312 40.233 52.5312C40.127 52.5312 40.041 52.6172 40.041 52.7233C40.041 52.8293 40.127 52.9153 40.233 52.9153Z" fill="#706F6F"/>
<path d="M40.8098 52.7233C40.8098 52.6173 40.7238 52.5312 40.6178 52.5312C40.5118 52.5312 40.4258 52.6173 40.4258 52.7233C40.4258 52.8293 40.5118 52.9153 40.6178 52.9153C40.7238 52.9153 40.8098 52.8293 40.8098 52.7233Z" fill="#706F6F"/>
<path d="M41.0025 52.9153C41.1086 52.9153 41.1945 52.8293 41.1945 52.7233C41.1945 52.6172 41.1086 52.5312 41.0025 52.5312C40.8965 52.5312 40.8105 52.6172 40.8105 52.7233C40.8105 52.8293 40.8965 52.9153 41.0025 52.9153Z" fill="#706F6F"/>
<path d="M41.3863 52.9153C41.4924 52.9153 41.5783 52.8293 41.5783 52.7233C41.5783 52.6172 41.4924 52.5312 41.3863 52.5312C41.2803 52.5312 41.1943 52.6172 41.1943 52.7233C41.1943 52.8293 41.2803 52.9153 41.3863 52.9153Z" fill="#706F6F"/>
<path d="M41.9621 52.7233C41.9621 52.6173 41.8761 52.5312 41.7701 52.5312C41.6641 52.5312 41.5781 52.6173 41.5781 52.7233C41.5781 52.8293 41.6641 52.9153 41.7701 52.9153C41.8761 52.9153 41.9621 52.8293 41.9621 52.7233Z" fill="#706F6F"/>
<path d="M42.1539 52.9153C42.26 52.9153 42.3459 52.8293 42.3459 52.7233C42.3459 52.6172 42.26 52.5312 42.1539 52.5312C42.0479 52.5312 41.9619 52.6172 41.9619 52.7233C41.9619 52.8293 42.0479 52.9153 42.1539 52.9153Z" fill="#706F6F"/>
<path d="M42.7297 52.7233C42.7297 52.6173 42.6437 52.5312 42.5377 52.5312C42.4317 52.5312 42.3457 52.6173 42.3457 52.7233C42.3457 52.8293 42.4317 52.9153 42.5377 52.9153C42.6437 52.9153 42.7297 52.8293 42.7297 52.7233Z" fill="#706F6F"/>
<path d="M40.1488 55.0373C40.1488 55.2263 39.9958 55.3793 39.8068 55.3793C39.6178 55.3793 39.4648 55.2263 39.4648 55.0373C39.4648 54.8483 39.6178 54.6953 39.8068 54.6953C39.9958 54.6953 40.1488 54.8483 40.1488 55.0373Z" fill="#B2B2B2"/>
<path d="M42.5209 55.0373C42.5209 55.2263 42.3679 55.3793 42.1789 55.3793C41.9899 55.3793 41.8369 55.2263 41.8369 55.0373C41.8369 54.8483 41.9899 54.6953 42.1789 54.6953C42.3669 54.6953 42.5209 54.8483 42.5209 55.0373Z" fill="#B2B2B2"/>
<path d="M43.8004 56.8738C43.8004 57.2828 43.4684 57.6148 43.0594 57.6148C42.6504 57.6148 42.3184 57.2828 42.3184 56.8738C42.3184 56.4648 42.6504 56.1328 43.0594 56.1328C43.4684 56.1328 43.8004 56.4648 43.8004 56.8738Z" fill="#B2B2B2"/>
<path d="M42.9082 90.7626C42.9082 91.2346 42.5262 91.6166 42.0542 91.6166C41.5822 91.6166 41.2002 91.2346 41.2002 90.7626V73.0806C41.2002 72.6086 41.5822 72.2266 42.0542 72.2266C42.5262 72.2266 42.9082 72.6086 42.9082 73.0806V90.7626Z" fill="#706F6F"/>
<path d="M42.9922 73.717C42.9922 73.798 42.9262 73.8711 42.8452 73.8801L41.2642 74.0561C41.1832 74.0651 41.1172 74.007 41.1172 73.926C41.1172 73.845 41.1832 73.7721 41.2642 73.7631L42.8452 73.5871C42.9262 73.5771 42.9922 73.635 42.9922 73.717Z" fill="#878787"/>
<path d="M42.9922 74.1864C42.9922 74.2674 42.9262 74.3404 42.8452 74.3494L41.2642 74.5254C41.1832 74.5344 41.1172 74.4764 41.1172 74.3944C41.1172 74.3134 41.1832 74.2404 41.2642 74.2314L42.8452 74.0554C42.9262 74.0474 42.9922 74.1054 42.9922 74.1864Z" fill="#878787"/>
<path d="M42.9922 74.6624C42.9922 74.7434 42.9262 74.8164 42.8452 74.8254L41.2642 75.0014C41.1832 75.0104 41.1172 74.9524 41.1172 74.8714C41.1172 74.7904 41.1832 74.7174 41.2642 74.7084L42.8452 74.5324C42.9262 74.5224 42.9922 74.5814 42.9922 74.6624Z" fill="#878787"/>
<path d="M42.9922 75.1311C42.9922 75.2121 42.9262 75.2851 42.8452 75.2941L41.2642 75.4701C41.1832 75.4791 41.1172 75.4211 41.1172 75.3401C41.1172 75.2591 41.1832 75.1861 41.2642 75.1771L42.8452 75.0011C42.9262 74.9911 42.9922 75.0501 42.9922 75.1311Z" fill="#878787"/>
<path d="M42.9922 75.5997C42.9922 75.6807 42.9262 75.7537 42.8452 75.7627L41.2642 75.9387C41.1832 75.9477 41.1172 75.8897 41.1172 75.8087C41.1172 75.7277 41.1832 75.6547 41.2642 75.6457L42.8452 75.4697C42.9262 75.4607 42.9922 75.5187 42.9922 75.5997Z" fill="#878787"/>
<path d="M42.9922 76.0772C42.9922 76.1582 42.9262 76.2312 42.8452 76.2402L41.2642 76.4162C41.1832 76.4252 41.1172 76.3672 41.1172 76.2852C41.1172 76.2042 41.1832 76.1312 41.2642 76.1222L42.8452 75.9462C42.9262 75.9372 42.9922 75.9962 42.9922 76.0772Z" fill="#878787"/>
<path d="M42.9922 76.5452C42.9922 76.6262 42.9262 76.6992 42.8452 76.7082L41.2642 76.8842C41.1832 76.8932 41.1172 76.8352 41.1172 76.7542C41.1172 76.6732 41.1832 76.6002 41.2642 76.5912L42.8452 76.4152C42.9262 76.4052 42.9922 76.4632 42.9922 76.5452Z" fill="#878787"/>
<path d="M42.9922 77.0145C42.9922 77.0955 42.9262 77.1685 42.8452 77.1775L41.2642 77.3535C41.1832 77.3625 41.1172 77.3045 41.1172 77.2225C41.1172 77.1415 41.1832 77.0685 41.2642 77.0595L42.8452 76.8835C42.9262 76.8755 42.9922 76.9335 42.9922 77.0145Z" fill="#878787"/>
<path d="M42.9922 77.4905C42.9922 77.5715 42.9262 77.6445 42.8452 77.6535L41.2642 77.8295C41.1832 77.8385 41.1172 77.7805 41.1172 77.6995C41.1172 77.6185 41.1832 77.5455 41.2642 77.5365L42.8452 77.3605C42.9262 77.3505 42.9922 77.4095 42.9922 77.4905Z" fill="#878787"/>
<path d="M42.9922 77.96C42.9922 78.041 42.9262 78.114 42.8452 78.123L41.2642 78.299C41.1832 78.308 41.1172 78.25 41.1172 78.168C41.1172 78.087 41.1832 78.014 41.2642 78.005L42.8452 77.829C42.9262 77.82 42.9922 77.879 42.9922 77.96Z" fill="#878787"/>
<path d="M42.9922 78.4278C42.9922 78.5088 42.9262 78.5818 42.8452 78.5908L41.2642 78.7668C41.1832 78.7758 41.1172 78.7178 41.1172 78.6368C41.1172 78.5558 41.1832 78.4828 41.2642 78.4738L42.8452 78.2978C42.9262 78.2888 42.9922 78.3468 42.9922 78.4278Z" fill="#878787"/>
<path d="M42.9922 78.9045C42.9922 78.9855 42.9262 79.0585 42.8452 79.0675L41.2642 79.2435C41.1832 79.2525 41.1172 79.1945 41.1172 79.1135C41.1172 79.0325 41.1832 78.9595 41.2642 78.9505L42.8452 78.7745C42.9262 78.7645 42.9922 78.8235 42.9922 78.9045Z" fill="#878787"/>
<path d="M42.9922 79.3731C42.9922 79.4541 42.9262 79.5271 42.8452 79.5361L41.2642 79.7121C41.1832 79.7211 41.1172 79.6631 41.1172 79.5821C41.1172 79.5011 41.1832 79.4281 41.2642 79.4191L42.8452 79.2431C42.9262 79.2341 42.9922 79.2921 42.9922 79.3731Z" fill="#878787"/>
<path d="M42.9922 79.8497C42.9922 79.9307 42.9262 80.0037 42.8452 80.0127L41.2642 80.1887C41.1832 80.1977 41.1172 80.1397 41.1172 80.0587C41.1172 79.9777 41.1832 79.9047 41.2642 79.8957L42.8452 79.7197C42.9262 79.7107 42.9922 79.7687 42.9922 79.8497Z" fill="#878787"/>
<path d="M42.9922 80.3186C42.9922 80.3996 42.9262 80.4726 42.8452 80.4816L41.2642 80.6576C41.1832 80.6666 41.1172 80.6086 41.1172 80.5276C41.1172 80.4466 41.1832 80.3736 41.2642 80.3646L42.8452 80.1886C42.9262 80.1786 42.9922 80.2376 42.9922 80.3186Z" fill="#878787"/>
<path d="M42.9922 80.7882C42.9922 80.8692 42.9262 80.9422 42.8452 80.9512L41.2642 81.1272C41.1832 81.1362 41.1172 81.0782 41.1172 80.9962C41.1172 80.9152 41.1832 80.8422 41.2642 80.8332L42.8452 80.6572C42.9262 80.6482 42.9922 80.7062 42.9922 80.7882Z" fill="#878787"/>
<path d="M42.9922 81.2645C42.9922 81.3455 42.9262 81.4185 42.8452 81.4275L41.2642 81.6036C41.1832 81.6126 41.1172 81.5546 41.1172 81.4726C41.1172 81.3916 41.1832 81.3185 41.2642 81.3095L42.8452 81.1335C42.9262 81.1255 42.9922 81.1835 42.9922 81.2645Z" fill="#878787"/>
<path d="M42.9922 81.7335C42.9922 81.8145 42.9262 81.8875 42.8452 81.8965L41.2642 82.0725C41.1832 82.0815 41.1172 82.0235 41.1172 81.9415C41.1172 81.8605 41.1832 81.7875 41.2642 81.7785L42.8452 81.6025C42.9262 81.5935 42.9922 81.6525 42.9922 81.7335Z" fill="#878787"/>
<path d="M42.9922 82.2021C42.9922 82.2831 42.9262 82.3561 42.8452 82.3651L41.2642 82.5411C41.1832 82.5501 41.1172 82.4921 41.1172 82.4101C41.1172 82.3291 41.1832 82.2561 41.2642 82.2471L42.8452 82.071C42.9262 82.063 42.9922 82.1211 42.9922 82.2021Z" fill="#878787"/>
<path d="M43.3959 73.6677H40.6219C40.5339 73.6677 40.4619 73.5957 40.4619 73.5077V72.3787C40.4619 72.2907 40.5339 72.2188 40.6219 72.2188H43.3959C43.4839 72.2188 43.5559 72.2907 43.5559 72.3787V73.5077C43.5559 73.5957 43.4849 73.6677 43.3959 73.6677Z" fill="#DADADA"/>
<path d="M40.7611 73.4456C40.7611 73.4976 40.7211 73.5406 40.6711 73.5406C40.6211 73.5406 40.5811 73.4986 40.5811 73.4456V72.4466C40.5811 72.3946 40.6211 72.3516 40.6711 72.3516C40.7211 72.3516 40.7611 72.3936 40.7611 72.4466V73.4456Z" fill="#B2B2B2"/>
<path d="M41.0276 73.4456C41.0276 73.4976 40.9877 73.5406 40.9377 73.5406C40.8877 73.5406 40.8477 73.4986 40.8477 73.4456V72.4466C40.8477 72.3946 40.8877 72.3516 40.9377 72.3516C40.9877 72.3516 41.0276 72.3936 41.0276 72.4466V73.4456Z" fill="#B2B2B2"/>
<path d="M41.2962 73.4456C41.2962 73.4976 41.2562 73.5406 41.2062 73.5406C41.1562 73.5406 41.1162 73.4986 41.1162 73.4456V72.4466C41.1162 72.3946 41.1562 72.3516 41.2062 72.3516C41.2562 72.3516 41.2962 72.3936 41.2962 72.4466V73.4456Z" fill="#B2B2B2"/>
<path d="M41.5638 73.4456C41.5638 73.4976 41.5238 73.5406 41.4738 73.5406C41.4238 73.5406 41.3838 73.4986 41.3838 73.4456V72.4466C41.3838 72.3946 41.4248 72.3516 41.4738 72.3516C41.5238 72.3516 41.5638 72.3936 41.5638 72.4466V73.4456Z" fill="#B2B2B2"/>
<path d="M41.8323 73.4456C41.8323 73.4976 41.7923 73.5406 41.7423 73.5406C41.6923 73.5406 41.6523 73.4986 41.6523 73.4456V72.4466C41.6523 72.3946 41.6923 72.3516 41.7423 72.3516C41.7923 72.3516 41.8323 72.3936 41.8323 72.4466V73.4456Z" fill="#B2B2B2"/>
<path d="M42.0999 73.4456C42.0999 73.4976 42.0599 73.5406 42.0099 73.5406C41.9599 73.5406 41.9199 73.4986 41.9199 73.4456V72.4466C41.9199 72.3946 41.9599 72.3516 42.0099 72.3516C42.0599 72.3516 42.0999 72.3936 42.0999 72.4466V73.4456Z" fill="#B2B2B2"/>
<path d="M42.3675 73.4456C42.3675 73.4976 42.3275 73.5406 42.2775 73.5406C42.2275 73.5406 42.1875 73.4986 42.1875 73.4456V72.4466C42.1875 72.3946 42.2275 72.3516 42.2775 72.3516C42.3275 72.3516 42.3675 72.3936 42.3675 72.4466V73.4456Z" fill="#B2B2B2"/>
<path d="M42.6351 73.4456C42.6351 73.4976 42.5951 73.5406 42.5451 73.5406C42.4951 73.5406 42.4551 73.4986 42.4551 73.4456V72.4466C42.4551 72.3946 42.4951 72.3516 42.5451 72.3516C42.5951 72.3516 42.6351 72.3936 42.6351 72.4466V73.4456Z" fill="#B2B2B2"/>
<path d="M42.9026 73.4456C42.9026 73.4976 42.8627 73.5406 42.8127 73.5406C42.7627 73.5406 42.7227 73.4986 42.7227 73.4456V72.4466C42.7227 72.3946 42.7627 72.3516 42.8127 72.3516C42.8627 72.3516 42.9026 72.3936 42.9026 72.4466V73.4456Z" fill="#B2B2B2"/>
<path d="M43.1712 73.4456C43.1712 73.4976 43.1312 73.5406 43.0812 73.5406C43.0312 73.5406 42.9912 73.4986 42.9912 73.4456V72.4466C42.9912 72.3946 43.0312 72.3516 43.0812 72.3516C43.1312 72.3516 43.1712 72.3936 43.1712 72.4466V73.4456Z" fill="#B2B2B2"/>
<path d="M43.4388 73.4456C43.4388 73.4976 43.3988 73.5406 43.3488 73.5406C43.2988 73.5406 43.2588 73.4986 43.2588 73.4456V72.4466C43.2588 72.3946 43.2988 72.3516 43.3488 72.3516C43.3988 72.3516 43.4388 72.3936 43.4388 72.4466V73.4456Z" fill="#B2B2B2"/>
<path fill-rule="evenodd" clip-rule="evenodd" d="M44.1278 67.5666V67.5356C44.1278 66.6966 43.4468 66.0156 42.6078 66.0156H37.3198C36.4798 66.0156 35.7998 66.6966 35.7998 67.5356V67.5666C35.7998 68.4056 36.4808 69.0866 37.3198 69.0866H42.6078C43.4468 69.0866 44.1278 68.4066 44.1278 67.5666Z" fill="#C1BEA2"/>
<path fill-rule="evenodd" clip-rule="evenodd" d="M44.1278 70.6369V70.6059C44.1278 69.7659 43.4468 69.0859 42.6078 69.0859H36.9448C36.1048 69.0859 35.4248 69.7659 35.4248 70.6059V70.6369C35.4248 71.4759 36.1058 72.1569 36.9448 72.1569H42.6078C43.4468 72.1569 44.1278 71.4769 44.1278 70.6369Z" fill="#C1BEA2"/>
<path fill-rule="evenodd" clip-rule="evenodd" d="M44.1278 73.7151V73.6841C44.1278 72.8451 43.4468 72.1641 42.6078 72.1641H37.8608C37.0208 72.1641 36.3408 72.8451 36.3408 73.6841V73.7151C36.3408 74.5551 37.0218 75.2351 37.8608 75.2351H42.6078C43.4468 75.2351 44.1278 74.5551 44.1278 73.7151Z" fill="#C1BEA2"/>
<path fill-rule="evenodd" clip-rule="evenodd" d="M44.1279 76.5801V76.5531C44.1279 75.8071 43.5239 75.2031 42.7779 75.2031H38.5619C37.8159 75.2031 37.2119 75.8071 37.2119 76.5531V76.5801C37.2119 77.3261 37.8159 77.9301 38.5619 77.9301H42.7779C43.5239 77.9301 44.1279 77.3261 44.1279 76.5801Z" fill="#C1BEA2"/>
<path fill-rule="evenodd" clip-rule="evenodd" d="M40.2334 67.5666V67.5356C40.2334 66.6966 40.9144 66.0156 41.7534 66.0156H44.8714H45.4264H48.5294C49.8744 66.0156 51.0774 66.6116 51.8974 67.5506L55.7094 67.2696C56.9804 70.1726 56.9204 73.2806 55.7094 76.5656L52.1784 76.0646C51.3684 77.2076 50.0374 77.9556 48.5294 77.9556H45.4264H44.8714H42.7064C41.9604 77.9556 41.3564 77.3506 41.3564 76.6056V76.5786C41.3564 75.8326 41.9604 75.2286 42.7064 75.2286H42.2124C41.3724 75.2286 40.6924 74.5476 40.6924 73.7086V73.6776C40.6924 72.8386 41.3734 72.1576 42.2124 72.1576H41.7544C40.9144 72.1576 40.2344 71.4766 40.2344 70.6376V70.6066C40.2344 69.7666 40.9154 69.0866 41.7544 69.0866C40.9144 69.0866 40.2334 68.4066 40.2334 67.5666Z" fill="#EBE6B9"/>
</svg>
