<svg width="105" height="57" viewBox="0 0 105 57" fill="none" xmlns="http://www.w3.org/2000/svg">
<path d="M104.314 18.6484H0V37.5924H104.314V18.6484Z" fill="#DADADA"/>
<path opacity="0.15" d="M102.814 30.9844H1.5V36.0914H102.814V30.9844Z" fill="#1D1D1B"/>
<path opacity="0.75" d="M102.814 20.2578H1.5V23.2678H102.814V20.2578Z" fill="white"/>
<path d="M81.7288 41.238H22.5868C20.3348 41.238 18.5088 39.412 18.5088 37.16V19.078C18.5088 16.826 20.3348 15 22.5868 15H81.7288C83.9808 15 85.8068 16.826 85.8068 19.078V37.16C85.8068 39.412 83.9808 41.238 81.7288 41.238Z" fill="#D94919"/>
<path d="M52.1581 56.242C67.6889 56.242 80.2791 43.6518 80.2791 28.121C80.2791 12.5902 67.6889 0 52.1581 0C36.6273 0 24.0371 12.5902 24.0371 28.121C24.0371 43.6518 36.6273 56.242 52.1581 56.242Z" fill="#E94E1B"/>
<path d="M76.0129 31.9574C78.1341 18.7858 69.176 6.38857 56.0045 4.26736C42.8329 2.14614 30.4357 11.1042 28.3144 24.2758C26.1932 37.4473 35.1513 49.8446 48.3229 51.9658C61.4944 54.087 73.8917 45.1289 76.0129 31.9574Z" fill="#EDEDED"/>
<path d="M68.1274 15.0547H36.1895V23.2647H68.1274V15.0547Z" fill="white"/>
<path d="M68.5834 23.7236H35.7324V14.6016H68.5834V23.7236ZM36.6454 22.8106H67.6714V15.5126H36.6454V22.8106Z" fill="#575756"/>
<path d="M40.8914 16.1953H37.4434V22.1263H40.8914V16.1953Z" fill="#DADADA"/>
<path d="M45.2312 16.1953H41.7832V22.1263H45.2312V16.1953Z" fill="#DADADA"/>
<path d="M49.571 16.1953H46.123V22.1263H49.571V16.1953Z" fill="#DADADA"/>
<path d="M53.9109 16.1953H50.4629V22.1263H53.9109V16.1953Z" fill="#DADADA"/>
<path d="M58.2507 16.1953H54.8027V22.1263H58.2507V16.1953Z" fill="#DADADA"/>
<path d="M62.5906 16.1953H59.1426V22.1263H62.5906V16.1953Z" fill="#DADADA"/>
<path d="M66.9294 16.1953H63.4814V22.1263H66.9294V16.1953Z" fill="#DADADA"/>
<path d="M68.3285 34.111C68.3285 37.901 65.2565 40.972 61.4665 40.972C57.6775 40.972 54.6055 37.9 54.6055 34.111C54.6055 30.322 57.6775 27.25 61.4665 27.25C65.2565 27.25 68.3285 30.322 68.3285 34.111Z" fill="white"/>
<path d="M61.4674 40.4339C61.3394 40.4339 61.2354 40.3299 61.2354 40.2019V28.0289C61.2354 27.9009 61.3394 27.7969 61.4674 27.7969C61.5954 27.7969 61.6994 27.9009 61.6994 28.0289V40.2019C61.6994 40.3299 61.5954 40.4339 61.4674 40.4339Z" fill="#3C3C3B"/>
<path d="M67.5534 34.3468H55.3804C55.2524 34.3468 55.1484 34.2428 55.1484 34.1148C55.1484 33.9868 55.2524 33.8828 55.3804 33.8828H67.5534C67.6814 33.8828 67.7854 33.9868 67.7854 34.1148C67.7854 34.2428 67.6814 34.3468 67.5534 34.3468Z" fill="#3C3C3B"/>
<path d="M65.7719 38.6494C65.7129 38.6494 65.6529 38.6264 65.6079 38.5814L57.0009 29.9744C56.9099 29.8834 56.9099 29.7364 57.0009 29.6464C57.0919 29.5554 57.2389 29.5554 57.3289 29.6464L65.9359 38.2534C66.0269 38.3444 66.0269 38.4914 65.9359 38.5814C65.8899 38.6264 65.8309 38.6494 65.7719 38.6494Z" fill="#3C3C3B"/>
<path d="M57.1639 38.6494C57.1049 38.6494 57.0449 38.6264 56.9999 38.5814C56.9089 38.4904 56.9089 38.3434 56.9999 38.2534L65.6069 29.6464C65.6979 29.5554 65.8449 29.5554 65.9349 29.6464C66.0249 29.7374 66.0259 29.8844 65.9349 29.9744L57.3279 38.5814C57.2829 38.6264 57.2239 38.6494 57.1639 38.6494Z" fill="#3C3C3B"/>
<path d="M66.5036 34.1141C66.5036 36.8961 64.2487 39.1501 61.4677 39.1501C58.6867 39.1501 56.4316 36.8951 56.4316 34.1141C56.4316 31.3331 58.6867 29.0781 61.4677 29.0781C64.2487 29.0781 66.5036 31.3331 66.5036 34.1141Z" fill="white"/>
<path d="M62.2204 35.4898C61.4614 35.9058 60.5084 35.6268 60.0924 34.8678C59.6764 34.1088 59.9554 33.1558 60.7144 32.7398C61.4734 32.3238 62.4264 32.6028 62.8424 33.3618C63.2584 34.1218 62.9794 35.0738 62.2204 35.4898Z" fill="#D94919"/>
<path d="M66.7802 31.2031L61.4922 33.1501L62.2912 34.6101L66.7802 31.2031Z" fill="#D94919"/>
<path d="M53.0697 28.4375H35.5107V30.0155H53.0697V28.4375Z" fill="#878787"/>
<path d="M51.3967 31.8438H35.5107V33.4218H51.3967V31.8438Z" fill="#878787"/>
<path d="M48.1267 35.2578H35.5107V36.8358H48.1267V35.2578Z" fill="#878787"/>
<path d="M50.2408 38.6641H35.5107V40.2421H50.2408V38.6641Z" fill="#878787"/>
<path d="M57.5189 46.4946C57.5189 47.4716 56.7269 48.2626 55.7509 48.2626H48.5649C47.5889 48.2626 46.7969 47.4716 46.7969 46.4946C46.7969 45.5186 47.5889 44.7266 48.5649 44.7266H55.7509C56.7269 44.7266 57.5189 45.5176 57.5189 46.4946Z" fill="#C6C6C6"/>
</svg>
