<svg width="68" height="70" viewBox="0 0 68 70" fill="none" xmlns="http://www.w3.org/2000/svg">
<path d="M53.8346 31.9355C53.5846 31.9355 53.3316 31.8685 53.1026 31.7275C52.4446 31.3225 52.2396 30.4615 52.6436 29.8035L61.2976 15.7295C61.7016 15.0715 62.5636 14.8645 63.2216 15.2705C63.8796 15.6755 64.0846 16.5365 63.6806 17.1945L55.0266 31.2685C54.7626 31.6985 54.3046 31.9355 53.8346 31.9355Z" fill="#9D9D9C"/>
<path d="M62.4906 54.5917C62.0206 54.5917 61.5616 54.3547 61.2976 53.9247L52.6436 39.8507C52.2396 39.1927 52.4446 38.3317 53.1026 37.9267C53.7606 37.5207 54.6226 37.7277 55.0266 38.3857L63.6806 52.4597C64.0846 53.1177 63.8796 53.9787 63.2216 54.3837C62.9936 54.5247 62.7406 54.5917 62.4906 54.5917Z" fill="#9D9D9C"/>
<path d="M57.4196 27.9141H44.8906V41.4911H57.4196V27.9141Z" fill="#C6C6C6"/>
<path d="M31.6205 0H12.9375V69.405H31.6205V0Z" fill="#878787"/>
<path d="M34.0508 16.2247V14.7998C34.0508 13.5128 33.0068 12.4688 31.7198 12.4688H12.8388C11.5518 12.4688 10.5078 13.5128 10.5078 14.7998V54.6008C10.5078 55.8878 11.5518 56.9317 12.8388 56.9317H31.7208C33.0078 56.9317 34.0518 55.8878 34.0518 54.6008V53.1758C34.0518 51.0008 35.4368 49.0668 37.4968 48.3668L43.0038 46.4958C44.1328 46.1118 44.8918 45.0518 44.8918 43.8598V25.5408C44.8918 24.3488 44.1328 23.2888 43.0038 22.9048L37.4968 21.0327C35.4358 20.3337 34.0508 18.3997 34.0508 16.2247Z" fill="#C6C6C6"/>
<path opacity="0.75" d="M42.6993 23.7407C35.8643 25.5657 29.7322 22.7007 32.4082 14.3047C33.8062 16.0137 30.5053 23.0027 42.6993 23.7407Z" fill="white"/>
<path d="M33.1243 46.1716C39.4634 40.1941 39.7565 30.2096 33.779 23.8705C27.8015 17.5314 17.8169 17.2383 11.4779 23.2158C5.13882 29.1933 4.84573 39.1779 10.8232 45.517C16.8007 51.856 26.7853 52.1491 33.1243 46.1716Z" fill="#878787"/>
<path d="M31.6349 42.2821C35.8148 37.1068 35.008 29.5229 29.8328 25.343C24.6576 21.163 17.0737 21.9698 12.8937 27.145C8.71372 32.3203 9.52055 39.9042 14.6958 44.0841C19.871 48.2641 27.4549 47.4573 31.6349 42.2821Z" fill="#DADADA"/>
<path opacity="0.75" d="M16.8894 25.6797C13.8134 27.5227 11.7334 30.8637 11.7334 34.7037C11.7334 38.5437 13.8134 41.8837 16.8894 43.7267C13.5804 37.6437 13.9764 31.6367 16.8894 25.6797Z" fill="white"/>
<path d="M47.6876 25.1484H44.8906V44.2634H47.6876V25.1484Z" fill="#878787"/>
<path d="M64.2375 36.1027H53.8355C53.0635 36.1027 52.4365 35.4767 52.4365 34.7037C52.4365 33.9307 53.0625 33.3047 53.8355 33.3047H64.2375C65.0095 33.3047 65.6365 33.9307 65.6365 34.7037C65.6365 35.4767 65.0105 36.1027 64.2375 36.1027Z" fill="#9D9D9C"/>
<path d="M67.036 55.8959C67.036 58.0129 65.471 59.7289 63.54 59.7289C61.609 59.7289 60.043 58.0129 60.043 55.8959V13.5049C60.043 11.3879 61.608 9.67188 63.54 9.67188C65.471 9.67188 67.036 11.3879 67.036 13.5049V55.8959Z" fill="#878787"/>
</svg>
