<svg width="75" height="71" viewBox="0 0 75 71" fill="none" xmlns="http://www.w3.org/2000/svg">
<path d="M39.171 2.27858C39.035 1.92458 37.152 2.31757 34.964 3.15657C32.777 3.99557 31.114 4.96358 31.25 5.31758C31.386 5.67158 33.269 5.27858 35.457 4.43958C37.644 3.60058 39.307 2.63258 39.171 2.27858Z" fill="#DADADA"/>
<path d="M10.7568 55.6171H9.38477V20.8931C9.38477 14.7781 13.0418 9.33207 18.7008 7.01607L23.2268 5.16406L23.7468 6.43407L19.2208 8.28607C14.0788 10.3891 10.7568 15.3371 10.7568 20.8931V55.6171Z" fill="#C6C6C6"/>
<path d="M36.0016 0.0669883L26.4023 3.75L27.0202 5.36047L36.6195 1.67745L36.0016 0.0669883Z" fill="#878787"/>
<path d="M28.3997 5.31339L22.3027 7.2474C22.1187 7.3054 21.9187 7.2104 21.8517 7.0364L21.4447 5.97439C21.3777 5.80039 21.4627 5.59639 21.6387 5.51639L27.4647 2.87539C27.8237 2.71239 28.2047 2.78638 28.3047 3.04538L28.9107 4.62439C29.0097 4.88439 28.7757 5.19439 28.3997 5.31339Z" fill="#878787"/>
<path d="M38.9594 1.4835C38.3634 0.0505036 36.1224 -0.428507 33.9124 0.419493C31.7024 1.26749 30.3574 3.1225 30.8724 4.5865L38.9594 1.4835Z" fill="#C6C6C6"/>
<path d="M39.171 2.28137L31.25 5.32037L30.873 4.58737L38.96 1.48438L39.171 2.28137Z" fill="#878787"/>
<path d="M8.10267 69.2665C7.63167 69.6585 7.31767 70.0345 7.77467 70.4295C8.23267 70.8245 9.28867 71.0885 9.75867 70.6965C11.0497 69.6795 10.7497 67.2895 12.0397 66.2715C12.5107 65.8795 12.8247 65.5035 12.3677 65.1085C11.9097 64.7135 10.8537 64.4495 10.3837 64.8415C9.09367 65.8585 9.39367 68.2495 8.10267 69.2665Z" fill="#C7E8E8"/>
<path d="M2.69629 50.2686C3.21929 52.0356 3.52929 53.8016 3.62629 55.5686C3.91029 61.4856 6.16829 66.4636 12.2873 66.6156C28.2923 66.9386 44.2973 66.9386 60.3023 66.6156C66.4223 66.4646 68.6803 61.4846 68.9633 55.5686C69.0603 53.8016 70.5903 46.8596 71.8603 44.4086C49.4613 43.9476 25.0953 49.8086 2.69629 50.2686Z" fill="#C6C6C6"/>
<path opacity="0.15" d="M7.12207 62.5625C8.32507 64.2015 10.0591 65.0575 12.3171 65.1135C20.2721 65.2745 28.3391 65.3565 36.2951 65.3565C44.2501 65.3565 52.3171 65.2745 60.2661 65.1135C62.5271 65.0585 64.2621 64.2025 65.4671 62.5625H7.12207Z" fill="#1D1D1B"/>
<path d="M71.4062 44.8176C48.6212 44.3416 24.9012 49.8056 2.11721 50.2816C1.31321 50.2976 0.454211 49.6306 0.123211 48.7906C-0.206789 47.9506 0.142211 47.2486 0.977211 47.2226C24.5222 46.5226 49.5712 40.8046 73.1162 41.5046C73.9522 41.5296 74.6292 42.3666 74.1292 43.6606C74.1292 43.6606 73.9022 44.9766 71.4062 44.8176Z" fill="#EDEDED"/>
<path d="M63.9723 69.2665C64.4433 69.6585 64.7573 70.0345 64.3003 70.4295C63.8423 70.8245 62.7863 71.0885 62.3163 70.6965C61.0263 69.6795 61.3253 67.2895 60.0353 66.2715C59.5643 65.8795 59.2503 65.5035 59.7073 65.1085C60.1653 64.7135 61.2203 64.4495 61.6913 64.8415C62.9813 65.8585 62.6813 68.2495 63.9723 69.2665Z" fill="#C7E8E8"/>
<path d="M63.9723 69.2665C64.4433 69.6585 64.7573 70.0345 64.3003 70.4295C63.8423 70.8245 62.7863 71.0885 62.3163 70.6965C61.0263 69.6795 61.3253 67.2895 60.0353 66.2715C59.5643 65.8795 59.2503 65.5035 59.7073 65.1085C60.1653 64.7135 61.2203 64.4495 61.6913 64.8415C62.9813 65.8585 62.6813 68.2495 63.9723 69.2665Z" fill="#878787"/>
<path d="M8.10267 69.2665C7.63167 69.6585 7.31767 70.0345 7.77467 70.4295C8.23267 70.8245 9.28867 71.0885 9.75867 70.6965C11.0497 69.6795 10.7497 67.2895 12.0397 66.2715C12.5107 65.8795 12.8247 65.5035 12.3677 65.1085C11.9097 64.7135 10.8537 64.4495 10.3837 64.8415C9.09367 65.8585 9.39367 68.2495 8.10267 69.2665Z" fill="#878787"/>
<path opacity="0.5" d="M69.3179 45.8793C68.4079 45.8793 69.3239 45.8663 68.4049 45.8853C64.1619 49.9353 67.6769 59.6223 58.6719 61.3513H66.1869C66.9209 59.8433 67.3499 57.8883 67.4649 55.4823C67.5449 54.0233 68.5359 49.1793 69.6519 45.8783H69.3179V45.8793Z" fill="white"/>
<path opacity="0.5" d="M4.61328 51.7178C4.88428 52.9758 5.05528 54.2408 5.12428 55.4968C5.23928 57.8978 5.66828 59.8498 6.40128 61.3558H10.2963C6.99128 59.7518 6.45428 55.9208 6.49528 51.6328C5.86728 51.6618 5.23628 51.6968 4.61328 51.7178Z" fill="white"/>
</svg>
