<svg width="127" height="153" viewBox="0 0 127 153" fill="none" xmlns="http://www.w3.org/2000/svg">
<path d="M49.0829 141.92C46.8129 137.89 44.7929 133.32 43.0229 128.21C26.9929 81.9605 17.8229 55.3404 15.4929 48.3604C13.1629 41.4004 10.3629 33.3505 7.0929 24.2205C4.0229 15.6605 6.2429 9.83043 13.7729 6.73043C16.2929 5.70043 18.9929 5.63045 21.6029 5.37045C21.8729 5.34045 22.0829 5.12049 22.0929 4.85049C22.1029 4.57049 21.9029 4.34044 21.6329 4.30044L13.0229 3.08047C12.8929 3.06047 12.7729 3.10044 12.6729 3.18044L12.1729 3.62045C12.0229 3.76045 11.8429 3.86044 11.6429 3.93044C7.6529 5.34044 4.9329 8.11044 3.4829 12.2404C2.9029 13.8704 2.8429 15.7505 3.3129 17.9005C3.7529 19.9505 4.2729 21.8305 4.8629 23.5405C22.5529 74.4105 32.7329 103.76 35.4229 111.6C40.2329 125.67 43.5329 134.55 45.3229 138.23C45.7329 139.08 46.6129 140.51 47.9629 142.52C48.0829 142.7 48.3129 142.78 48.5229 142.71L48.8229 142.61C49.1029 142.52 49.2329 142.18 49.0829 141.92ZM64.1929 111.72L64.3829 113.08C64.5129 113.98 65.6529 114.3 66.2329 113.59C66.9429 112.72 67.4829 111.82 67.8629 110.89C71.8229 101.1 76.4329 87.3505 81.6829 69.6505C86.0329 55.0305 90.1329 40.9804 94.0029 27.4904C96.4729 18.8904 96.0729 9.98049 106.563 6.60049C108.553 5.95049 110.343 5.41048 111.923 4.97048C112.123 4.92048 112.163 4.65049 111.983 4.54049C109.743 3.22049 107.573 2.83044 105.483 3.36044C98.4029 5.14044 94.9829 10.0105 93.1729 17.1005C91.5629 23.3805 90.4429 28.0604 88.7129 33.9204C84.5229 48.1204 79.6529 64.9205 74.0829 84.3305C72.5129 89.8305 69.9529 96.8505 66.4029 105.39C65.8529 104.18 66.0329 102.35 66.9429 99.8905C71.4929 87.5805 76.3029 72.0805 81.3529 53.4105C82.9629 47.4905 84.2529 42.8704 85.2429 39.5504C87.0729 33.4004 88.4029 28.7805 89.2529 25.6905C90.7829 20.0905 92.6629 15.3605 94.3329 9.10049C94.4229 8.75049 94.5829 8.42047 94.8029 8.14047C97.1929 4.99047 99.4929 3.08047 101.693 2.39047C108.853 0.160465 115.073 1.52048 120.353 6.47048C120.763 6.86048 120.413 7.55044 119.853 7.43044C119.783 7.42044 119.723 7.41048 119.693 7.40048C119.433 7.34048 119.223 7.62049 119.353 7.85049C123.223 14.7205 121.273 20.7004 118.373 27.7505C115.053 35.8505 110.663 48.6405 107.483 59.0305C103.573 71.8205 99.8229 83.1405 96.2329 93.0005C91.1729 106.93 87.7129 118.77 82.5029 132.74C79.6429 140.43 72.9229 147.46 64.3229 147.85C57.7329 148.14 52.9329 147.56 48.2329 142.91C47.6629 142.34 46.6729 142.8 46.9429 143.51C47.0329 143.75 47.0129 143.92 46.8729 144.02C46.6729 144.16 46.3929 144.12 46.2529 143.92C44.3829 141.39 43.0529 139.04 42.2429 136.85C38.7329 127.36 33.8229 113.49 27.5229 95.2205C16.9229 64.5105 10.1329 45.0804 7.1429 36.9304C6.9729 36.4604 6.8129 36.0004 6.6629 35.5504C6.0329 33.6504 4.6029 29.5905 2.3929 23.3805C1.6829 21.3705 1.4229 17.7805 1.6129 12.6005C1.6229 12.3805 1.71291 12.1705 1.88291 12.0305C2.15291 11.8005 2.34289 11.4705 2.43289 11.0405C3.08289 8.02049 4.3929 5.82046 6.3629 4.45046C7.5329 3.63046 8.2229 3.19045 8.4229 3.12045C12.5829 1.81045 16.9329 1.39049 21.4829 1.85049C25.1829 2.23049 28.6129 4.41045 30.2129 7.62045C30.3629 7.93045 30.2229 8.29048 29.9029 8.41048C29.8129 8.44048 29.5529 8.38047 29.1329 8.21047C28.8729 8.11047 28.6129 8.35045 28.6929 8.62045C32.5529 21.6404 34.8329 30.1204 38.9329 41.5504C39.5429 43.2704 41.2829 48.5804 44.1329 57.4804C51.2129 79.5304 56.6929 96.0505 60.5629 107.04C60.6829 107.37 61.6029 109.78 63.3229 114.26C63.3429 114.32 63.4029 114.36 63.4629 114.35L64.0629 114.26C64.1829 114.24 64.2529 114.13 64.2229 114.02C64.0229 113.21 64.0129 112.44 64.1929 111.72Z" fill="#9EC748"/>
<path d="M66.4037 105.392L64.1937 111.722C64.0137 112.442 64.0237 113.212 64.2237 114.022C64.2537 114.132 64.1837 114.242 64.0637 114.262L63.4637 114.352C63.4037 114.362 63.3437 114.322 63.3237 114.262C61.6037 109.782 60.6837 107.372 60.5637 107.042C56.6937 96.0519 51.2137 79.5318 44.1337 57.4818C41.2837 48.5819 39.5437 43.2719 38.9337 41.5519C34.8337 30.1219 32.5537 21.6419 28.6937 8.62186C28.6137 8.35186 28.8737 8.11189 29.1337 8.21189C29.5537 8.38189 29.8137 8.4419 29.9037 8.4119C30.2237 8.2919 30.3637 7.93186 30.2137 7.62186C28.6137 4.41186 25.1837 2.23191 21.4837 1.85191C16.9337 1.39191 12.5837 1.81186 8.42374 3.12186C8.22374 3.19186 7.53374 3.63188 6.36374 4.45188C4.39374 5.82188 3.08373 8.02191 2.43373 11.0419C2.34373 11.4719 2.15374 11.8019 1.88374 12.0319C1.71374 12.1719 1.62374 12.3819 1.61374 12.6019C1.42374 17.7819 1.68374 21.3719 2.39374 23.3819C4.60374 29.5919 6.03374 33.6519 6.66374 35.5519C6.81374 36.0019 6.97374 36.4619 7.14374 36.9319C10.1337 45.0819 16.9237 64.5119 27.5237 95.2219C33.8237 113.492 38.7337 127.362 42.2437 136.852C43.0537 139.042 44.3837 141.392 46.2537 143.922C46.3937 144.122 46.6737 144.162 46.8737 144.022C47.0137 143.922 47.0337 143.752 46.9437 143.512C46.6737 142.802 47.6637 142.342 48.2337 142.912C52.9337 147.562 57.7337 148.142 64.3237 147.852C72.9237 147.462 79.6437 140.432 82.5037 132.742C87.7137 118.772 91.1737 106.932 96.2337 93.0019C99.8237 83.1419 103.574 71.8219 107.484 59.0319C110.664 48.6419 115.054 35.8519 118.374 27.7519C121.274 20.7019 123.224 14.7219 119.354 7.85191C119.224 7.62191 119.434 7.34189 119.694 7.40189C119.724 7.41189 119.784 7.42186 119.854 7.43186C120.414 7.55186 120.764 6.8619 120.354 6.4719C115.074 1.5219 108.854 0.161884 101.694 2.39188C99.4937 3.08188 97.1937 4.99188 94.8037 8.14188C94.5837 8.42188 94.4237 8.75191 94.3337 9.10191C92.6637 15.3619 90.7837 20.0919 89.2537 25.6919C88.4037 28.7819 87.0737 33.4019 85.2437 39.5519C84.2537 42.8719 82.9637 47.4919 81.3537 53.4119C76.3037 72.0819 71.4937 87.5819 66.9437 99.8919C66.0337 102.352 65.8537 104.182 66.4037 105.392ZM126.084 17.3019C125.634 20.9819 124.874 24.3019 123.804 27.2719C119.024 40.4719 114.494 53.0019 109.984 66.6219C102.934 87.8919 95.9837 108.482 89.1337 128.372C85.7637 138.172 82.8037 145.112 73.8937 150.492C67.0437 153.562 60.2237 153.692 53.4137 150.872C43.2437 146.652 40.5837 137.232 37.0637 127.002C25.5337 93.5119 13.5437 58.9919 1.11374 23.4619C-1.98626 14.5819 1.34373 3.18189 11.6237 0.961891C18.5937 -0.538109 25.9037 0.0218644 30.6637 5.62186C31.6737 6.81186 32.7738 9.26185 33.9538 12.9818C39.1238 29.2818 48.7237 58.9019 62.7637 101.852C62.9537 102.462 63.1137 103.002 63.2437 103.482C63.3937 104.052 64.1937 104.092 64.3937 103.532C68.5537 91.7419 72.3637 79.9119 75.8237 68.0619C76.1437 66.9519 80.8137 50.4519 89.8437 18.5719C91.1237 14.0419 92.2037 9.16186 95.2537 5.87186C99.5937 1.20186 104.774 -0.688099 110.784 0.221901C120.024 1.6119 125.124 7.31186 126.084 17.3019Z" fill="#699D24"/>
<path d="M49.0835 141.923C49.2335 142.183 49.1035 142.523 48.8235 142.613L48.5235 142.713C48.3135 142.783 48.0835 142.703 47.9635 142.523C46.6135 140.513 45.7335 139.083 45.3235 138.233C43.5335 134.553 40.2335 125.673 35.4235 111.603C32.7335 103.763 22.5535 74.4132 4.86348 23.5432C4.27348 21.8332 3.75347 19.9532 3.31347 17.9032C2.84347 15.7532 2.90347 13.8732 3.48347 12.2432C4.93347 8.1132 7.65347 5.3432 11.6435 3.9332C11.8435 3.8632 12.0235 3.7632 12.1735 3.6232L12.6735 3.1832C12.7735 3.1032 12.8935 3.06322 13.0235 3.08322L21.6335 4.30319C21.9035 4.34319 22.1035 4.57324 22.0935 4.85324C22.0835 5.12324 21.8735 5.3432 21.6035 5.3732C18.9935 5.6332 16.2935 5.70319 13.7735 6.73319C6.24348 9.83319 4.02347 15.6632 7.09347 24.2232C10.3635 33.3532 13.1635 41.4032 15.4935 48.3632C17.8235 55.3432 26.9935 81.9632 43.0235 128.213C44.7935 133.323 46.8135 137.893 49.0835 141.923Z" fill="#C5D971"/>
<path d="M64.1934 111.722L66.4034 105.392C69.9534 96.8516 72.5133 89.8316 74.0833 84.3316C79.6533 64.9216 84.5233 48.1216 88.7133 33.9216C90.4433 28.0616 91.5634 23.3816 93.1734 17.1016C94.9834 10.0116 98.4034 5.14156 105.483 3.36156C107.573 2.83156 109.743 3.22161 111.983 4.54161C112.163 4.65161 112.123 4.9216 111.923 4.9716C110.343 5.4116 108.553 5.95161 106.563 6.60161C96.0734 9.98161 96.4734 18.8916 94.0034 27.4916C90.1334 40.9816 86.0333 55.0316 81.6833 69.6516C76.4333 87.3516 71.8233 101.102 67.8633 110.892C67.4833 111.822 66.9434 112.722 66.2334 113.592C65.6534 114.302 64.5134 113.982 64.3834 113.082L64.1934 111.722Z" fill="#C5D971"/>
</svg>
