<svg width="41" height="47" viewBox="0 0 41 47" fill="none" xmlns="http://www.w3.org/2000/svg">
<path d="M22.39 0C28.987 0 34.416 2.179 38.271 5.924C42.731 10.258 39.532 17.849 33.313 17.849C31.281 17.849 29.272 17.096 27.902 15.595C26.442 13.996 24.419 13.115 22.134 13.115C17.336 13.115 14.394 17.017 14.394 23.031C14.394 29.045 17.336 32.947 22.134 32.947C24.419 32.947 26.443 32.066 27.902 30.466C29.272 28.966 31.28 28.213 33.312 28.213C39.531 28.213 42.731 35.804 38.271 40.138C34.416 43.884 28.987 46.062 22.39 46.062C8.508 46.062 0 36.53 0 23.031C0 9.533 8.508 0 22.39 0Z" fill="#C33300"/>
<path d="M11.7676 3.86903C6.62462 6.55403 3.39163 11.653 3.03363 17.426C2.95163 18.753 5.01663 18.748 5.09863 17.426C5.41263 12.36 8.32663 7.99302 12.8096 5.65202C13.9886 5.03702 12.9456 3.25503 11.7676 3.86903Z" fill="white"/>
</svg>
