<svg width="127" height="159" viewBox="0 0 127 159" fill="none" xmlns="http://www.w3.org/2000/svg">
<path d="M34.9436 62.0341C36.2336 63.9041 38.9436 64.9441 43.0736 65.1541C60.3836 66.0141 78.5136 65.4241 94.9736 65.3041C95.1536 65.3041 95.3436 65.2541 95.5036 65.1641C96.8536 64.4141 97.5336 63.3441 97.5636 61.9441C97.6836 56.0141 97.5636 46.2041 97.2036 32.4941C96.8836 25.2041 97.0136 19.5841 97.5836 15.6341C98.0336 12.4841 99.6536 9.85412 102.434 7.74412C104.064 6.50412 106.144 5.54412 108.674 4.87412C109.024 4.78412 109.024 4.27413 108.664 4.19413C103.654 3.06413 99.5736 4.33411 96.9336 8.61411C95.5836 10.8041 94.8936 12.2641 94.8636 13.0141C94.7336 16.2441 94.6936 19.4741 94.7236 22.6941L94.2236 60.5241C94.2136 61.2941 93.6336 61.9241 92.8836 62.0141C90.7336 62.2641 88.6136 62.1641 86.5236 61.7141C86.2736 61.6641 86.0136 61.6341 85.7536 61.6341L81.1936 61.6241L89.6936 61.5241C91.4136 61.5041 92.7936 60.0841 92.7736 58.3641C92.6536 47.4841 92.5836 33.8541 92.5636 17.4641C92.5536 12.9741 93.6036 9.33414 95.7036 6.54414C98.0036 3.49414 101.504 1.85413 106.204 1.60413C106.484 1.59413 106.764 1.53412 107.034 1.43412C111.004 -0.0358794 116.974 2.56413 119.904 5.10413C120.244 5.39413 120.254 5.69413 119.924 6.00413C119.744 6.17413 119.714 6.45413 119.844 6.66413C121.584 9.50413 122.454 13.2041 122.444 17.7641C122.404 50.6041 122.384 91.7041 122.384 141.074C122.374 142.904 121.584 145.074 120.014 147.584C116.664 152.894 109.444 154.184 103.654 152.854C101.744 152.414 100.234 151.594 99.1236 150.394L98.2636 149.184C98.4136 149.214 98.5536 149.214 98.6836 149.164C98.8536 149.104 98.9336 148.924 98.8736 148.754C97.8036 145.864 97.2436 143.694 97.1936 142.254C97.0636 137.634 97.0836 127.554 97.2636 112.004C97.3536 104.354 97.1236 97.9841 96.5836 92.8941C96.5136 92.2641 96.0736 92.1541 95.2636 92.5541C95.1936 92.4741 95.1536 92.3841 95.1236 92.2941C95.0836 92.1741 94.9736 92.0941 94.8536 92.0941H32.5136C31.9836 92.0941 31.5636 92.5141 31.5536 93.0441C31.4436 103.074 31.4736 116.724 31.6536 133.994C31.6636 135.484 31.2936 138.484 30.5336 142.994C30.4836 143.304 30.3836 143.614 30.2536 143.914C26.8636 151.524 20.8236 154.434 12.1436 152.644C10.5436 152.314 9.06359 151.414 7.70359 149.964C7.02359 149.294 6.4636 148.514 6.0336 147.644C5.9936 147.564 6.04359 147.454 6.13359 147.444C6.23359 147.424 6.29359 147.414 6.30359 147.414C6.51359 147.324 6.64359 147.104 6.61359 146.884C5.69359 139.714 6.30359 131.614 6.33359 123.884C6.46359 87.8341 6.5636 51.7741 6.6436 15.7041C7.3136 9.49414 11.0036 8.16412 15.7436 5.49412C17.0836 4.74412 18.7036 4.36413 20.6136 4.35413C20.8136 4.35413 20.8636 4.08413 20.6836 4.00413C18.9736 3.25413 17.7036 2.98414 16.8736 3.20414C15.2536 3.63414 13.7836 3.88413 12.4736 3.94413C12.1236 3.95413 11.7736 4.03413 11.4436 4.16413C6.67359 6.07413 3.92359 9.75412 3.19359 15.2141C2.29359 16.1641 1.82359 17.8641 1.77359 20.2941C0.613594 10.6241 3.94359 4.50414 11.7636 1.95414C15.6336 0.70414 19.1536 0.554138 22.3436 1.51414C26.0636 2.63414 28.9536 4.63412 31.0236 7.52412C31.5236 8.22412 31.5236 8.76412 31.0336 9.15412C30.8636 9.28412 30.7636 9.49414 30.7736 9.70414C30.8136 11.8941 31.4836 14.8341 31.4836 17.4341C31.4936 23.9741 31.4936 38.6941 31.4936 61.5841C31.5036 61.9141 31.8036 62.1641 32.1236 62.1041C33.2436 61.8841 34.1836 61.8641 34.9436 62.0341Z" fill="#48C0AD"/>
<path d="M1.77268 20.2922C1.82268 60.6622 1.85268 101.022 1.88268 141.372C1.89268 144.372 3.27268 147.922 6.02268 152.032C6.19268 152.282 6.58268 152.242 6.69268 151.962C6.78268 151.752 6.70268 151.432 6.47268 151.002C6.26268 150.632 6.32268 150.312 6.65268 150.052C6.90268 149.862 7.25268 149.832 7.70268 149.962C9.06268 151.412 10.5427 152.312 12.1427 152.642C20.8227 154.432 26.8627 151.522 30.2527 143.912C30.3827 143.612 30.4827 143.302 30.5327 142.992C31.2927 138.482 31.6627 135.482 31.6527 133.992C31.4727 116.722 31.4427 103.072 31.5527 93.0422C31.5627 92.5122 31.9827 92.0922 32.5127 92.0922H94.8527C94.9727 92.0922 95.0827 92.1722 95.1227 92.2922C95.1527 92.3822 95.1927 92.4722 95.2627 92.5522C94.8127 92.8822 94.4327 93.3322 94.1327 93.9122C93.0927 94.8622 92.5727 95.8722 92.5727 96.9422C92.5827 108.412 92.5927 122.132 92.6127 138.102C92.6227 142.072 93.5027 145.142 94.8827 148.672C95.4127 150.042 96.8227 150.612 99.1227 150.392C100.233 151.592 101.743 152.412 103.653 152.852C109.443 154.182 116.663 152.892 120.013 147.582C121.583 145.072 122.373 142.902 122.383 141.072C122.383 91.7022 122.403 50.6022 122.443 17.7622C122.453 13.2022 121.583 9.50223 119.843 6.66223C119.713 6.45223 119.743 6.17223 119.923 6.00223C120.253 5.69223 120.243 5.39223 119.903 5.10223C116.973 2.56223 111.003 -0.037779 107.033 1.43222C106.763 1.53222 106.483 1.59223 106.203 1.60223C101.503 1.85223 98.0027 3.49224 95.7027 6.54224C93.6027 9.33224 92.5527 12.9722 92.5627 17.4622C92.5827 33.8522 92.6527 47.4822 92.7727 58.3622C92.7927 60.0822 91.4127 61.5022 89.6927 61.5222L81.1927 61.6222C66.1127 61.3922 53.9627 61.3122 44.7527 61.3722C42.2327 61.3822 38.9627 61.6022 34.9427 62.0322C34.1827 61.8622 33.2427 61.8822 32.1227 62.1022C31.8027 62.1622 31.5027 61.9122 31.4927 61.5822C31.4927 38.6922 31.4927 23.9722 31.4827 17.4322C31.4827 14.8322 30.8127 11.8922 30.7727 9.70224C30.7627 9.49224 30.8627 9.28222 31.0327 9.15222C31.5227 8.76222 31.5227 8.22222 31.0227 7.52222C28.9527 4.63222 26.0627 2.63224 22.3427 1.51224C19.1527 0.552238 15.6327 0.702241 11.7627 1.95224C3.94268 4.50224 0.612683 10.6222 1.77268 20.2922ZM35.8827 19.8022L35.9827 58.9922C35.9927 59.3322 36.2627 59.6022 36.6027 59.5922L41.0127 59.5122H90.4127C90.7327 59.5122 90.9927 59.2522 90.9927 58.9322C90.9627 45.3122 90.9827 31.5822 91.0727 17.7522C91.1127 10.1522 95.0527 3.08221 102.473 0.832215C105.353 -0.0377851 108.773 -0.227783 112.733 0.272217C119.453 1.12222 124.773 6.13222 126.223 12.5522C127.143 16.6422 126.883 21.6622 126.883 26.3722C126.853 63.6622 126.863 100.942 126.893 138.222C126.863 142.292 126.453 145.292 125.653 147.222C122.203 155.512 115.903 159.162 106.753 158.172C105.613 158.052 103.653 157.462 100.873 156.402C96.3427 153.622 93.3127 149.572 91.7827 144.242C91.2627 142.462 91.0027 139.482 91.0127 135.292C91.0227 124.012 91.0227 112.732 90.9927 101.462L91.0027 97.1022C91.0027 96.7022 90.6827 96.3722 90.2827 96.3722H36.7127C36.3027 96.3722 35.9727 96.7022 35.9727 97.1122C36.0027 114.132 35.9827 127.432 35.9027 137.002C35.8727 141.342 35.4827 144.392 34.7327 146.142C30.7627 155.432 23.6627 159.412 13.4327 158.102C3.94268 155.622 0.122683 147.762 0.132683 138.622C0.142683 79.8122 0.102679 41.5122 0.00267854 23.7222C-0.0573215 13.0922 0.812681 5.25224 10.6227 1.17224C13.2327 0.0922418 16.5827 -0.177786 20.6927 0.362214C31.0027 1.73221 36.0627 8.21222 35.8827 19.8022Z" fill="#089B87"/>
<path d="M94.1323 93.9141C94.3623 94.7241 94.4923 95.5041 94.5023 96.2541C94.8123 117.754 94.9623 131.504 94.9423 137.504C94.9223 142.134 96.0323 146.024 98.2623 149.184L99.1223 150.394C96.8223 150.614 95.4123 150.044 94.8823 148.674C93.5023 145.144 92.6223 142.074 92.6123 138.104C92.5923 122.134 92.5823 108.414 92.5723 96.9441C92.5723 95.8741 93.0923 94.8641 94.1323 93.9141Z" fill="#25BEB9"/>
<path d="M3.19344 15.2109C4.28344 15.7409 5.43344 15.901 6.64344 15.701C6.56344 51.771 6.46344 87.831 6.33344 123.881C6.30344 131.611 5.69343 139.711 6.61343 146.881C6.64343 147.101 6.51344 147.321 6.30344 147.411C6.29344 147.411 6.23344 147.421 6.13344 147.441C6.04344 147.451 5.99344 147.561 6.03344 147.641C6.46344 148.511 7.02344 149.291 7.70344 149.961C7.25344 149.831 6.90343 149.861 6.65343 150.051C6.32343 150.311 6.26343 150.631 6.47343 151.001C6.70343 151.431 6.78344 151.751 6.69344 151.961C6.58344 152.241 6.19344 152.281 6.02344 152.031C3.27344 147.921 1.89344 144.371 1.88344 141.371C1.85344 101.021 1.82344 60.661 1.77344 20.291C1.82344 17.861 2.29344 16.1609 3.19344 15.2109Z" fill="#7AD3CB"/>
<path d="M97.2034 32.4953C97.5634 46.2053 97.6834 56.0153 97.5634 61.9453C97.5334 63.3453 96.8534 64.4153 95.5034 65.1653C95.3434 65.2553 95.1534 65.3053 94.9734 65.3053C78.5134 65.4253 60.3834 66.0153 43.0734 65.1553C38.9434 64.9453 36.2334 63.9053 34.9434 62.0353C38.9634 61.6053 42.2334 61.3853 44.7534 61.3753C53.9634 61.3153 66.1134 61.3953 81.1934 61.6253L85.7534 61.6353C86.0134 61.6353 86.2734 61.6653 86.5234 61.7153C88.6134 62.1653 90.7334 62.2653 92.8834 62.0153C93.6334 61.9253 94.2134 61.2953 94.2234 60.5253L94.7234 22.6953L97.2034 32.4953Z" fill="#7AD3CB"/>
<path d="M98.2628 149.185C96.0328 146.025 94.9228 142.135 94.9428 137.505C94.9628 131.505 94.8128 117.755 94.5028 96.255C94.4928 95.505 94.3628 94.725 94.1328 93.915C94.4328 93.335 94.8128 92.885 95.2628 92.555C96.0728 92.155 96.5128 92.265 96.5828 92.895C97.1228 97.985 97.3528 104.355 97.2628 112.005C97.0828 127.555 97.0628 137.635 97.1928 142.255C97.2428 143.695 97.8028 145.865 98.8728 148.755C98.9328 148.925 98.8528 149.105 98.6828 149.165C98.5528 149.215 98.4128 149.215 98.2628 149.185Z" fill="#7AD3CB"/>
</svg>
