<svg width="81" height="159" viewBox="0 0 81 159" fill="none" xmlns="http://www.w3.org/2000/svg">
<path d="M21.5324 4.80478C21.6724 4.81478 21.8024 4.72478 21.8424 4.58478C21.8824 4.45478 21.8124 4.30478 21.6824 4.24478C18.0624 2.58478 14.3924 2.62478 10.6824 4.36478C6.0424 6.53478 3.70238 10.3248 3.66238 15.7148C3.62238 20.4348 3.68243 27.8348 3.83243 37.9048C3.91243 42.7748 4.2124 47.2848 4.0524 51.9048C3.9024 56.1548 3.82242 59.6548 3.82242 62.4048C3.79242 82.9148 3.90243 108.445 4.14243 138.985C4.14243 139.295 4.3724 139.555 4.6824 139.595C4.9924 139.635 5.29241 139.445 5.37241 139.145C5.83241 137.485 6.0724 135.785 6.0524 133.795C5.6824 94.9048 5.87241 56.1448 6.62241 17.5348C6.71241 12.6848 8.60239 9.18479 12.2924 7.03479C15.3624 5.24479 18.4424 4.49478 21.5324 4.80478ZM19.5024 0.114776C18.2624 0.724776 18.8224 1.11479 21.1924 1.28479C23.4224 1.43479 26.1724 2.91478 29.4224 5.71478C29.6524 5.91478 29.7424 6.24477 29.6324 6.54477C29.4924 6.93477 29.4924 7.26479 29.6324 7.53479C31.9024 12.0148 31.6924 17.2548 31.7224 22.3948C31.9524 60.9748 31.9324 94.6848 31.6824 123.515C31.6724 123.775 31.9024 123.995 32.1624 123.975C36.6124 123.695 42.6224 123.545 50.1824 123.525C55.9624 123.515 61.0624 123.855 65.4824 124.545C69.7424 125.215 72.7324 127.355 74.4524 130.965C75.9424 134.105 76.3924 137.105 75.7924 139.955C73.8324 149.315 68.3424 152.835 58.9424 152.855C31.4924 152.905 16.9024 152.925 15.1824 152.915C12.4124 152.895 9.82239 151.895 7.42239 149.915C7.19239 149.735 6.92242 149.595 6.63242 149.515C6.28242 149.425 5.84243 149.545 5.33243 149.865C5.06243 150.035 4.70242 149.965 4.51242 149.705C3.36242 148.135 2.71241 146.585 2.56241 145.075C2.50241 144.455 1.93244 144.015 1.34244 144.125C1.17244 144.155 0.99244 144.345 0.78244 144.675C0.44244 142.725 0.122416 140.965 0.132416 138.945C0.242416 119.035 0.242435 99.1248 0.152435 79.2248C0.622435 60.3148 0.572411 41.3948 0.00241071 22.4648C-0.0275893 18.0948 0.222411 14.8348 0.752411 12.6648C3.02241 3.41476 9.27241 -0.765224 19.5024 0.114776Z" fill="#00ABE0"/>
<path d="M36.3032 17.4409V120.461C36.3032 120.791 36.5732 121.061 36.9032 121.071L43.3732 121.181C48.6632 121.231 53.9432 121.301 59.1932 121.381C63.2432 121.431 67.7032 121.741 71.1132 123.761C78.0432 127.861 81.4331 134.081 80.1031 142.281C79.0131 146.361 77.6831 149.451 76.1031 151.551C72.6931 156.071 67.8032 158.311 61.4332 158.281C48.1032 158.211 34.7732 158.161 21.4432 158.141C18.3732 158.131 15.4132 157.841 12.5432 157.251C6.43315 154.861 2.5132 150.661 0.783203 144.671C0.993203 144.341 1.1732 144.151 1.3432 144.121C1.9332 144.011 2.50317 144.451 2.56317 145.071C2.71317 146.581 3.36318 148.131 4.51318 149.701C4.70318 149.961 5.06319 150.031 5.33319 149.861C5.84319 149.541 6.28318 149.421 6.63318 149.511C6.92318 149.591 7.19316 149.731 7.42316 149.911C9.82316 151.891 12.4132 152.891 15.1832 152.911C16.9032 152.921 31.4932 152.901 58.9432 152.851C68.3432 152.831 73.8332 149.311 75.7932 139.951C76.3932 137.101 75.9432 134.101 74.4532 130.961C72.7332 127.351 69.7432 125.211 65.4832 124.541C61.0632 123.851 55.9632 123.511 50.1832 123.521C42.6232 123.541 36.6131 123.691 32.1631 123.971C31.9031 123.991 31.6732 123.771 31.6832 123.511C31.9332 94.6809 31.9532 60.9709 31.7232 22.3909C31.6932 17.2509 31.9032 12.0109 29.6332 7.53095C29.4932 7.26095 29.4932 6.93092 29.6332 6.54092C29.7432 6.24092 29.6532 5.91094 29.4232 5.71094C26.1732 2.91094 23.4232 1.43095 21.1932 1.28095C18.8232 1.11095 18.2632 0.720932 19.5032 0.110932C29.3232 -0.0190683 35.8632 8.01092 36.3032 17.4409Z" fill="#017AB6"/>
<path d="M21.5325 4.80696C18.4425 4.49696 15.3625 5.24697 12.2925 7.03697C8.60247 9.18697 6.71249 12.687 6.62249 17.537C5.87249 56.147 5.68248 94.907 6.05248 133.797C6.07248 135.787 5.83249 137.487 5.37249 139.147C5.29249 139.447 4.99249 139.637 4.68249 139.597C4.37249 139.557 4.14251 139.297 4.14251 138.987C3.90251 108.447 3.7925 82.917 3.8225 62.407C3.8225 59.657 3.90248 56.157 4.05248 51.907C4.21248 47.287 3.91251 42.777 3.83251 37.907C3.68251 27.837 3.62247 20.437 3.66247 15.717C3.70247 10.327 6.04249 6.53695 10.6825 4.36695C14.3925 2.62695 18.0625 2.58696 21.6825 4.24696C21.8125 4.30696 21.8825 4.45695 21.8425 4.58695C21.8025 4.72695 21.6725 4.81696 21.5325 4.80696Z" fill="#7BD5F6"/>
<path d="M0.00195312 22.4609C0.571953 41.3909 0.621978 60.3109 0.151978 79.2209L0.00195312 22.4609Z" fill="#25BEB9"/>
</svg>
